<?xml version="1.0" standalone="no"?>
<!DOCTYPE svg PUBLIC "-//W3C//DTD SVG 1.1//EN" "http://www.w3.org/Graphics/SVG/1.1/DTD/svg11.dtd" >
<svg xmlns="http://www.w3.org/2000/svg" xmlns:xlink="http://www.w3.org/1999/xlink" version="1.1">
<metadata>
Created by FontForge 20170910 at Mon Nov  7 14:59:01 2016
 By Jimmy Wärting
Copyright 2010 The Neuton Project Authors (http://www.21326.info/), with Reserved Font Name "Neuton".
</metadata>
<defs>
<font id="Neuton-Light" horiz-adv-x="765" >
  <font-face 
    font-family="Neuton Light"
    font-weight="300"
    font-stretch="normal"
    units-per-em="2048"
    panose-1="0 0 4 0 0 0 0 0 0 0"
    ascent="1638"
    descent="-410"
    x-height="861"
    cap-height="1244"
    bbox="-12 -417 1795 1731"
    underline-thickness="0"
    underline-position="-361"
    unicode-range="U+000D-25CA"
  />
<missing-glyph horiz-adv-x="1024" 
d="M840 1638v-2048h-650v2048h650zM682 1501h-338v-68h133v-76h-135v-67h340v67h-135v76h135v68zM547 1237h-205v-213h340v69h-135v144zM477 1167v-74h-67v74h67zM682 968h-340v-67h135v-76h-135v-68h205v144h135v67zM682 845h-68v-135h-272v-69h340v204zM682 596h-205v-115
h70v47h67v-96h-204v164h-68v-232h340v232zM682 241h-340v-231h340v231zM614 174v-97h-204v97h204zM682 -37h-340v-68h143l-143 -96v-68h340v68h-209l143 96h66v68z" />
    <glyph glyph-name=".notdef" horiz-adv-x="1024" 
d="M840 1638v-2048h-650v2048h650zM682 1501h-338v-68h133v-76h-135v-67h340v67h-135v76h135v68zM547 1237h-205v-213h340v69h-135v144zM477 1167v-74h-67v74h67zM682 968h-340v-67h135v-76h-135v-68h205v144h135v67zM682 845h-68v-135h-272v-69h340v204zM682 596h-205v-115
h70v47h67v-96h-204v164h-68v-232h340v232zM682 241h-340v-231h340v231zM614 174v-97h-204v97h204zM682 -37h-340v-68h143l-143 -96v-68h340v68h-209l143 96h66v68z" />
    <glyph glyph-name="NULL" horiz-adv-x="0" 
 />
    <glyph glyph-name="NULL" horiz-adv-x="0" 
 />
    <glyph glyph-name="nonmarkingreturn" unicode="&#xd;" horiz-adv-x="316" 
 />
    <glyph glyph-name="space" unicode=" " horiz-adv-x="316" 
 />
    <glyph glyph-name="A" unicode="A" horiz-adv-x="1326" 
d="M480 0l10 63l-185 32l131 360h425l124 -354l-169 -43l-10 -58h462l8 64l-135 31l-402 1173l-102 -22l-438 -1145l-145 -43l-8 -58h434zM657 1060l180 -526h-373z" />
    <glyph glyph-name="Aacute" unicode="&#xc1;" horiz-adv-x="1326" 
d="M687 1362l182 321l-103 39l-128 -330zM480 0l10 63l-185 32l131 360h425l124 -354l-169 -43l-10 -58h462l8 64l-135 31l-402 1173l-102 -22l-438 -1145l-145 -43l-8 -58h434zM657 1060l180 -526h-373z" />
    <glyph glyph-name="Acircumflex" unicode="&#xc2;" horiz-adv-x="1326" 
d="M523 1372l149 123h9l173 -122l40 37l-178 186l-55 -14l-168 -180zM480 0l10 63l-185 32l131 360h425l124 -354l-169 -43l-10 -58h462l8 64l-135 31l-402 1173l-102 -22l-438 -1145l-145 -43l-8 -58h434zM657 1060l180 -526h-373z" />
    <glyph glyph-name="Adieresis" unicode="&#xc4;" horiz-adv-x="1326" 
d="M597 1380.5q19 21.5 19 59.5q0 36 -20 57t-52 21q-30 0 -50 -21t-20 -57q0 -37 19.5 -59t51.5 -22q33 0 52 21.5zM865.5 1380.5q19.5 21.5 19.5 59.5q0 36 -20.5 57t-52.5 21q-30 0 -49.5 -21t-19.5 -57q0 -37 19 -59t51 -22q33 0 52.5 21.5zM480 0l10 63l-185 32
l131 360h425l124 -354l-169 -43l-10 -58h462l8 64l-135 31l-402 1173l-102 -22l-438 -1145l-145 -43l-8 -58h434zM657 1060l180 -526h-373z" />
    <glyph glyph-name="Agrave" unicode="&#xc0;" horiz-adv-x="1326" 
d="M655 1362l51 31l-133 335l-104 -37zM480 0l10 63l-185 32l131 360h425l124 -354l-169 -43l-10 -58h462l8 64l-135 31l-402 1173l-102 -22l-438 -1145l-145 -43l-8 -58h434zM657 1060l180 -526h-373z" />
    <glyph glyph-name="Aring" unicode="&#xc5;" horiz-adv-x="1326" 
d="M765.5 1369.5q38.5 24.5 60 65t21.5 85.5q0 72 -43 117.5t-114 45.5q-46 0 -84.5 -23.5t-60.5 -63t-22 -85.5q0 -76 42.5 -121t112.5 -45q49 0 87.5 24.5zM751.5 1599q27.5 -40 27.5 -92q0 -56 -24 -86.5t-66 -30.5q-46 0 -72.5 41t-26.5 92q0 48 22.5 82t66.5 34
q45 0 72.5 -40zM480 0l10 63l-185 32l131 360h425l124 -354l-169 -43l-10 -58h462l8 64l-135 31l-402 1173l-102 -22l-438 -1145l-145 -43l-8 -58h434zM657 1060l180 -526h-373z" />
    <glyph glyph-name="Atilde" unicode="&#xc3;" horiz-adv-x="1326" 
d="M499 1392q9 15 24.5 29t33.5 14q7 0 10 -1l201 -42q12 -3 23 -3q42 0 71.5 31.5t45 68t15.5 42.5l-42 2q-2 -4 -9.5 -17.5t-21.5 -26t-33 -12.5q-4 0 -12 2l-203 42q-8 2 -22 2q-41 0 -69 -31.5t-42 -67t-14 -42.5l33 -10q2 5 11 20zM480 0l10 63l-185 32l131 360h425
l124 -354l-169 -43l-10 -58h462l8 64l-135 31l-402 1173l-102 -22l-438 -1145l-145 -43l-8 -58h434zM657 1060l180 -526h-373z" />
    <glyph glyph-name="AE" unicode="&#xc6;" horiz-adv-x="1740" 
d="M484 2l10 64l-186 30l227 376h355v-376l-180 -38l-7 -58h962l30 313l-60 13l-86 -251h-514v521h286l25 -187l66 12l34 387l-72 -7l-40 -132h-299v504h486l31 -237l65 -10l32 318h-1024l-9 -57l224 -33l-644 -1052l-139 -42l-8 -58h435zM894 1075l-3 -522h-310z" />
    <glyph glyph-name="B" unicode="B" horiz-adv-x="1097" 
d="M831 52.5q119 52.5 169.5 137.5t50.5 190q0 69 -36 134.5t-106 109t-168 48.5v7q101 46 153.5 121t52.5 167q0 79 -46 144.5t-140 105.5t-231 40q-104 0 -195 -9.5t-218 -28.5l-55 -8l-9 -56l171 -26v-1033l-168 -38l-10 -58h472q194 0 313 52.5zM471 1192
q166 0 248.5 -73.5t82.5 -196.5q0 -82 -41 -142.5t-106 -94.5h-284v501q32 6 100 6zM610 618q99 0 164.5 -40t95.5 -102t30 -129q0 -72 -30.5 -133.5t-97.5 -100t-169 -38.5h-232v543h239z" />
    <glyph glyph-name="C" unicode="C" horiz-adv-x="1096" 
d="M789.5 8.5q90.5 33.5 158.5 84t107 102.5l-29 57q-71 -72 -164 -120t-193 -48q-133 0 -236 66t-161.5 194t-58.5 307q0 159 52 283t141 192.5t195 68.5q184 0 268 -109l36 -240l68 -10l31 335q-130 99 -351 99q-198 0 -334 -101.5t-202.5 -256.5t-66.5 -313
q0 -191 72.5 -332.5t198 -216.5t279.5 -75q99 0 189.5 33.5z" />
    <glyph glyph-name="Ccaron" unicode="&#x10c;" horiz-adv-x="1096" 
d="M686 1372l56 14l173 182l-41 29l-132 -153h-10l-157 156l-68 -55zM789.5 8.5q90.5 33.5 158.5 84t107 102.5l-29 57q-71 -72 -164 -120t-193 -48q-133 0 -236 66t-161.5 194t-58.5 307q0 159 52 283t141 192.5t195 68.5q184 0 268 -109l36 -240l68 -10l31 335
q-130 99 -351 99q-198 0 -334 -101.5t-202.5 -256.5t-66.5 -313q0 -191 72.5 -332.5t198 -216.5t279.5 -75q99 0 189.5 33.5z" />
    <glyph glyph-name="Ccedilla" unicode="&#xc7;" horiz-adv-x="1096" 
d="M963.5 103.5q-57.5 -45.5 -134.5 -79.5t-162 -45l-48 -70q39 -34 64 -70.5t25 -80.5q0 -56 -52.5 -95.5t-147.5 -67.5l-16 51q43 15 73 41.5t30 49.5q0 29 -17 52.5t-37 42.5t-26 25l82 118q-154 1 -278.5 76.5t-196.5 216.5t-72 331q0 158 66.5 313t202.5 256.5
t334 101.5q221 0 351 -99l-31 -335l-68 10l-36 240q-84 109 -268 109q-106 0 -195 -68.5t-141 -192.5t-52 -283q0 -179 58.5 -307t161.5 -194t236 -66q100 0 193 48t164 120l29 -57q-34 -46 -91.5 -91.5z" />
    <glyph glyph-name="D" unicode="D" horiz-adv-x="1302" 
d="M921 89.5q168 89.5 250.5 238t82.5 326.5q0 167 -66 302.5t-221.5 219t-409.5 83.5q-104 0 -219 -12t-274 -37l-10 -56l173 -26v-1027l-171 -43l-11 -58h463q245 0 413 89.5zM521 1181q184 0 312.5 -74.5t193 -206t64.5 -301.5q0 -151 -65.5 -269t-191.5 -184.5
t-299 -66.5h-162v1097q41 5 148 5z" />
    <glyph glyph-name="Eth" unicode="&#xd0;" horiz-adv-x="1314" 
d="M232 101l-171 -43l-11 -58h472q241 0 409 92t251.5 242t83.5 323q0 166 -68 301.5t-225 218.5t-411 83q-104 0 -219 -12t-274 -37l-10 -56l173 -26v-467l-171 -12l-10 -76l181 13v-486zM640 616l10 76l-272 -20v504q49 6 148 6q185 0 314.5 -74.5t195 -206.5t65.5 -302
q0 -149 -61.5 -267t-180.5 -185.5t-285 -67.5h-196v518z" />
    <glyph glyph-name="E" unicode="E" horiz-adv-x="1098" 
d="M228 1151v-1055l-169 -38l-6 -58h970l30 313l-62 11l-86 -249h-529v519h303l25 -186l66 11l33 389l-72 -11l-40 -129h-315v505h503l30 -239l67 -9l31 319h-951l-9 -59z" />
    <glyph glyph-name="Eacute" unicode="&#xc9;" horiz-adv-x="1098" 
d="M539 1362l182 321l-103 39l-128 -330zM228 1151v-1055l-169 -38l-6 -58h970l30 313l-62 11l-86 -249h-529v519h303l25 -186l66 11l33 389l-72 -11l-40 -129h-315v505h503l30 -239l67 -9l31 319h-951l-9 -59z" />
    <glyph glyph-name="Ecaron" unicode="&#x11a;" horiz-adv-x="1098" 
d="M592 1372l56 14l173 182l-41 29l-132 -153h-10l-157 156l-68 -55zM228 1151v-1055l-169 -38l-6 -58h970l30 313l-62 11l-86 -249h-529v519h303l25 -186l66 11l33 389l-72 -11l-40 -129h-315v505h503l30 -239l67 -9l31 319h-951l-9 -59z" />
    <glyph glyph-name="Ecircumflex" unicode="&#xca;" horiz-adv-x="1098" 
d="M406 1362l149 123h9l173 -122l40 37l-178 186l-55 -14l-168 -180zM228 1151v-1055l-169 -38l-6 -58h970l30 313l-62 11l-86 -249h-529v519h303l25 -186l66 11l33 389l-72 -11l-40 -129h-315v505h503l30 -239l67 -9l31 319h-951l-9 -59z" />
    <glyph glyph-name="Edieresis" unicode="&#xcb;" horiz-adv-x="1098" 
d="M486 1393.5q19 21.5 19 59.5q0 36 -20 57t-52 21q-30 0 -50 -21t-20 -57q0 -37 19.5 -59t51.5 -22q33 0 52 21.5zM754.5 1393.5q19.5 21.5 19.5 59.5q0 36 -20.5 57t-52.5 21q-30 0 -49.5 -21t-19.5 -57q0 -37 19 -59t51 -22q33 0 52.5 21.5zM228 1151v-1055l-169 -38
l-6 -58h970l30 313l-62 11l-86 -249h-529v519h303l25 -186l66 11l33 389l-72 -11l-40 -129h-315v505h503l30 -239l67 -9l31 319h-951l-9 -59z" />
    <glyph glyph-name="Egrave" unicode="&#xc8;" horiz-adv-x="1098" 
d="M566 1362l51 31l-133 335l-104 -37zM228 1151v-1055l-169 -38l-6 -58h970l30 313l-62 11l-86 -249h-529v519h303l25 -186l66 11l33 389l-72 -11l-40 -129h-315v505h503l30 -239l67 -9l31 319h-951l-9 -59z" />
    <glyph glyph-name="F" unicode="F" horiz-adv-x="1053" 
d="M227 1151v-1055l-169 -38l-5 -58h551l12 68l-241 28l1 483h301l24 -188l69 11l29 390l-71 -10l-41 -130h-311v521h497l28 -240l68 -10l37 321h-950l-8 -59z" />
    <glyph glyph-name="G" unicode="G" horiz-adv-x="1258" 
d="M868 -2.5q112 23.5 209 81.5v388l129 32l10 57h-518l-10 -61l239 -32l-1 -344q-40 -27 -96.5 -42.5t-119.5 -15.5q-164 0 -275.5 81t-166 213t-54.5 285q0 168 54.5 290.5t150.5 187t216 64.5q109 0 193.5 -35t124.5 -81l33 -214l66 -11l28 321q-72 49 -178 74.5
t-225 25.5q-175 0 -318.5 -90.5t-226 -244.5t-82.5 -336q0 -181 67.5 -321t192 -218t291.5 -78q155 0 267 23.5z" />
    <glyph glyph-name="H" unicode="H" horiz-adv-x="1435" 
d="M228 1154v-1058l-168 -38l-6 -58h497l12 63l-186 27v501l673 1v-496l-165 -38l-10 -58h499l8 63l-182 27v1066l167 31l9 57h-500l-9 -57l183 -33v-482h-673v484l169 31l8 57h-501l-7 -57z" />
    <glyph glyph-name="I" unicode="I" horiz-adv-x="614" 
d="M223 1154v-1058l-162 -38l-7 -58h497l10 63l-187 27v1066l172 31l9 57h-501l-8 -57z" />
    <glyph glyph-name="Iacute" unicode="&#xcd;" horiz-adv-x="614" 
d="M278 1362l182 321l-103 39l-128 -330zM223 1154v-1058l-162 -38l-7 -58h497l10 63l-187 27v1066l172 31l9 57h-501l-8 -57z" />
    <glyph glyph-name="Icircumflex" unicode="&#xce;" horiz-adv-x="614" 
d="M135 1362l149 123h9l173 -122l40 37l-178 186l-55 -14l-168 -180zM223 1154v-1058l-162 -38l-7 -58h497l10 63l-187 27v1066l172 31l9 57h-501l-8 -57z" />
    <glyph glyph-name="Idieresis" unicode="&#xcf;" horiz-adv-x="614" 
d="M225 1383.5q19 21.5 19 59.5q0 36 -20 57t-52 21q-30 0 -50 -21t-20 -57q0 -37 19.5 -59t51.5 -22q33 0 52 21.5zM493.5 1383.5q19.5 21.5 19.5 59.5q0 36 -20.5 57t-52.5 21q-30 0 -49.5 -21t-19.5 -57q0 -37 19 -59t51 -22q33 0 52.5 21.5zM223 1154v-1058l-162 -38
l-7 -58h497l10 63l-187 27v1066l172 31l9 57h-501l-8 -57z" />
    <glyph glyph-name="Igrave" unicode="&#xcc;" horiz-adv-x="614" 
d="M282 1365l51 31l-133 335l-104 -37zM223 1154v-1058l-162 -38l-7 -58h497l10 63l-187 27v1066l172 31l9 57h-501l-8 -57z" />
    <glyph glyph-name="J" unicode="J" horiz-adv-x="656" 
d="M292.5 -146.5q72.5 81.5 105 199.5t33.5 319l2 784l170 31l9 57h-503l-8 -57l182 -33v-945q0 -135 -60 -245t-185 -223l38 -66q144 97 216.5 178.5z" />
    <glyph glyph-name="K" unicode="K" horiz-adv-x="1251" 
d="M227 1149v-1048l-164 -43l-8 -58h500l10 63l-187 32v1057l171 35l7 57h-500l-10 -57zM696 246q68 -87 123 -143t117.5 -90t133.5 -34q30 0 56.5 5.5t62.5 17.5l11 56l-46 10q-60 14 -109.5 48t-98 85t-137.5 157l-245 291l411 503l165 35l7 57h-450l-6 -57l165 -36
l-289 -361q-50 -62 -150 -167l2 -19z" />
    <glyph glyph-name="L" unicode="L" horiz-adv-x="1078" 
d="M998 0l34 331l-64 10l-105 -266h-487v1077l175 34l7 58h-502l-9 -58l180 -38v-1052l-167 -38l-8 -58h946z" />
    <glyph glyph-name="M" unicode="M" horiz-adv-x="1711" 
d="M491 0l10 60l-183 26l71 973l376 -1018l89 14l423 1032l57 -995l-169 -38l-8 -54h499l6 60l-181 26l-54 1068l171 34l7 56h-360l-67 -152l-334 -824l-287 785l-75 191h-360l-9 -56l184 -37l-77 -1059l-168 -38l-8 -54h447z" />
    <glyph glyph-name="N" unicode="N" horiz-adv-x="1368" 
d="M229 1147v-1051l-167 -38l-6 -58h448l10 63l-184 27v957l713 -1071l104 21v1159l166 31l11 57h-450l-9 -57l185 -33v-929l-667 1019h-327l-10 -56z" />
    <glyph glyph-name="Ntilde" unicode="&#xd1;" horiz-adv-x="1368" 
d="M458 1382q9 15 24.5 29t33.5 14q7 0 10 -1l201 -42q12 -3 23 -3q42 0 71.5 31.5t45 68t15.5 42.5l-42 2q-2 -4 -9.5 -17.5t-21.5 -26t-33 -12.5q-4 0 -12 2l-203 42q-8 2 -22 2q-41 0 -69 -31.5t-42 -67t-14 -42.5l33 -10q2 5 11 20zM229 1147v-1051l-167 -38l-6 -58h448
l10 63l-184 27v957l713 -1071l104 21v1159l166 31l11 57h-450l-9 -57l185 -33v-929l-667 1019h-327l-10 -56z" />
    <glyph glyph-name="O" unicode="O" horiz-adv-x="1266" 
d="M935.5 65q140.5 92 211.5 241.5t71 317.5q0 182 -65 330t-189 234t-295 86q-187 0 -327.5 -82.5t-216 -231t-75.5 -340.5q0 -178 69 -326t194 -234.5t286 -86.5q196 0 336.5 92zM855.5 1112.5q97.5 -84.5 147 -226.5t49.5 -312q0 -131 -41.5 -248.5t-132.5 -192.5
t-231 -75t-237 83.5t-145 224.5t-48 312q0 140 40.5 257t131 189.5t231.5 72.5q138 0 235.5 -84.5z" />
    <glyph glyph-name="Oacute" unicode="&#xd3;" horiz-adv-x="1266" 
d="M610 1362l182 321l-103 39l-128 -330zM935.5 65q140.5 92 211.5 241.5t71 317.5q0 182 -65 330t-189 234t-295 86q-187 0 -327.5 -82.5t-216 -231t-75.5 -340.5q0 -178 69 -326t194 -234.5t286 -86.5q196 0 336.5 92zM855.5 1112.5q97.5 -84.5 147 -226.5t49.5 -312
q0 -131 -41.5 -248.5t-132.5 -192.5t-231 -75t-237 83.5t-145 224.5t-48 312q0 140 40.5 257t131 189.5t231.5 72.5q138 0 235.5 -84.5z" />
    <glyph glyph-name="Ocircumflex" unicode="&#xd4;" horiz-adv-x="1266" 
d="M473 1362l149 123h9l173 -122l40 37l-178 186l-55 -14l-168 -180zM935.5 65q140.5 92 211.5 241.5t71 317.5q0 182 -65 330t-189 234t-295 86q-187 0 -327.5 -82.5t-216 -231t-75.5 -340.5q0 -178 69 -326t194 -234.5t286 -86.5q196 0 336.5 92zM855.5 1112.5
q97.5 -84.5 147 -226.5t49.5 -312q0 -131 -41.5 -248.5t-132.5 -192.5t-231 -75t-237 83.5t-145 224.5t-48 312q0 140 40.5 257t131 189.5t231.5 72.5q138 0 235.5 -84.5z" />
    <glyph glyph-name="Odieresis" unicode="&#xd6;" horiz-adv-x="1266" 
d="M547 1385.5q19 21.5 19 59.5q0 36 -20 57t-52 21q-30 0 -50 -21t-20 -57q0 -37 19.5 -59t51.5 -22q33 0 52 21.5zM815.5 1385.5q19.5 21.5 19.5 59.5q0 36 -20.5 57t-52.5 21q-30 0 -49.5 -21t-19.5 -57q0 -37 19 -59t51 -22q33 0 52.5 21.5zM935.5 65
q140.5 92 211.5 241.5t71 317.5q0 182 -65 330t-189 234t-295 86q-187 0 -327.5 -82.5t-216 -231t-75.5 -340.5q0 -178 69 -326t194 -234.5t286 -86.5q196 0 336.5 92zM855.5 1112.5q97.5 -84.5 147 -226.5t49.5 -312q0 -131 -41.5 -248.5t-132.5 -192.5t-231 -75t-237 83.5
t-145 224.5t-48 312q0 140 40.5 257t131 189.5t231.5 72.5q138 0 235.5 -84.5z" />
    <glyph glyph-name="Ograve" unicode="&#xd2;" horiz-adv-x="1266" 
d="M617 1362l51 31l-133 335l-104 -37zM935.5 65q140.5 92 211.5 241.5t71 317.5q0 182 -65 330t-189 234t-295 86q-187 0 -327.5 -82.5t-216 -231t-75.5 -340.5q0 -178 69 -326t194 -234.5t286 -86.5q196 0 336.5 92zM855.5 1112.5q97.5 -84.5 147 -226.5t49.5 -312
q0 -131 -41.5 -248.5t-132.5 -192.5t-231 -75t-237 83.5t-145 224.5t-48 312q0 140 40.5 257t131 189.5t231.5 72.5q138 0 235.5 -84.5z" />
    <glyph glyph-name="Oslash" unicode="&#xd8;" horiz-adv-x="1264" 
d="M1176 891q40 -123 40 -267q0 -168 -71 -317.5t-211 -241.5t-336 -92q-90 0 -169.5 27.5t-144.5 79.5l-60 -85l-116 13l104 140q-78 89 -120 211t-42 261q0 192 75.5 340.5t215.5 231t327 82.5t321 -104l48 63l121 -13l-98 -118q76 -88 116 -211zM387.5 1124.5
q-90.5 -72.5 -131.5 -189.5t-41 -257q0 -122 25.5 -231.5t75.5 -191.5l600 793q-55 71 -129.5 110t-167.5 39q-141 0 -231.5 -72.5zM878 133q91 75 132 192.5t41 248.5q0 120 -24.5 227t-72.5 190l-600 -792q115 -141 293 -141q140 0 231 75z" />
    <glyph glyph-name="Otilde" unicode="&#xd5;" horiz-adv-x="1266" 
d="M441 1382q9 15 24.5 29t33.5 14q7 0 10 -1l201 -42q12 -3 23 -3q42 0 71.5 31.5t45 68t15.5 42.5l-42 2q-2 -4 -9.5 -17.5t-21.5 -26t-33 -12.5q-4 0 -12 2l-203 42q-8 2 -22 2q-41 0 -69 -31.5t-42 -67t-14 -42.5l33 -10q2 5 11 20zM935.5 65q140.5 92 211.5 241.5
t71 317.5q0 182 -65 330t-189 234t-295 86q-187 0 -327.5 -82.5t-216 -231t-75.5 -340.5q0 -178 69 -326t194 -234.5t286 -86.5q196 0 336.5 92zM855.5 1112.5q97.5 -84.5 147 -226.5t49.5 -312q0 -131 -41.5 -248.5t-132.5 -192.5t-231 -75t-237 83.5t-145 224.5t-48 312
q0 140 40.5 257t131 189.5t231.5 72.5q138 0 235.5 -84.5z" />
    <glyph glyph-name="OE" unicode="&#x152;" horiz-adv-x="1679" 
d="M792 0h777l31 313l-63 11l-85 -249h-507v519h280l25 -186l67 11l34 389l-73 -11l-40 -129h-293v505h481l30 -239l66 -9l31 319l-714 1q-77 29 -182 29q-186 0 -319.5 -82t-203.5 -230t-70 -342q0 -182 63.5 -329.5t182 -232.5t278.5 -85q93 0 204 27zM795 1139v-1046
q-72 -38 -162 -38q-130 0 -221.5 87.5t-137 229.5t-45.5 306q0 152 43 269t128.5 183.5t209.5 66.5q103 0 185 -58z" />
    <glyph glyph-name="P" unicode="P" horiz-adv-x="1039" 
d="M603 65l-235 29v1092q11 1 45.5 3.5t60.5 2.5q117 0 196.5 -44.5t118 -119t38.5 -163.5q0 -139 -84.5 -221t-259.5 -89l-53 -2l15 -62q34 -3 74 -3q124 0 233 51.5t175 144t66 209.5q0 191 -137.5 277t-355.5 86q-103 0 -194.5 -10t-209.5 -29l-37 -6l-8 -56l166 -26
v-1033l-163 -38l-8 -58h546z" />
    <glyph glyph-name="Thorn" unicode="&#xde;" horiz-adv-x="1045" 
d="M225 96l-165 -39l-7 -57h546l11 64l-235 30v852q11 1 46 4t61 3q115 0 194.5 -43.5t118.5 -116.5t39 -161q0 -140 -85 -222.5t-259 -86.5l-53 -1q0 -21 14 -63q48 -5 84 -5q124 0 230.5 51t170 144t63.5 211q0 192 -136.5 278t-356.5 86q-70 0 -131 -3v135l173 31l8 57
h-501l-8 -57l178 -33v-1058z" />
    <glyph glyph-name="Q" unicode="Q" horiz-adv-x="1273" 
d="M672 -21q13 -105 61 -188t122 -129.5t162 -46.5q101 0 164 30q3 8 6 27.5t4 33.5q-124 16 -203.5 46.5t-134.5 86.5t-98 152q146 34 252.5 130.5t162 230t55.5 277.5q0 180 -65 327t-189.5 232.5t-294.5 85.5q-186 0 -328.5 -84.5t-220 -234.5t-77.5 -341q0 -177 71 -324
t196.5 -232t282.5 -85q38 0 72 6zM857.5 1108.5q101.5 -84.5 156 -227.5t54.5 -313q0 -121 -41 -230t-124 -186.5t-204 -104.5q-158 6 -269 95.5t-167 230t-56 297.5q0 156 49 274t142.5 183.5t224.5 65.5q133 0 234.5 -84.5z" />
    <glyph glyph-name="R" unicode="R" horiz-adv-x="1223" 
d="M564 64l-200 32v458h194l181 -309q76 -128 150 -196t169 -68q31 0 53.5 3t52.5 14l11 53l-41 13q-49 15 -85.5 42t-79 78.5t-112.5 151.5l-186 268v1q143 61 212 151.5t69 195.5q0 153 -123 227.5t-328 74.5q-101 0 -203 -11.5t-237 -33.5l-10 -56l166 -26v-1031
l-162 -38l-9 -58h508zM410 1187q36 2 75 2q96 0 165.5 -34t106.5 -96.5t37 -148.5q0 -99 -62.5 -174t-154.5 -108h-213v556q10 1 46 3z" />
    <glyph glyph-name="Rcaron" unicode="&#x158;" horiz-adv-x="1223" 
d="M560 1372l56 14l173 182l-41 29l-132 -153h-10l-157 156l-68 -55zM564 64l-200 32v458h194l181 -309q76 -128 150 -196t169 -68q31 0 53.5 3t52.5 14l11 53l-41 13q-49 15 -85.5 42t-79 78.5t-112.5 151.5l-186 268v1q143 61 212 151.5t69 195.5q0 153 -123 227.5
t-328 74.5q-101 0 -203 -11.5t-237 -33.5l-10 -56l166 -26v-1031l-162 -38l-9 -58h508zM410 1187q36 2 75 2q96 0 165.5 -34t106.5 -96.5t37 -148.5q0 -99 -62.5 -174t-154.5 -108h-213v556q10 1 46 3z" />
    <glyph glyph-name="S" unicode="S" horiz-adv-x="850" 
d="M596 20.5q97 45.5 153 127t56 183.5q0 84 -42.5 148.5t-103 109t-162.5 104.5q-94 56 -148.5 94.5t-91.5 92t-37 121.5q0 63 26 108t70.5 68t98.5 23q58 0 114 -32t77 -72l26 -218l73 -9l27 296q-54 51 -129 78t-158 27q-92 0 -175 -39.5t-134.5 -115t-51.5 -177.5
q0 -89 43.5 -157t105.5 -114t165 -108q88 -52 139.5 -89t86 -86t34.5 -110q0 -70 -34.5 -119t-89.5 -73.5t-115 -24.5q-77 0 -143.5 34.5t-97.5 89.5l-33 203l-75 11l-22 -276q51 -62 140 -103t193 -41q118 0 215 45.5z" />
    <glyph glyph-name="Scaron" unicode="&#x160;" horiz-adv-x="850" 
d="M452 1372l56 14l173 182l-41 29l-132 -153h-10l-157 156l-68 -55zM596 20.5q97 45.5 153 127t56 183.5q0 84 -42.5 148.5t-103 109t-162.5 104.5q-94 56 -148.5 94.5t-91.5 92t-37 121.5q0 63 26 108t70.5 68t98.5 23q58 0 114 -32t77 -72l26 -218l73 -9l27 296
q-54 51 -129 78t-158 27q-92 0 -175 -39.5t-134.5 -115t-51.5 -177.5q0 -89 43.5 -157t105.5 -114t165 -108q88 -52 139.5 -89t86 -86t34.5 -110q0 -70 -34.5 -119t-89.5 -73.5t-115 -24.5q-77 0 -143.5 34.5t-97.5 89.5l-33 203l-75 11l-22 -276q51 -62 140 -103t193 -41
q118 0 215 45.5z" />
    <glyph glyph-name="uni1E9E" unicode="&#x1e9e;" horiz-adv-x="1264" 
d="M366 780q0 195 75 303t220 108q58 0 88 -3l-2 -4q-68 -16 -119.5 -62.5t-78.5 -112t-27 -135.5q0 -86 42 -149.5t101.5 -105.5t158.5 -98q85 -48 134 -81.5t82 -79.5t33 -104q0 -101 -63.5 -150t-157.5 -49q-77 0 -145.5 34t-98.5 88l-31 198l-72 11l-21 -270
q46 -65 135 -104t195 -39q118 0 210 41.5t143.5 117.5t51.5 178q0 80 -40 140t-98 100.5t-155 95.5q-91 51 -144.5 88t-90 89.5t-36.5 120.5q0 61 29 108t73 73t88 26q85 0 135.5 -63t75.5 -158q53 18 77.5 43.5t24.5 72.5q0 70 -72 118t-178 71.5t-209 23.5
q-231 0 -355 -122.5t-124 -380.5v-662l-167 -39l-7 -57h320v780z" />
    <glyph glyph-name="T" unicode="T" horiz-adv-x="1166" 
d="M55 923l71 -11l45 261h325v-1077l-172 -38l-6 -58h497l12 63l-181 31v1079h338l27 -253l73 -11l34 335h-1072z" />
    <glyph glyph-name="U" unicode="U" horiz-adv-x="1398" 
d="M226 465q0 -492 467 -492q250 0 364 133t116 397l5 653l166 31l9 57h-451l-8 -57l184 -33l-1 -688q0 -195 -89.5 -294t-253.5 -99q-169 0 -264.5 102.5t-95.5 327.5v653l169 31l7 57h-498l-9 -57l183 -33v-689z" />
    <glyph glyph-name="Uacute" unicode="&#xda;" horiz-adv-x="1398" 
d="M711 1362l182 321l-103 39l-128 -330zM226 465q0 -492 467 -492q250 0 364 133t116 397l5 653l166 31l9 57h-451l-8 -57l184 -33l-1 -688q0 -195 -89.5 -294t-253.5 -99q-169 0 -264.5 102.5t-95.5 327.5v653l169 31l7 57h-498l-9 -57l183 -33v-689z" />
    <glyph glyph-name="Ucircumflex" unicode="&#xdb;" horiz-adv-x="1398" 
d="M549 1362l149 123h9l173 -122l40 37l-178 186l-55 -14l-168 -180zM226 465q0 -492 467 -492q250 0 364 133t116 397l5 653l166 31l9 57h-451l-8 -57l184 -33l-1 -688q0 -195 -89.5 -294t-253.5 -99q-169 0 -264.5 102.5t-95.5 327.5v653l169 31l7 57h-498l-9 -57l183 -33
v-689z" />
    <glyph glyph-name="Udieresis" unicode="&#xdc;" horiz-adv-x="1398" 
d="M635 1389.5q19 21.5 19 59.5q0 36 -20 57t-52 21q-30 0 -50 -21t-20 -57q0 -37 19.5 -59t51.5 -22q33 0 52 21.5zM903.5 1389.5q19.5 21.5 19.5 59.5q0 36 -20.5 57t-52.5 21q-30 0 -49.5 -21t-19.5 -57q0 -37 19 -59t51 -22q33 0 52.5 21.5zM226 465q0 -492 467 -492
q250 0 364 133t116 397l5 653l166 31l9 57h-451l-8 -57l184 -33l-1 -688q0 -195 -89.5 -294t-253.5 -99q-169 0 -264.5 102.5t-95.5 327.5v653l169 31l7 57h-498l-9 -57l183 -33v-689z" />
    <glyph glyph-name="Ugrave" unicode="&#xd9;" horiz-adv-x="1398" 
d="M698 1362l51 31l-133 335l-104 -37zM226 465q0 -492 467 -492q250 0 364 133t116 397l5 653l166 31l9 57h-451l-8 -57l184 -33l-1 -688q0 -195 -89.5 -294t-253.5 -99q-169 0 -264.5 102.5t-95.5 327.5v653l169 31l7 57h-498l-9 -57l183 -33v-689z" />
    <glyph glyph-name="V" unicode="V" horiz-adv-x="1325" 
d="M191 1152l416 -1177l102 21l434 1160l130 32l5 56h-422l-6 -56l185 -36l-348 -946l-330 950l169 32l7 56h-482l-7 -56z" />
    <glyph glyph-name="W" unicode="W" horiz-adv-x="1841" 
d="M175 1153l331 -1177l117 20l290 975l265 -996l109 21l380 1158l120 34l8 56h-417l-8 -55l184 -38l-292 -918l-266 981l-111 -15l-290 -974l-264 931l166 34l9 54h-454l-8 -56z" />
    <glyph glyph-name="X" unicode="X" horiz-adv-x="1294" 
d="M449 0l12 62l-166 27l333 461l309 -460l-162 -39l-9 -51h465l10 58l-136 26l-378 570l368 505l126 29l4 56h-402l-9 -57l171 -32l-314 -428l-289 425l156 37l7 55h-466l-8 -55l137 -35l364 -534l-391 -528l-126 -36l-9 -56h403z" />
    <glyph glyph-name="Y" unicode="Y" horiz-adv-x="1214" 
d="M183 1152l354 -655v-401l-162 -38l-8 -58h483l9 63l-172 28v418l347 647l127 32l6 56h-417l-6 -56l184 -36l-287 -547l-296 551l163 32l8 56h-463l-9 -56z" />
    <glyph glyph-name="Yacute" unicode="&#xdd;" horiz-adv-x="1214" 
d="M629 1362l182 321l-103 39l-128 -330zM183 1152l354 -655v-401l-162 -38l-8 -58h483l9 63l-172 28v418l347 647l127 32l6 56h-417l-6 -56l184 -36l-287 -547l-296 551l163 32l8 56h-463l-9 -56z" />
    <glyph glyph-name="Ydieresis" unicode="&#x178;" horiz-adv-x="1214" 
d="M183 1152l354 -655v-401l-162 -38l-8 -58h483l9 63l-172 28v418l347 647l127 32l6 56h-417l-6 -56l184 -36l-287 -547l-296 551l163 32l8 56h-463l-9 -56zM583 1457.5q19 21.5 19 59.5q0 36 -20 57t-52 21q-30 0 -50 -21t-20 -57q0 -37 19.5 -59t51.5 -22q33 0 52 21.5z
M851.5 1457.5q19.5 21.5 19.5 59.5q0 36 -20.5 57t-52.5 21q-30 0 -49.5 -21t-19.5 -57q0 -37 19 -59t51 -22q33 0 52.5 21.5z" />
    <glyph glyph-name="Z" unicode="Z" horiz-adv-x="1070" 
d="M56 0h921l48 336l-69 11l-115 -268h-618l785 1109l-2 56h-903l-9 -326l64 -15l78 267h587l-774 -1099z" />
    <glyph glyph-name="Zcaron" unicode="&#x17d;" horiz-adv-x="1070" 
d="M526 1372l56 14l173 182l-41 29l-132 -153h-10l-157 156l-68 -55zM56 0h921l48 336l-69 11l-115 -268h-618l785 1109l-2 56h-903l-9 -326l64 -15l78 267h587l-774 -1099z" />
    <glyph glyph-name="uni1E9E.alt" horiz-adv-x="1277" 
d="M366 750q0 214 69 333.5t230 119.5q51 0 147 -13t131 -27v-4l-332 -448l22 -45q20 -11 40.5 -22t41.5 -22q110 -56 183.5 -102.5t127.5 -111t54 -141.5q0 -67 -29.5 -114.5t-80 -71.5t-113.5 -24q-76 0 -143 36t-98 92l-33 204l-76 11l-21 -277q46 -65 136.5 -106.5
t196.5 -41.5q120 0 212.5 43t144.5 122t52 183q0 94 -51 165t-119.5 117t-174.5 102q-18 10 -38.5 20.5t-42.5 23.5l327 433l-1 51q-55 16 -174 27.5t-251 11.5q-247 0 -365.5 -136t-118.5 -411v-630l-169 -39l-7 -58h323v750z" />
    <glyph glyph-name="a" unicode="a" horiz-adv-x="821" 
d="M381.5 0.5q57.5 25.5 94.5 61t54 68.5h8v-14q0 -55 35.5 -94.5t104.5 -39.5q27 0 48 3.5t51 11.5l20 5l9 60l-58 11q-44 7 -65.5 26t-28 49t-6.5 82v351q0 157 -59 230.5t-188 73.5q-72 0 -146 -29t-122 -76.5t-48 -98.5t33 -70.5t80 -19.5q5 82 16 128t37.5 70t77.5 24
q103 0 147.5 -74t44.5 -211v-67q-157 -7 -263.5 -46.5t-159 -105t-52.5 -150.5q0 -56 28.5 -98t75.5 -64t102 -22q72 0 129.5 25.5zM521 187q-27 -48 -82 -82t-121 -34q-40 0 -70 18t-45.5 47.5t-15.5 60.5q0 177 334 213v-223z" />
    <glyph glyph-name="aacute" unicode="&#xe1;" horiz-adv-x="821" 
d="M384 990l182 321l-103 39l-128 -330zM381.5 0.5q57.5 25.5 94.5 61t54 68.5h8v-14q0 -55 35.5 -94.5t104.5 -39.5q27 0 48 3.5t51 11.5l20 5l9 60l-58 11q-44 7 -65.5 26t-28 49t-6.5 82v351q0 157 -59 230.5t-188 73.5q-72 0 -146 -29t-122 -76.5t-48 -98.5t33 -70.5
t80 -19.5q5 82 16 128t37.5 70t77.5 24q103 0 147.5 -74t44.5 -211v-67q-157 -7 -263.5 -46.5t-159 -105t-52.5 -150.5q0 -56 28.5 -98t75.5 -64t102 -22q72 0 129.5 25.5zM521 187q-27 -48 -82 -82t-121 -34q-40 0 -70 18t-45.5 47.5t-15.5 60.5q0 177 334 213v-223z" />
    <glyph glyph-name="acircumflex" unicode="&#xe2;" horiz-adv-x="821" 
d="M199 980l149 123h9l173 -122l40 37l-178 186l-55 -14l-168 -180zM381.5 0.5q57.5 25.5 94.5 61t54 68.5h8v-14q0 -55 35.5 -94.5t104.5 -39.5q27 0 48 3.5t51 11.5l20 5l9 60l-58 11q-44 7 -65.5 26t-28 49t-6.5 82v351q0 157 -59 230.5t-188 73.5q-72 0 -146 -29
t-122 -76.5t-48 -98.5t33 -70.5t80 -19.5q5 82 16 128t37.5 70t77.5 24q103 0 147.5 -74t44.5 -211v-67q-157 -7 -263.5 -46.5t-159 -105t-52.5 -150.5q0 -56 28.5 -98t75.5 -64t102 -22q72 0 129.5 25.5zM521 187q-27 -48 -82 -82t-121 -34q-40 0 -70 18t-45.5 47.5
t-15.5 60.5q0 177 334 213v-223z" />
    <glyph glyph-name="adieresis" unicode="&#xe4;" horiz-adv-x="821" 
d="M281 1001.5q19 21.5 19 59.5q0 36 -20 57t-52 21q-30 0 -50 -21t-20 -57q0 -37 19.5 -59t51.5 -22q33 0 52 21.5zM549.5 1001.5q19.5 21.5 19.5 59.5q0 36 -20.5 57t-52.5 21q-30 0 -49.5 -21t-19.5 -57q0 -37 19 -59t51 -22q33 0 52.5 21.5zM381.5 0.5
q57.5 25.5 94.5 61t54 68.5h8v-14q0 -55 35.5 -94.5t104.5 -39.5q27 0 48 3.5t51 11.5l20 5l9 60l-58 11q-44 7 -65.5 26t-28 49t-6.5 82v351q0 157 -59 230.5t-188 73.5q-72 0 -146 -29t-122 -76.5t-48 -98.5t33 -70.5t80 -19.5q5 82 16 128t37.5 70t77.5 24
q103 0 147.5 -74t44.5 -211v-67q-157 -7 -263.5 -46.5t-159 -105t-52.5 -150.5q0 -56 28.5 -98t75.5 -64t102 -22q72 0 129.5 25.5zM521 187q-27 -48 -82 -82t-121 -34q-40 0 -70 18t-45.5 47.5t-15.5 60.5q0 177 334 213v-223z" />
    <glyph glyph-name="agrave" unicode="&#xe0;" horiz-adv-x="821" 
d="M371 990l51 31l-133 335l-104 -37zM381.5 0.5q57.5 25.5 94.5 61t54 68.5h8v-14q0 -55 35.5 -94.5t104.5 -39.5q27 0 48 3.5t51 11.5l20 5l9 60l-58 11q-44 7 -65.5 26t-28 49t-6.5 82v351q0 157 -59 230.5t-188 73.5q-72 0 -146 -29t-122 -76.5t-48 -98.5t33 -70.5
t80 -19.5q5 82 16 128t37.5 70t77.5 24q103 0 147.5 -74t44.5 -211v-67q-157 -7 -263.5 -46.5t-159 -105t-52.5 -150.5q0 -56 28.5 -98t75.5 -64t102 -22q72 0 129.5 25.5zM521 187q-27 -48 -82 -82t-121 -34q-40 0 -70 18t-45.5 47.5t-15.5 60.5q0 177 334 213v-223z" />
    <glyph glyph-name="aring" unicode="&#xe5;" horiz-adv-x="821" 
d="M447.5 1004.5q38.5 24.5 60 65t21.5 85.5q0 72 -43 117.5t-114 45.5q-46 0 -84.5 -23.5t-60.5 -63t-22 -85.5q0 -76 42.5 -121t112.5 -45q49 0 87.5 24.5zM433.5 1234q27.5 -40 27.5 -92q0 -56 -24 -86.5t-66 -30.5q-46 0 -72.5 41t-26.5 92q0 48 22.5 82t66.5 34
q45 0 72.5 -40zM381.5 0.5q57.5 25.5 94.5 61t54 68.5h8v-14q0 -55 35.5 -94.5t104.5 -39.5q27 0 48 3.5t51 11.5l20 5l9 60l-58 11q-44 7 -65.5 26t-28 49t-6.5 82v351q0 157 -59 230.5t-188 73.5q-72 0 -146 -29t-122 -76.5t-48 -98.5t33 -70.5t80 -19.5q5 82 16 128
t37.5 70t77.5 24q103 0 147.5 -74t44.5 -211v-67q-157 -7 -263.5 -46.5t-159 -105t-52.5 -150.5q0 -56 28.5 -98t75.5 -64t102 -22q72 0 129.5 25.5zM521 187q-27 -48 -82 -82t-121 -34q-40 0 -70 18t-45.5 47.5t-15.5 60.5q0 177 334 213v-223z" />
    <glyph glyph-name="atilde" unicode="&#xe3;" horiz-adv-x="821" 
d="M165 1010q9 15 24.5 29t33.5 14q7 0 10 -1l201 -42q12 -3 23 -3q42 0 71.5 31.5t45 68t15.5 42.5l-42 2q-2 -4 -9.5 -17.5t-21.5 -26t-33 -12.5q-4 0 -12 2l-203 42q-8 2 -22 2q-41 0 -69 -31.5t-42 -67t-14 -42.5l33 -10q2 5 11 20zM381.5 0.5q57.5 25.5 94.5 61
t54 68.5h8v-14q0 -55 35.5 -94.5t104.5 -39.5q27 0 48 3.5t51 11.5l20 5l9 60l-58 11q-44 7 -65.5 26t-28 49t-6.5 82v351q0 157 -59 230.5t-188 73.5q-72 0 -146 -29t-122 -76.5t-48 -98.5t33 -70.5t80 -19.5q5 82 16 128t37.5 70t77.5 24q103 0 147.5 -74t44.5 -211v-67
q-157 -7 -263.5 -46.5t-159 -105t-52.5 -150.5q0 -56 28.5 -98t75.5 -64t102 -22q72 0 129.5 25.5zM521 187q-27 -48 -82 -82t-121 -34q-40 0 -70 18t-45.5 47.5t-15.5 60.5q0 177 334 213v-223z" />
    <glyph glyph-name="ae" unicode="&#xe6;" horiz-adv-x="1203" 
d="M382 2.5q63 28.5 106 74t58 95.5q18 -60 69.5 -106.5t115.5 -71t118 -24.5q96 0 176 36t133 98l-19 42q-58 -40 -109.5 -58t-111.5 -18q-95 0 -158.5 48.5t-94.5 129.5t-33 180l483 20q7 26 12.5 66.5t5.5 63.5q0 153 -68.5 230.5t-182.5 77.5q-77 0 -150 -34t-127 -104
q-21 71 -74 105.5t-134 34.5q-70 0 -143.5 -27t-121.5 -72t-48 -96q0 -84 108 -84q9 71 21 113t39.5 66.5t76.5 24.5q102 0 140.5 -67.5t38.5 -206.5v-63q-170 -25 -271.5 -68.5t-146 -103.5t-44.5 -141q0 -59 27.5 -102t73.5 -65t100 -22q72 0 135 28.5zM948 754.5
q44 -54.5 44 -143.5q0 -15 -3 -42t-7 -40l-350 -37q2 97 29.5 169t72.5 110t98 38q72 0 116 -54.5zM508 255q0 -53 -30 -97.5t-76.5 -70t-92.5 -25.5q-60 0 -93.5 38t-33.5 100q0 63 34.5 104.5t105 67.5t186.5 44v-161z" />
    <glyph glyph-name="b" unicode="b" horiz-adv-x="978" 
d="M196 49q113 -73 249 -73q132 0 243 57.5t176.5 168.5t65.5 264q0 125 -39.5 220t-111.5 147.5t-167 52.5q-153 0 -289 -153h-12l14 104v442l-15 16l-258 -20l-9 -54l153 -42v-1130zM438 756.5q56 28.5 107 28.5q127 0 185 -104t58 -275q0 -107 -36.5 -185t-95 -118.5
t-123.5 -40.5q-66 0 -122 17t-86 47v542q57 60 113 88.5z" />
    <glyph glyph-name="c" unicode="c" 
d="M541 -11.5q61 18.5 109 48.5t74 65l-21 46q-97 -79 -219 -79q-90 0 -156 53.5t-101 147t-35 210.5q0 103 28 177.5t76 113.5t108 39q67 0 110 -48t74 -135q95 16 95 99q0 42 -24 79t-75.5 60t-131.5 23q-109 0 -200.5 -59.5t-145.5 -169.5t-54 -254q0 -121 44 -220
t127 -157t195 -58q62 0 123 18.5z" />
    <glyph glyph-name="ccaron" unicode="&#x10d;" 
d="M467 990l56 14l173 182l-41 29l-132 -153h-10l-157 156l-68 -55zM541 -11.5q61 18.5 109 48.5t74 65l-21 46q-97 -79 -219 -79q-90 0 -156 53.5t-101 147t-35 210.5q0 103 28 177.5t76 113.5t108 39q67 0 110 -48t74 -135q95 16 95 99q0 42 -24 79t-75.5 60t-131.5 23
q-109 0 -200.5 -59.5t-145.5 -169.5t-54 -254q0 -121 44 -220t127 -157t195 -58q62 0 123 18.5z" />
    <glyph glyph-name="ccedilla" unicode="&#xe7;" 
d="M630 24.5q-63 -34.5 -138 -47.5l-38 -56q39 -34 64 -70.5t25 -80.5q0 -56 -52.5 -95.5t-147.5 -67.5l-16 51q43 15 73 41.5t30 49.5q0 29 -17 52.5t-37 42.5t-26 25l70 101h-2q-112 0 -195 58t-127 157t-44 220q0 144 54 254t145.5 169.5t200.5 59.5q80 0 131.5 -23
t75.5 -60t24 -79q0 -83 -95 -99q-31 87 -74 135t-110 48q-60 0 -108 -39t-76 -113.5t-28 -177.5q0 -117 35 -210.5t101 -147t156 -53.5q122 0 219 79l21 -46q-31 -43 -94 -77.5z" />
    <glyph glyph-name="d" unicode="d" horiz-adv-x="983" 
d="M538.5 22q72.5 43 120.5 109h10v-7q0 -65 34.5 -105.5t103.5 -40.5q37 0 60.5 4.5t60.5 15.5l9 60l-53 12q-34 7 -53.5 17.5t-32.5 42t-13 92.5v1060l-15 17l-258 -22l-9 -53l152 -43v-209l14 -131h-8q-25 19 -80 33.5t-104 14.5q-107 0 -205.5 -63t-159.5 -176t-61 -257
q0 -131 42 -224.5t114 -141.5t163 -48q96 0 168.5 43zM554.5 777q63.5 -33 104.5 -92v-492q-34 -46 -99.5 -81t-126.5 -35q-116 0 -180 99t-64 276q0 110 29.5 190.5t83.5 124t126 43.5q63 0 126.5 -33z" />
    <glyph glyph-name="eth" unicode="&#xf0;" horiz-adv-x="851" 
d="M620 32.5q85 59.5 133.5 170.5t48.5 262q0 201 -55.5 363t-147.5 284l103 21l9 64l-156 -33q-81 91 -158 139h-92q77 -70 146 -162l-187 -38l-11 -63l232 46q102 -150 133 -265l-7 -1q-22 56 -79.5 92.5t-118.5 36.5q-105 0 -187.5 -63t-128.5 -176t-46 -259
q0 -127 41 -236t126 -175.5t209 -66.5q108 0 193 59.5zM400 875q64 -1 125.5 -57.5t100.5 -159t39 -233.5q0 -172 -52 -273.5t-163 -101.5q-74 0 -132.5 52t-92.5 153.5t-35 243.5q0 165 50 270t155 106h5z" />
    <glyph glyph-name="e" unicode="e" 
d="M587 6q80 36 133 98l-19 44q-56 -38 -107 -54t-114 -16q-94 0 -158 51t-95.5 134t-33.5 182l484 6q7 26 12 66.5t5 64.5q0 152 -67.5 228t-182.5 76q-99 0 -189.5 -55.5t-146.5 -161.5t-56 -249q0 -146 49 -247.5t130.5 -152t179.5 -50.5q96 0 176 36zM510.5 755
q42.5 -54 42.5 -145q0 -60 -7 -80l-351 -23q2 98 29.5 166t72 102t98.5 34q73 0 115.5 -54z" />
    <glyph glyph-name="eacute" unicode="&#xe9;" 
d="M440 980l182 321l-103 39l-128 -330zM587 6q80 36 133 98l-19 44q-56 -38 -107 -54t-114 -16q-94 0 -158 51t-95.5 134t-33.5 182l484 6q7 26 12 66.5t5 64.5q0 152 -67.5 228t-182.5 76q-99 0 -189.5 -55.5t-146.5 -161.5t-56 -249q0 -146 49 -247.5t130.5 -152
t179.5 -50.5q96 0 176 36zM510.5 755q42.5 -54 42.5 -145q0 -60 -7 -80l-351 -23q2 98 29.5 166t72 102t98.5 34q73 0 115.5 -54z" />
    <glyph glyph-name="ecaron" unicode="&#x11b;" 
d="M445 990l56 14l173 182l-41 29l-132 -153h-10l-157 156l-68 -55zM587 6q80 36 133 98l-19 44q-56 -38 -107 -54t-114 -16q-94 0 -158 51t-95.5 134t-33.5 182l484 6q7 26 12 66.5t5 64.5q0 152 -67.5 228t-182.5 76q-99 0 -189.5 -55.5t-146.5 -161.5t-56 -249
q0 -146 49 -247.5t130.5 -152t179.5 -50.5q96 0 176 36zM510.5 755q42.5 -54 42.5 -145q0 -60 -7 -80l-351 -23q2 98 29.5 166t72 102t98.5 34q73 0 115.5 -54z" />
    <glyph glyph-name="ecircumflex" unicode="&#xea;" 
d="M230 980l149 123h9l173 -122l40 37l-178 186l-55 -14l-168 -180zM587 6q80 36 133 98l-19 44q-56 -38 -107 -54t-114 -16q-94 0 -158 51t-95.5 134t-33.5 182l484 6q7 26 12 66.5t5 64.5q0 152 -67.5 228t-182.5 76q-99 0 -189.5 -55.5t-146.5 -161.5t-56 -249
q0 -146 49 -247.5t130.5 -152t179.5 -50.5q96 0 176 36zM510.5 755q42.5 -54 42.5 -145q0 -60 -7 -80l-351 -23q2 98 29.5 166t72 102t98.5 34q73 0 115.5 -54z" />
    <glyph glyph-name="edieresis" unicode="&#xeb;" 
d="M335 1006.5q19 21.5 19 59.5q0 36 -20 57t-52 21q-30 0 -50 -21t-20 -57q0 -37 19.5 -59t51.5 -22q33 0 52 21.5zM603.5 1006.5q19.5 21.5 19.5 59.5q0 36 -20.5 57t-52.5 21q-30 0 -49.5 -21t-19.5 -57q0 -37 19 -59t51 -22q33 0 52.5 21.5zM587 6q80 36 133 98l-19 44
q-56 -38 -107 -54t-114 -16q-94 0 -158 51t-95.5 134t-33.5 182l484 6q7 26 12 66.5t5 64.5q0 152 -67.5 228t-182.5 76q-99 0 -189.5 -55.5t-146.5 -161.5t-56 -249q0 -146 49 -247.5t130.5 -152t179.5 -50.5q96 0 176 36zM510.5 755q42.5 -54 42.5 -145q0 -60 -7 -80
l-351 -23q2 98 29.5 166t72 102t98.5 34q73 0 115.5 -54z" />
    <glyph glyph-name="egrave" unicode="&#xe8;" 
d="M407 980l51 31l-133 335l-104 -37zM587 6q80 36 133 98l-19 44q-56 -38 -107 -54t-114 -16q-94 0 -158 51t-95.5 134t-33.5 182l484 6q7 26 12 66.5t5 64.5q0 152 -67.5 228t-182.5 76q-99 0 -189.5 -55.5t-146.5 -161.5t-56 -249q0 -146 49 -247.5t130.5 -152
t179.5 -50.5q96 0 176 36zM510.5 755q42.5 -54 42.5 -145q0 -60 -7 -80l-351 -23q2 98 29.5 166t72 102t98.5 34q73 0 115.5 -54z" />
    <glyph glyph-name="f" unicode="f" horiz-adv-x="636" 
d="M587 61l-246 30v700h245l13 70h-258l1 120q1 119 42 179t103 60q51 0 96.5 -35.5t80.5 -85.5q27 11 48 36.5t21 56.5q0 51 -49 82t-129 31q-75 0 -150 -48.5t-129 -147.5t-68 -242l-138 -22l-12 -54h149v-704l-152 -36l-12 -51h537z" />
    <glyph glyph-name="g" unicode="g" horiz-adv-x="902" 
d="M601.5 -340.5q102.5 46.5 165 124t62.5 163.5q0 78 -32 118.5t-89 53.5t-147 13h-154q-88 0 -129 19t-41 59q0 23 16 43t50 53q14 -5 40.5 -10t52.5 -5q74 0 147.5 39t120.5 107.5t47 150.5q0 41 -15 90.5t-29 74.5l3 11l141 -41l12 2l35 95l-16 18q-32 -3 -105 -8.5
t-114 -7.5q-89 63 -191 63q-84 0 -157.5 -42t-117.5 -113t-44 -152q0 -63 25.5 -116.5t61 -88.5t64.5 -46v-5q-59 -32 -105.5 -78.5t-46.5 -81.5q0 -41 26.5 -74t69.5 -53v-7q-72 -38 -121 -82t-49 -111q0 -72 45 -122t123 -75t178 -25q115 0 217.5 46.5zM498.5 788
q39.5 -37 61 -97t21.5 -126q0 -101 -44 -153.5t-114 -52.5q-49 0 -91 33t-67 88.5t-25 118.5q0 104 41.5 165t126.5 61q51 0 90.5 -37zM480 17q91 0 138.5 -12.5t65 -38.5t17.5 -73q0 -64 -34.5 -107t-92 -64t-124.5 -21q-276 0 -276 183q0 45 21 74.5t47 45.5t26 13h212z
" />
    <glyph glyph-name="h" unicode="h" horiz-adv-x="1064" 
d="M488 58l-145 29v583q54 59 108 86t121 27q76 0 125 -51t49 -164v-7l-3 -475l-137 -32l-9 -54h411l9 58l-142 28v502q0 163 -60.5 233t-172.5 70q-81 0 -160.5 -44t-143.5 -114h-8l13 106v445l-16 17l-264 -21l-9 -54l157 -42v-1097l-154 -30l-11 -57h432z" />
    <glyph glyph-name="i" unicode="i" horiz-adv-x="556" 
d="M319 1122q23 29 23 77q0 46 -24 74t-62 28t-61 -28t-23 -74q0 -47 22.5 -76.5t61.5 -29.5q40 0 63 29zM488 0l11 57l-160 30v784l-16 16l-259 -22l-8 -51l152 -42v-685l-151 -32l-12 -55h443z" />
    <glyph glyph-name="iacute" unicode="&#xed;" horiz-adv-x="556" 
d="M263 990l182 321l-103 39l-128 -330zM488 0l11 57l-160 30v784l-16 16l-259 -22l-8 -51l152 -42v-685l-151 -32l-12 -55h443z" />
    <glyph glyph-name="icircumflex" unicode="&#xee;" horiz-adv-x="556" 
d="M76 990l149 123h9l173 -122l40 37l-178 186l-55 -14l-168 -180zM488 0l11 57l-160 30v784l-16 16l-259 -22l-8 -51l152 -42v-685l-151 -32l-12 -55h443z" />
    <glyph glyph-name="idieresis" unicode="&#xef;" horiz-adv-x="560" 
d="M168 1009.5q19 21.5 19 59.5q0 36 -20 57t-52 21q-30 0 -50 -21t-20 -57q0 -37 19.5 -59t51.5 -22q33 0 52 21.5zM436.5 1009.5q19.5 21.5 19.5 59.5q0 36 -20.5 57t-52.5 21q-30 0 -49.5 -21t-19.5 -57q0 -37 19 -59t51 -22q33 0 52.5 21.5zM492 0l11 57l-160 30v784
l-16 16l-259 -22l-8 -51l152 -42v-685l-151 -32l-12 -55h443z" />
    <glyph glyph-name="igrave" unicode="&#xec;" horiz-adv-x="556" 
d="M264 990l51 31l-133 335l-104 -37zM488 0l11 57l-160 30v784l-16 16l-259 -22l-8 -51l152 -42v-685l-151 -32l-12 -55h443z" />
    <glyph glyph-name="j" unicode="j" horiz-adv-x="463" 
d="M377 1108.5q26 31.5 26 82.5q0 48 -26.5 78t-67.5 30t-67 -29.5t-26 -78.5q0 -50 25.5 -82t67.5 -32t68 31.5zM123 -356q260 165 260 507v707l-17 17l-258 -20l-9 -54l151 -41v-600q0 -185 -57.5 -293.5t-154.5 -181.5l41 -68z" />
    <glyph glyph-name="k" unicode="k" horiz-adv-x="1020" 
d="M491 0l9 57l-160 30v1192l-16 17l-263 -22l-6 -52l156 -41v-1094l-154 -32l-10 -55h444zM648.5 84.5q51.5 -55.5 97 -80t103.5 -24.5q29 0 60 6.5t51 13.5l9 59l-39 5q-51 6 -88.5 28t-72 59t-98.5 116l-73 88l-100 118l265 309l150 37l10 54h-393l-8 -55l134 -37
l-286 -334v-18l134 -171q93 -118 144.5 -173.5z" />
    <glyph glyph-name="l" unicode="l" horiz-adv-x="544" 
d="M488 0l12 57l-161 30v1197l-17 16l-262 -21l-6 -52l156 -41v-1099l-154 -32l-10 -55h442z" />
    <glyph glyph-name="m" unicode="m" horiz-adv-x="1596" 
d="M483 58l-143 28v580q42 52 104 83.5t129 31.5q80 0 126.5 -57t46.5 -151v-487l-133 -32l-8 -54h398l8 58l-139 28v574q47 50 102 85t122 35q85 0 130.5 -54t45.5 -153v-487l-130 -32l-6 -52h397l13 58l-142 27v510q0 138 -55 213t-181 75q-88 0 -168.5 -47.5
t-132.5 -114.5h-11q-18 81 -76 123.5t-137 42.5q-88 0 -170.5 -47.5t-136.5 -113.5h-8l11 133l-12 14l-269 -30l-6 -52l157 -40v-667l-152 -32l-9 -54h425z" />
    <glyph glyph-name="n" unicode="n" horiz-adv-x="1070" 
d="M485 58l-146 28v584q60 60 114 85.5t124 25.5q75 0 122.5 -52.5t47.5 -160.5v-482l-140 -34l-8 -52h413l7 58l-141 28v514q0 144 -62 217t-169 73q-91 0 -176 -49t-135 -111h-8l10 132l-12 14l-265 -30l-7 -52l155 -39v-669l-153 -34l-8 -52h427z" />
    <glyph glyph-name="ntilde" unicode="&#xf1;" horiz-adv-x="1070" 
d="M336 1010q9 15 24.5 29t33.5 14q7 0 10 -1l201 -42q12 -3 23 -3q42 0 71.5 31.5t45 68t15.5 42.5l-42 2q-2 -4 -9.5 -17.5t-21.5 -26t-33 -12.5q-4 0 -12 2l-203 42q-8 2 -22 2q-41 0 -69 -31.5t-42 -67t-14 -42.5l33 -10q2 5 11 20zM485 58l-146 28v584q60 60 114 85.5
t124 25.5q75 0 122.5 -52.5t47.5 -160.5v-482l-140 -34l-8 -52h413l7 58l-141 28v514q0 144 -62 217t-169 73q-91 0 -176 -49t-135 -111h-8l10 132l-12 14l-265 -30l-7 -52l155 -39v-669l-153 -34l-8 -52h427z" />
    <glyph glyph-name="o" unicode="o" horiz-adv-x="893" 
d="M645 32q92 59 146 165t54 242q0 128 -46 231t-131.5 162t-198.5 59t-209 -58t-152.5 -166.5t-56.5 -255.5q0 -129 48.5 -228.5t138 -154.5t206.5 -55q109 0 201 59zM578 743.5q63 -62.5 94.5 -160.5t31.5 -203q0 -89 -27 -163.5t-78 -118.5t-120 -44q-92 0 -157 59.5
t-97.5 157.5t-32.5 212q0 89 27.5 163t80.5 117t126 43q89 0 152 -62.5z" />
    <glyph glyph-name="oacute" unicode="&#xf3;" horiz-adv-x="893" 
d="M473 990l182 321l-103 39l-128 -330zM645 32q92 59 146 165t54 242q0 128 -46 231t-131.5 162t-198.5 59t-209 -58t-152.5 -166.5t-56.5 -255.5q0 -129 48.5 -228.5t138 -154.5t206.5 -55q109 0 201 59zM578 743.5q63 -62.5 94.5 -160.5t31.5 -203q0 -89 -27 -163.5
t-78 -118.5t-120 -44q-92 0 -157 59.5t-97.5 157.5t-32.5 212q0 89 27.5 163t80.5 117t126 43q89 0 152 -62.5z" />
    <glyph glyph-name="ocircumflex" unicode="&#xf4;" horiz-adv-x="893" 
d="M287 985l149 123h9l173 -122l40 37l-178 186l-55 -14l-168 -180zM645 32q92 59 146 165t54 242q0 128 -46 231t-131.5 162t-198.5 59t-209 -58t-152.5 -166.5t-56.5 -255.5q0 -129 48.5 -228.5t138 -154.5t206.5 -55q109 0 201 59zM578 743.5q63 -62.5 94.5 -160.5
t31.5 -203q0 -89 -27 -163.5t-78 -118.5t-120 -44q-92 0 -157 59.5t-97.5 157.5t-32.5 212q0 89 27.5 163t80.5 117t126 43q89 0 152 -62.5z" />
    <glyph glyph-name="odieresis" unicode="&#xf6;" horiz-adv-x="893" 
d="M372 1006.5q19 21.5 19 59.5q0 36 -20 57t-52 21q-30 0 -50 -21t-20 -57q0 -37 19.5 -59t51.5 -22q33 0 52 21.5zM640.5 1006.5q19.5 21.5 19.5 59.5q0 36 -20.5 57t-52.5 21q-30 0 -49.5 -21t-19.5 -57q0 -37 19 -59t51 -22q33 0 52.5 21.5zM645 32q92 59 146 165
t54 242q0 128 -46 231t-131.5 162t-198.5 59t-209 -58t-152.5 -166.5t-56.5 -255.5q0 -129 48.5 -228.5t138 -154.5t206.5 -55q109 0 201 59zM578 743.5q63 -62.5 94.5 -160.5t31.5 -203q0 -89 -27 -163.5t-78 -118.5t-120 -44q-92 0 -157 59.5t-97.5 157.5t-32.5 212
q0 89 27.5 163t80.5 117t126 43q89 0 152 -62.5z" />
    <glyph glyph-name="ograve" unicode="&#xf2;" horiz-adv-x="893" 
d="M450 990l51 31l-133 335l-104 -37zM645 32q92 59 146 165t54 242q0 128 -46 231t-131.5 162t-198.5 59t-209 -58t-152.5 -166.5t-56.5 -255.5q0 -129 48.5 -228.5t138 -154.5t206.5 -55q109 0 201 59zM578 743.5q63 -62.5 94.5 -160.5t31.5 -203q0 -89 -27 -163.5
t-78 -118.5t-120 -44q-92 0 -157 59.5t-97.5 157.5t-32.5 212q0 89 27.5 163t80.5 117t126 43q89 0 152 -62.5z" />
    <glyph glyph-name="oslash" unicode="&#xf8;" horiz-adv-x="946" 
d="M790 741q39 -60 59.5 -135.5t20.5 -160.5q0 -136 -54 -244t-146 -168t-201 -60q-145 0 -247 85l-42 -52l-137 -6l114 129q-40 57 -61 130t-21 158q0 148 57 258.5t153 169t209 58.5q136 0 232 -87l44 57l135 7zM325.5 774q-52.5 -45 -80 -120t-27.5 -165q0 -149 50 -259
l382 465q-36 58 -86 91t-113 33q-73 0 -125.5 -45zM624 99.5q51 45.5 77.5 121.5t26.5 165q0 65 -12.5 130.5t-36.5 121.5l-383 -462q38 -58 90 -90t118 -32q69 0 120 45.5z" />
    <glyph glyph-name="otilde" unicode="&#xf5;" horiz-adv-x="893" 
d="M255 1010q9 15 24.5 29t33.5 14q7 0 10 -1l201 -42q12 -3 23 -3q42 0 71.5 31.5t45 68t15.5 42.5l-42 2q-2 -4 -9.5 -17.5t-21.5 -26t-33 -12.5q-4 0 -12 2l-203 42q-8 2 -22 2q-41 0 -69 -31.5t-42 -67t-14 -42.5l33 -10q2 5 11 20zM645 32q92 59 146 165t54 242
q0 128 -46 231t-131.5 162t-198.5 59t-209 -58t-152.5 -166.5t-56.5 -255.5q0 -129 48.5 -228.5t138 -154.5t206.5 -55q109 0 201 59zM578 743.5q63 -62.5 94.5 -160.5t31.5 -203q0 -89 -27 -163.5t-78 -118.5t-120 -44q-92 0 -157 59.5t-97.5 157.5t-32.5 212
q0 89 27.5 163t80.5 117t126 43q89 0 152 -62.5z" />
    <glyph glyph-name="oe" unicode="&#x153;" horiz-adv-x="1416" 
d="M760 161q46 -88 121.5 -139.5t175.5 -51.5q97 0 177.5 36t133.5 98l-22 44q-58 -39 -108.5 -57t-111.5 -18q-93 0 -157.5 50.5t-96.5 134.5t-32 184l483 5q6 25 11.5 71.5t5.5 71.5q0 152 -67 224t-183 72q-100 0 -182.5 -53t-129.5 -132q-37 88 -124.5 138.5
t-187.5 50.5q-105 0 -195.5 -56t-145.5 -163.5t-55 -253.5q0 -130 46 -230.5t130.5 -157t196.5 -56.5q204 0 317 188zM579.5 746q59.5 -61 89 -158t29.5 -202q0 -87 -27 -162.5t-75.5 -121t-109.5 -45.5q-85 0 -146.5 60.5t-94 159.5t-32.5 212q0 140 57 229t165 89
q85 0 144.5 -61zM1157 758q43 -47 43 -135q0 -19 -2.5 -51.5t-5.5 -44.5l-351 -22q2 96 32 164t75 102t93 34q73 0 116 -47z" />
    <glyph glyph-name="p" unicode="p" horiz-adv-x="957" 
d="M484 -312l-156 26v948q51 53 101.5 86t112.5 33q113 0 168.5 -98t55.5 -279q0 -105 -31 -182t-86 -117.5t-125 -40.5q-59 0 -93 5t-68 18l5 -96q61 -11 102 -11q125 0 225 61t156.5 171t56.5 250q0 145 -38.5 239.5t-106 139.5t-155.5 45q-89 0 -160.5 -49t-119.5 -115
h-7l9 137l-13 14l-265 -28l-8 -53l154 -38v-1039l-152 -30l-6 -58h434z" />
    <glyph glyph-name="thorn" unicode="&#xfe;" horiz-adv-x="955" 
d="M484 -309l-156 26v961q49 51 99 82.5t112 31.5q112 0 167.5 -100t55.5 -281q0 -100 -29 -178t-87.5 -122.5t-142.5 -44.5q-41 0 -70.5 3.5t-57.5 12.5l4 -86q48 -13 106 -13q120 0 216.5 62.5t151 173t54.5 249.5q0 137 -39 234t-107.5 146.5t-155.5 49.5
q-149 0 -277 -158h-9l12 109v435l-16 16l-261 -20l-8 -54l150 -42l3 -1466l-152 -29l-6 -59h433z" />
    <glyph glyph-name="q" unicode="q" horiz-adv-x="976" 
d="M501.5 3.5q68.5 24.5 113.5 67.5l-4 56q-34 -23 -88.5 -36t-93.5 -13q-111 0 -174.5 98.5t-63.5 291.5q0 99 32 177t86 121t119 43q73 0 128 -35t86 -83v-971l-151 -28l-8 -59h444l9 61l-161 26v1158h-23l-94 -33q-30 16 -79 30t-102 14q-105 0 -203.5 -64.5t-160 -175.5
t-61.5 -242q0 -145 41.5 -241t113 -141.5t162.5 -45.5q64 0 132.5 24.5z" />
    <glyph glyph-name="r" unicode="r" horiz-adv-x="733" 
d="M571 61l-230 27v376q11 81 37 147.5t62.5 105.5t76.5 39q56 0 107 -52q29 20 45.5 45t16.5 50q0 40 -30 68t-81 28q-48 0 -94.5 -34t-84 -97.5t-61.5 -148.5h-14l14 245l-16 17l-259 -29l-9 -52l160 -39v-671l-155 -34l-8 -52h515z" />
    <glyph glyph-name="rcaron" unicode="&#x159;" horiz-adv-x="733" 
d="M403 989l56 14l173 182l-41 29l-132 -153h-10l-157 156l-68 -55zM571 61l-230 27v376q11 81 37 147.5t62.5 105.5t76.5 39q56 0 107 -52q29 20 45.5 45t16.5 50q0 40 -30 68t-81 28q-48 0 -94.5 -34t-84 -97.5t-61.5 -148.5h-14l14 245l-16 17l-259 -29l-9 -52l160 -39
v-671l-155 -34l-8 -52h515z" />
    <glyph glyph-name="s" unicode="s" horiz-adv-x="667" 
d="M469 -3.5q69 31.5 111 87.5t42 128q0 61 -32.5 109t-79 83t-122.5 81q-67 40 -106.5 68.5t-66 65.5t-26.5 81q0 56 36 90.5t97 34.5q52 0 91.5 -41.5t63.5 -147.5l8 -39q48 4 76.5 32.5t28.5 83.5q0 50 -30 90t-82.5 63t-117.5 23q-90 0 -152.5 -37t-93.5 -95t-31 -120
q0 -66 34 -117.5t81.5 -87.5t125.5 -83q62 -38 97.5 -63t59 -57t23.5 -69q0 -52 -42 -86t-107 -34q-80 0 -129 53t-74 171q-46 -5 -76 -35t-30 -75q0 -54 36 -97t99 -67.5t142 -24.5q77 0 146 31.5z" />
    <glyph glyph-name="scaron" unicode="&#x161;" horiz-adv-x="667" 
d="M360 990l56 14l173 182l-41 29l-132 -153h-10l-157 156l-68 -55zM469 -3.5q69 31.5 111 87.5t42 128q0 61 -32.5 109t-79 83t-122.5 81q-67 40 -106.5 68.5t-66 65.5t-26.5 81q0 56 36 90.5t97 34.5q52 0 91.5 -41.5t63.5 -147.5l8 -39q48 4 76.5 32.5t28.5 83.5
q0 50 -30 90t-82.5 63t-117.5 23q-90 0 -152.5 -37t-93.5 -95t-31 -120q0 -66 34 -117.5t81.5 -87.5t125.5 -83q62 -38 97.5 -63t59 -57t23.5 -69q0 -52 -42 -86t-107 -34q-80 0 -129 53t-74 171q-46 -5 -76 -35t-30 -75q0 -54 36 -97t99 -67.5t142 -24.5q77 0 146 31.5z
" />
    <glyph glyph-name="germandbls" unicode="&#xdf;" horiz-adv-x="1101" 
d="M342 945q0 133 44.5 203.5t128.5 70.5q54 0 101 -27.5t74.5 -75t27.5 -104.5q0 -47 -22 -84t-67 -89q-35 -40 -55.5 -68.5t-35 -66.5t-14.5 -84q0 -67 35 -119t84 -88.5t127 -82.5q58 -34 92 -57.5t56 -51.5t22 -60q0 -55 -41.5 -87.5t-107.5 -32.5q-163 0 -204 228
q-45 -5 -75.5 -33t-30.5 -78q0 -54 36.5 -97.5t100 -68.5t142.5 -25q77 0 145.5 31.5t110 87.5t41.5 128q0 61 -32.5 108.5t-79.5 80.5t-123 77q-66 38 -104.5 65t-64.5 61t-26 76q0 32 22 63t67 77q41 42 66.5 73.5t43.5 72t18 86.5q0 74 -35.5 131t-97 88t-136.5 31
q-108 0 -188.5 -57.5t-125.5 -155t-52 -214.5l-138 -24l-11 -49h147v-716l-151 -36l-12 -52h298v945z" />
    <glyph glyph-name="t" unicode="t" horiz-adv-x="650" 
d="M163 251q-1 -144 47.5 -209.5t143.5 -65.5q74 0 141.5 38.5t113.5 104.5l-19 44q0 -1 -26.5 -18.5t-61 -32t-67.5 -14.5q-49 0 -79 18.5t-44.5 64.5t-14.5 129l3 458h276l8 72h-283v228h-47q-39 -97 -90.5 -160.5t-123.5 -96.5v-40h127z" />
    <glyph glyph-name="u" unicode="u" horiz-adv-x="1026" 
d="M186 275q0 -299 228 -299q82 0 154.5 40t123.5 116h12v-12q0 -61 36 -101t101 -40q35 0 63 5t63 15l7 59l-54 12q-57 11 -78 44.5t-21 108.5v634l-14 17l-266 -24l-6 -60l157 -36v-567q-39 -43 -91.5 -72t-114.5 -29q-172 0 -172 231v540l-16 17l-249 -21l-8 -53l145 -43
v-482z" />
    <glyph glyph-name="uacute" unicode="&#xfa;" horiz-adv-x="1026" 
d="M483 990l182 321l-103 39l-128 -330zM186 275q0 -299 228 -299q82 0 154.5 40t123.5 116h12v-12q0 -61 36 -101t101 -40q35 0 63 5t63 15l7 59l-54 12q-57 11 -78 44.5t-21 108.5v634l-14 17l-266 -24l-6 -60l157 -36v-567q-39 -43 -91.5 -72t-114.5 -29q-172 0 -172 231
v540l-16 17l-249 -21l-8 -53l145 -43v-482z" />
    <glyph glyph-name="ucircumflex" unicode="&#xfb;" horiz-adv-x="1026" 
d="M304 990l149 123h9l173 -122l40 37l-178 186l-55 -14l-168 -180zM186 275q0 -299 228 -299q82 0 154.5 40t123.5 116h12v-12q0 -61 36 -101t101 -40q35 0 63 5t63 15l7 59l-54 12q-57 11 -78 44.5t-21 108.5v634l-14 17l-266 -24l-6 -60l157 -36v-567q-39 -43 -91.5 -72
t-114.5 -29q-172 0 -172 231v540l-16 17l-249 -21l-8 -53l145 -43v-482z" />
    <glyph glyph-name="udieresis" unicode="&#xfc;" horiz-adv-x="1026" 
d="M420 1012.5q19 21.5 19 59.5q0 36 -20 57t-52 21q-30 0 -50 -21t-20 -57q0 -37 19.5 -59t51.5 -22q33 0 52 21.5zM688.5 1012.5q19.5 21.5 19.5 59.5q0 36 -20.5 57t-52.5 21q-30 0 -49.5 -21t-19.5 -57q0 -37 19 -59t51 -22q33 0 52.5 21.5zM186 275q0 -299 228 -299
q82 0 154.5 40t123.5 116h12v-12q0 -61 36 -101t101 -40q35 0 63 5t63 15l7 59l-54 12q-57 11 -78 44.5t-21 108.5v634l-14 17l-266 -24l-6 -60l157 -36v-567q-39 -43 -91.5 -72t-114.5 -29q-172 0 -172 231v540l-16 17l-249 -21l-8 -53l145 -43v-482z" />
    <glyph glyph-name="ugrave" unicode="&#xf9;" horiz-adv-x="1026" 
d="M454 980l51 31l-133 335l-104 -37zM186 275q0 -299 228 -299q82 0 154.5 40t123.5 116h12v-12q0 -61 36 -101t101 -40q35 0 63 5t63 15l7 59l-54 12q-57 11 -78 44.5t-21 108.5v634l-14 17l-266 -24l-6 -60l157 -36v-567q-39 -43 -91.5 -72t-114.5 -29q-172 0 -172 231
v540l-16 17l-249 -21l-8 -53l145 -43v-482z" />
    <glyph glyph-name="v" unicode="v" horiz-adv-x="978" 
d="M164 769l282 -795l90 15l281 782l109 37l9 53h-359l-11 -55l160 -37l-212 -608l-209 610l146 37l5 53h-406l-7 -55z" />
    <glyph glyph-name="w" unicode="w" horiz-adv-x="1311" 
d="M158 775l237 -800l87 16l172 639l191 -655l85 16l222 786l108 32l8 54h-356l-7 -55l151 -33l-161 -582l-32 152l-138 472l-114 -19l-163 -595l-37 157l-121 417l135 32l7 54h-383l-7 -55z" />
    <glyph glyph-name="x" unicode="x" horiz-adv-x="1011" 
d="M407 0l9 54l-142 32l212 276l196 -278l-127 -33l-12 -51h405l8 52l-114 32l-262 375l251 324l104 33l11 54h-349l-12 -55l138 -34l-197 -254l-184 258l115 32l10 53h-394l-7 -55l118 -32l246 -352l-266 -345l-108 -34l-9 -52h360z" />
    <glyph glyph-name="y" unicode="y" horiz-adv-x="992" 
d="M317.5 -346.5q55.5 32.5 101 102.5t93.5 191l330 825l101 36l5 53h-317l-11 -55l130 -35l-230 -576l-215 580l127 33l6 53h-383l-9 -56l124 -33l278 -760l-23 -61q-71 -180 -182 -180q-50 0 -86 12.5t-72 40.5q-45 -39 -45 -98q0 -29 19 -53t52 -38t74 -14
q77 0 132.5 32.5z" />
    <glyph glyph-name="yacute" unicode="&#xfd;" horiz-adv-x="992" 
d="M532 990l182 321l-103 39l-128 -330zM317.5 -346.5q55.5 32.5 101 102.5t93.5 191l330 825l101 36l5 53h-317l-11 -55l130 -35l-230 -576l-215 580l127 33l6 53h-383l-9 -56l124 -33l278 -760l-23 -61q-71 -180 -182 -180q-50 0 -86 12.5t-72 40.5q-45 -39 -45 -98
q0 -29 19 -53t52 -38t74 -14q77 0 132.5 32.5z" />
    <glyph glyph-name="ydieresis" unicode="&#xff;" horiz-adv-x="992" 
d="M446 1010.5q19 21.5 19 59.5q0 36 -20 57t-52 21q-30 0 -50 -21t-20 -57q0 -37 19.5 -59t51.5 -22q33 0 52 21.5zM714.5 1010.5q19.5 21.5 19.5 59.5q0 36 -20.5 57t-52.5 21q-30 0 -49.5 -21t-19.5 -57q0 -37 19 -59t51 -22q33 0 52.5 21.5zM317.5 -346.5
q55.5 32.5 101 102.5t93.5 191l330 825l101 36l5 53h-317l-11 -55l130 -35l-230 -576l-215 580l127 33l6 53h-383l-9 -56l124 -33l278 -760l-23 -61q-71 -180 -182 -180q-50 0 -86 12.5t-72 40.5q-45 -39 -45 -98q0 -29 19 -53t52 -38t74 -14q77 0 132.5 32.5z" />
    <glyph glyph-name="z" unicode="z" horiz-adv-x="796" 
d="M60 0h660l30 269l-51 6l-75 -197h-413l523 731l-2 52h-647l-10 -269l56 -9l56 205h385l-516 -725z" />
    <glyph glyph-name="zcaron" unicode="&#x17e;" horiz-adv-x="796" 
d="M424 990l56 14l173 182l-41 29l-132 -153h-10l-157 156l-68 -55zM60 0h660l30 269l-51 6l-75 -197h-413l523 731l-2 52h-647l-10 -269l56 -9l56 205h385l-516 -725z" />
    <glyph glyph-name="germandbls.sc.alt" horiz-adv-x="1047" 
d="M304 563q0 315 247 315q157 0 266 -52v-4l-281 -322l22 -45l56 -30q93 -50 149.5 -85.5t95.5 -77t39 -85.5q0 -57 -48.5 -89t-125.5 -32q-121 0 -177 70l-18 165l-75 11l-31 -248q39 -36 107.5 -57.5t160.5 -21.5q96 0 174.5 32t123.5 88.5t45 127.5q0 66 -38 117.5
t-93.5 89t-149.5 88.5l-44 24l256 299l-1 58q-50 16 -153 29.5t-204 13.5q-213 0 -331 -98.5t-118 -303.5v-449l-137 -33l-7 -58h290v563z" />
    <glyph glyph-name="a.sc" horiz-adv-x="1031" 
d="M887 95l104 -31l-8 -63h-397l10 58l134 38l-74 211h-312l-76 -213l150 -32l-10 -63h-369l7 58l116 43l320 818l102 22zM372 387h256l-127 360z" />
    <glyph glyph-name="aacute.sc" horiz-adv-x="1031" 
d="M727 1322l-183 -321l-48 29l128 331zM887 95l104 -31l-8 -63h-397l10 58l134 38l-74 211h-312l-76 -213l150 -32l-10 -63h-369l7 58l116 43l320 818l102 22zM372 387h256l-127 360z" />
    <glyph glyph-name="acircumflex.sc" horiz-adv-x="1031" 
d="M522 1128l-148 -123l-30 30l168 180l54 14l179 -186l-41 -37l-172 122h-10zM886 95l105 -31l-9 -63h-397l11 58l133 38l-74 211h-312l-76 -213l150 -32l-10 -63h-368l7 58l115 43l321 818l102 22zM372 387h255l-126 360z" />
    <glyph glyph-name="adieresis.sc" horiz-adv-x="1031" 
d="M347.5 1027q-19.5 22 -19.5 59q0 36 19.5 57t50.5 21t51.5 -21t20.5 -57q0 -38 -19 -59.5t-52 -21.5q-32 0 -51.5 22zM615 1027q-19 22 -19 59q0 36 19.5 57t50.5 21t51.5 -21t20.5 -57q0 -38 -19.5 -59.5t-52.5 -21.5q-32 0 -51 22zM886 95l105 -31l-9 -63h-397l11 58
l133 38l-74 211h-312l-76 -213l150 -32l-10 -63h-368l7 58l115 43l321 818l102 22zM372 387h255l-126 360z" />
    <glyph glyph-name="agrave.sc" horiz-adv-x="1031" 
d="M572 1029l-51 -31l-186 328l104 38zM886 95l105 -31l-9 -63h-397l11 58l133 38l-74 211h-312l-76 -213l150 -32l-10 -63h-368l7 58l115 43l321 818l102 22zM372 387h255l-126 360z" />
    <glyph glyph-name="aring.sc" horiz-adv-x="1031" 
d="M412.5 1035q-42.5 45 -42.5 121q0 45 22.5 85t61 63.5t84.5 23.5q71 0 114 -45.5t43 -117.5q0 -45 -21.5 -85.5t-60.5 -65t-88 -24.5q-70 0 -112.5 45zM460.5 1249q-22.5 -34 -22.5 -82q0 -52 26 -92t72 -40q43 0 66.5 30.5t23.5 86.5q0 52 -27.5 91.5t-72.5 39.5
q-43 0 -65.5 -34zM887 95l104 -31l-8 -63h-397l10 58l134 38l-74 211h-312l-76 -213l150 -32l-10 -63h-369l7 58l116 43l320 818l102 22zM372 387h256l-127 360z" />
    <glyph glyph-name="atilde.sc" horiz-adv-x="1031" 
d="M427 1103q-50 0 -72 -63l-36 8q11 57 49 99.5t87 42.5q14 0 32 -5l149 -35q21 -9 41 -9q49 0 70 60l41 -5q-11 -54 -48 -99t-88 -45q-17 0 -36 6l-149 36q-21 9 -40 9zM887 95l104 -31l-8 -63h-397l10 58l134 38l-74 211h-312l-76 -213l150 -32l-10 -63h-369l7 58l116 43
l320 818l102 22zM372 387h256l-127 360z" />
    <glyph glyph-name="ae.sc" horiz-adv-x="1583" 
d="M446 2l11 64l-151 30l154 237h276v-236l-151 -39l-7 -58h778l20 263l-68 12l-60 -200h-365v342h202l9 -126l71 11l33 284l-76 -11l-25 -85h-214v359h335l20 -190l72 -9l26 271h-836l-8 -58l193 -32l-491 -729l-125 -42l-6 -58h383zM737 759l-2 -348h-224z" />
    <glyph glyph-name="b.sc" horiz-adv-x="890" 
d="M746.5 78q106.5 78 106.5 208q0 89 -65 147.5t-181 67.5v6q82 30 123.5 88.5t41.5 131.5q0 62 -36.5 112t-111 79.5t-183.5 29.5q-88 0 -172.5 -10t-187.5 -27l-24 -4l-10 -57l142 -23v-730l-138 -39l-10 -58h373q226 0 332.5 78zM383 882q123 0 185.5 -49t62.5 -132
q0 -79 -24 -119t-77 -69h-195v365q14 4 48 4zM486 447q74 0 122.5 -26t71 -66.5t22.5 -86.5q0 -94 -58 -143.5t-189 -49.5h-120v372h151z" />
    <glyph glyph-name="c.sc" horiz-adv-x="834" 
d="M659 15q89 40 140 94l-29 51q-55 -38 -118.5 -61.5t-146.5 -23.5q-88 0 -159 47.5t-112 139t-41 218.5q0 123 35 209.5t95.5 131t138.5 44.5q75 0 116 -20t65 -55l16 -165l72 -10l26 262q-94 64 -253 64q-151 0 -255.5 -74.5t-155 -191t-50.5 -242.5q0 -140 53.5 -244
t146 -159t205.5 -55q122 0 211 40z" />
    <glyph glyph-name="ccedilla.sc" horiz-adv-x="834" 
d="M689.5 29.5q-66.5 -35.5 -156.5 -48.5l-40 -59q39 -34 64 -70.5t25 -80.5q0 -56 -52.5 -94.5t-147.5 -67.5l-15 50q42 15 72 42t30 50q0 29 -17 52t-36.5 42t-26.5 25l73 105h-15q-113 0 -205 55t-145.5 159t-53.5 244q0 126 50.5 242.5t154.5 191t256 74.5
q158 0 253 -64l-26 -262l-73 10l-16 165q-24 34 -65 54.5t-115 20.5q-78 0 -138.5 -44.5t-95.5 -131t-35 -209.5q0 -127 41 -218.5t111.5 -139t159.5 -47.5q83 0 147 23.5t118 61.5l29 -51q-43 -44 -109.5 -79.5z" />
    <glyph glyph-name="d.sc" horiz-adv-x="999" 
d="M681.5 61.5q132.5 61.5 204.5 174.5t72 262q0 192 -117 317t-389 125q-84 0 -177.5 -11t-220.5 -33l-9 -56l147 -26v-713l-141 -43l-11 -58h332q177 0 309.5 61.5zM415 861q190 0 289.5 -102t99.5 -297q0 -180 -100.5 -281.5t-293.5 -101.5h-72v778q25 4 77 4z" />
    <glyph glyph-name="eth.sc" horiz-adv-x="1150" 
d="M862 815q117 -125 117 -317q0 -149 -72 -262t-204.5 -174.5t-309.5 -61.5h-332l11 58l140 43v309l-146 -11l10 77l136 10v328l-147 26l10 56q126 22 220 33t178 11q272 0 389 -125zM724.5 180.5q100.5 101.5 100.5 281.5q0 194 -99.5 296.5t-289.5 102.5q-51 0 -78 -4
v-361l209 15l-10 -76l-199 -15v-341h72q194 0 294.5 101.5z" />
    <glyph glyph-name="e.sc" horiz-adv-x="894" 
d="M194 827v-730l-138 -39l-7 -58h788l20 263l-67 12l-61 -200h-386v342h218l9 -126l71 11l34 284l-76 -11l-25 -85h-231v359h356l20 -190l73 -9l26 271h-765l-9 -59z" />
    <glyph glyph-name="eacute.sc" horiz-adv-x="895" 
d="M463 999l183 321l-104 39l-127 -331zM195 827v-730l-139 -39l-7 -58h789l20 263l-68 12l-60 -200h-386v342h218l9 -126l71 11l33 284l-76 -11l-25 -85h-230v359h356l20 -190l72 -9l26 271h-765l-9 -59z" />
    <glyph glyph-name="ecircumflex.sc" horiz-adv-x="895" 
d="M305 1004l148 123h10l172 -122l40 37l-178 186l-55 -14l-167 -180zM195 827v-730l-139 -39l-7 -58h789l20 263l-68 12l-60 -200h-386v342h218l9 -126l71 11l33 284l-76 -11l-25 -85h-230v359h356l20 -190l72 -9l26 271h-765l-9 -59z" />
    <glyph glyph-name="edieresis.sc" horiz-adv-x="895" 
d="M382 1024.5q19 21.5 19 59.5q0 36 -20.5 57t-51.5 21t-50.5 -21t-19.5 -57q0 -37 19.5 -59t51.5 -22q33 0 52 21.5zM649.5 1024.5q19.5 21.5 19.5 59.5q0 36 -20.5 57t-51.5 21t-50.5 -21t-19.5 -57q0 -37 19 -59t51 -22q33 0 52.5 21.5zM195 827v-730l-139 -39l-7 -58
h789l20 263l-68 12l-60 -200h-386v342h218l9 -126l71 11l33 284l-76 -11l-25 -85h-230v359h356l20 -190l72 -9l26 271h-765l-9 -59z" />
    <glyph glyph-name="egrave.sc" horiz-adv-x="895" 
d="M464 995l51 31l-133 335l-104 -38zM195 827v-730l-139 -39l-7 -58h789l20 263l-68 12l-60 -200h-386v342h218l9 -126l71 11l33 284l-76 -11l-25 -85h-230v359h356l20 -190l72 -9l26 271h-765l-9 -59z" />
    <glyph glyph-name="f.sc" horiz-adv-x="868" 
d="M193 829v-732l-138 -39l-6 -58h476l12 68l-197 28l2 292h236l12 -125l72 11l29 288l-75 -10l-26 -92h-248v391h359l16 -189l76 -11l31 271h-771l-9 -59z" />
    <glyph glyph-name="g.sc" horiz-adv-x="1005" 
d="M689 -10q98 16 171 44v273l98 27l11 61h-443l-9 -61l198 -31v-203q-33 -23 -79.5 -33t-117.5 -10q-106 0 -177.5 55t-106 149.5t-34.5 213.5q0 121 39.5 208.5t108.5 134t156 46.5q81 0 142.5 -23t91.5 -54l18 -171l76 -10l27 275q-55 30 -135 45t-172 15
q-142 0 -258.5 -68t-183.5 -187t-67 -265q0 -134 52 -235t149.5 -156.5t230.5 -55.5q116 0 214 16z" />
    <glyph glyph-name="h.sc" horiz-adv-x="1150" 
d="M194 831v-734l-137 -39l-6 -58h436l12 63l-155 27v326h458v-319l-136 -39l-9 -58h438l9 63l-153 27v744l137 31l10 57h-440l-9 -57l153 -34v-334h-458v337l139 31l7 57h-440l-7 -57z" />
    <glyph glyph-name="i.sc" horiz-adv-x="543" 
d="M190 831v-734l-133 -39l-6 -58h437l10 63l-157 27v744l142 31l8 57h-440l-9 -57z" />
    <glyph glyph-name="iacute.sc" horiz-adv-x="543" 
d="M255 1002l183 321l-104 39l-127 -331zM190 831v-734l-133 -39l-6 -58h437l10 63l-157 27v744l142 31l8 57h-440l-9 -57z" />
    <glyph glyph-name="icircumflex.sc" horiz-adv-x="543" 
d="M101 1002l148 124h10l172 -123l41 37l-179 186l-55 -14l-167 -180zM190 831v-734l-133 -39l-6 -58h437l10 63l-157 27v744l142 31l8 57h-440l-9 -57z" />
    <glyph glyph-name="idieresis.sc" horiz-adv-x="543" 
d="M190 1040.5q19 21.5 19 59.5q0 36 -20 57t-52 21q-30 0 -50 -21t-20 -57q0 -37 19.5 -59t51.5 -22q33 0 52 21.5zM458.5 1040.5q19.5 21.5 19.5 59.5q0 36 -20.5 57t-52.5 21q-30 0 -49.5 -21t-19.5 -57q0 -37 19 -59t51 -22q33 0 52.5 21.5zM190 831v-734l-133 -39
l-6 -58h437l10 63l-157 27v744l142 31l8 57h-440l-9 -57z" />
    <glyph glyph-name="igrave.sc" horiz-adv-x="543" 
d="M271 994l51 31l-132 335l-105 -38zM190 831v-734l-133 -39l-6 -58h437l10 63l-157 27v744l142 31l8 57h-440l-9 -57z" />
    <glyph glyph-name="j.sc" horiz-adv-x="573" 
d="M246 -169.5q73 71.5 105.5 175t33.5 278.5l2 550l139 31l8 57h-442l-8 -57l151 -34v-655q0 -94 -27 -168t-79.5 -137t-137.5 -130l38 -67q144 85 217 156.5z" />
    <glyph glyph-name="k.sc" horiz-adv-x="1066" 
d="M193 827v-726l-134 -43l-8 -58h453l7 63l-167 32v735l138 35l7 57h-437l-10 -57zM525 244q84 -125 173 -195t203 -70q60 0 111 21l6 56l-38 9q-81 19 -163.5 86t-181.5 194l-108 138l331 349l131 31l8 59h-375l-6 -57l125 -32l-212 -223q-55 -61 -141 -147l1 -18z" />
    <glyph glyph-name="l.sc" horiz-adv-x="898" 
d="M195 826v-729l-137 -39l-7 -58h789l20 281l-73 11l-81 -217h-360v755l148 34l7 58h-447l-9 -58z" />
    <glyph glyph-name="m.sc" horiz-adv-x="1386" 
d="M425 0l9 59l-152 29l36 654l292 -696l89 14l319 719l28 -686l-144 -39l-8 -54h444l6 60l-151 27l-31 745l140 34l7 56h-332l-70 -153l-218 -494l-198 456l-82 191h-323l-9 -56l154 -37l-49 -736l-137 -39l-8 -54h388z" />
    <glyph glyph-name="n.sc" horiz-adv-x="1101" 
d="M196 824v-727l-137 -39l-7 -58h388l11 63l-154 27v625l523 -734l104 21v832l151 31l11 57h-403l-9 -57l152 -34v-600l-493 691h-281l-10 -56z" />
    <glyph glyph-name="ntilde.sc" horiz-adv-x="1101" 
d="M409 1086q19 0 40 -9l149 -36q20 -6 36 -6q51 0 88 45t48 99l-41 5q-21 -60 -70 -60q-20 0 -41 9l-149 35q-18 5 -32 5q-49 0 -87 -42.5t-49 -99.5l35 -8q22 63 73 63zM196 824v-727l-137 -39l-7 -58h388l11 63l-154 27v625l523 -734l104 21v832l151 31l11 57h-403
l-9 -57l152 -34v-600l-493 691h-281l-10 -56z" />
    <glyph glyph-name="o.sc" horiz-adv-x="1001" 
d="M749.5 42.5q111.5 69.5 168 182.5t56.5 240q0 133 -51.5 241.5t-151 171.5t-235.5 63q-149 0 -261 -63.5t-172.5 -176.5t-60.5 -257q0 -130 55 -237.5t155 -170.5t230 -63q156 0 267.5 69.5zM669 804q72 -61 109 -162.5t37 -220.5q0 -101 -30.5 -183t-97.5 -131t-171 -49
q-95 0 -166.5 58t-110 158t-38.5 223q0 166 71.5 267t225.5 101q99 0 171 -61z" />
    <glyph glyph-name="oacute.sc" horiz-adv-x="1001" 
d="M510 1000l183 321l-103 39l-128 -331zM749.5 42.5q111.5 69.5 168 182.5t56.5 240q0 133 -51.5 241.5t-151 171.5t-235.5 63q-149 0 -261 -63.5t-172.5 -176.5t-60.5 -257q0 -130 55 -237.5t155 -170.5t230 -63q156 0 267.5 69.5zM669 804q72 -61 109 -162.5t37 -220.5
q0 -101 -30.5 -183t-97.5 -131t-171 -49q-95 0 -166.5 58t-110 158t-38.5 223q0 166 71.5 267t225.5 101q99 0 171 -61z" />
    <glyph glyph-name="ocircumflex.sc" horiz-adv-x="1001" 
d="M348 1013l148 124h10l172 -123l41 37l-179 186l-54 -14l-168 -180zM749.5 42.5q111.5 69.5 168 182.5t56.5 240q0 133 -51.5 241.5t-151 171.5t-235.5 63q-149 0 -261 -63.5t-172.5 -176.5t-60.5 -257q0 -130 55 -237.5t155 -170.5t230 -63q156 0 267.5 69.5zM669 804
q72 -61 109 -162.5t37 -220.5q0 -101 -30.5 -183t-97.5 -131t-171 -49q-95 0 -166.5 58t-110 158t-38.5 223q0 166 71.5 267t225.5 101q99 0 171 -61z" />
    <glyph glyph-name="odieresis.sc" horiz-adv-x="1001" 
d="M433 1045.5q19 21.5 19 59.5q0 36 -20 57t-52 21q-30 0 -50 -21t-20 -57q0 -37 19.5 -59t51.5 -22q33 0 52 21.5zM701.5 1045.5q19.5 21.5 19.5 59.5q0 36 -20.5 57t-52.5 21q-30 0 -49.5 -21t-19.5 -57q0 -37 19 -59t51 -22q33 0 52.5 21.5zM748.5 42.5
q111.5 69.5 168.5 182.5t57 240q0 133 -52 241.5t-151 171.5t-235 63q-150 0 -262 -63.5t-172 -176.5t-60 -257q0 -130 55 -237.5t155 -170.5t229 -63q156 0 267.5 69.5zM668.5 804q71.5 -61 109 -162.5t37.5 -220.5q0 -101 -31 -183t-98 -131t-171 -49q-95 0 -166.5 58
t-110 158t-38.5 223q0 166 72 267t226 101q99 0 170.5 -61z" />
    <glyph glyph-name="ograve.sc" horiz-adv-x="1001" 
d="M509 994l51 31l-133 335l-104 -38zM749.5 42.5q111.5 69.5 168 182.5t56.5 240q0 133 -51.5 241.5t-151 171.5t-235.5 63q-149 0 -261 -63.5t-172.5 -176.5t-60.5 -257q0 -130 55 -237.5t155 -170.5t230 -63q156 0 267.5 69.5zM669 804q72 -61 109 -162.5t37 -220.5
q0 -101 -30.5 -183t-97.5 -131t-171 -49q-95 0 -166.5 58t-110 158t-38.5 223q0 166 71.5 267t225.5 101q99 0 171 -61z" />
    <glyph glyph-name="oslash.sc" horiz-adv-x="1056" 
d="M899 784q49 -63 74.5 -144.5t25.5 -174.5q0 -127 -56.5 -240t-168 -182.5t-267.5 -69.5q-152 0 -267 88l-60 -68l-138 -6l131 141q-51 63 -78.5 144t-27.5 172q0 144 60.5 257t172.5 176.5t261 63.5q160 0 273 -89l60 69l135 9zM297.5 764q-71.5 -101 -71.5 -267
q0 -78 16 -148t46 -126l466 515q-41 60 -99.5 93.5t-131.5 33.5q-154 0 -225.5 -101zM712 107q67 49 97.5 131t30.5 183q0 72 -14 139t-41 123l-466 -510q41 -55 97.5 -85t124.5 -30q104 0 171 49z" />
    <glyph glyph-name="otilde.sc" horiz-adv-x="1001" 
d="M387 1087q18 0 39 -9l148 -36q19 -6 37 -6q35 0 63.5 22t47 55t24.5 66l-40 5q-11 -30 -29 -45t-41 -15q-18 0 -41 10l-149 35q-18 5 -31 5q-50 0 -88 -43t-49 -99l35 -9q23 64 74 64zM749.5 42.5q111.5 69.5 168 182.5t56.5 240q0 133 -51.5 241.5t-151 171.5t-235.5 63
q-149 0 -261 -63.5t-172.5 -176.5t-60.5 -257q0 -130 55 -237.5t155 -170.5t230 -63q156 0 267.5 69.5zM669 804q72 -61 109 -162.5t37 -220.5q0 -101 -30.5 -183t-97.5 -131t-171 -49q-95 0 -166.5 58t-110 158t-38.5 223q0 166 71.5 267t225.5 101q99 0 171 -61z" />
    <glyph glyph-name="p.sc" horiz-adv-x="882" 
d="M565 65l-216 29v778q8 1 33 3t43 2q91 0 153 -34.5t91.5 -92.5t29.5 -127q0 -107 -58.5 -174.5t-170.5 -71.5l-53 -2l13 -62q10 -1 29 -1q106 0 196.5 40.5t145.5 116.5t55 177q0 155 -110.5 225t-284.5 70q-95 0 -177.5 -9t-191.5 -26q-12 -1 -36 -5l-9 -56l151 -26
v-722l-147 -39l-8 -58h511z" />
    <glyph glyph-name="thorn.sc" horiz-adv-x="912" 
d="M629 310.5q56 60.5 56 156.5q0 63 -27.5 114.5t-84.5 83t-142 31.5q-9 0 -69 -3v-603l157 -27l-9 -63h-438l7 58l132 39v734l-147 34l8 57h444l-8 -57l-146 -31v-78q50 3 105 3q166 0 270.5 -63.5t104.5 -205.5q0 -94 -53 -164.5t-141.5 -107.5t-190.5 -37q-21 0 -31 1
l-14 62l54 2q107 4 163 64.5z" />
    <glyph glyph-name="q.sc" horiz-adv-x="1008" 
d="M554.5 -179.5q31.5 -68.5 92 -107.5t138.5 -39t151 38q6 14 9 61q-137 -2 -217 52.5t-125 165.5q108 28 190.5 98t128.5 171t46 221q0 127 -52.5 232t-152 166.5t-235.5 61.5q-140 0 -252 -63.5t-175.5 -175t-63.5 -249.5q0 -135 55.5 -244.5t158 -173t236.5 -63.5
q13 0 41 2q-5 -85 26.5 -153.5zM657 806.5q76 -59.5 117.5 -161t41.5 -223.5q0 -143 -70.5 -244t-193.5 -133q-107 3 -189.5 66t-127.5 168.5t-45 231.5q0 111 38 191.5t104.5 122t149.5 41.5q99 0 175 -59.5z" />
    <glyph glyph-name="r.sc" horiz-adv-x="1019" 
d="M508 65l-179 31v279h205l55 -119q55 -128 130.5 -199t168.5 -71q31 0 54 3.5t52 14.5l11 53l-31 9q-125 38 -256 245l-78 114v1q89 46 138 113t49 150q0 121 -97 186.5t-262 65.5q-93 0 -187.5 -10t-223.5 -30l-9 -56l140 -26v-722l-136 -39l-9 -58h455zM368.5 874
q30.5 2 62.5 2q116 0 182 -58.5t66 -160.5q0 -77 -35 -133.5t-94 -74.5h-221v422q9 1 39.5 3z" />
    <glyph glyph-name="s.sc" horiz-adv-x="690" 
d="M490.5 9q75.5 34 119 94t43.5 137q0 62 -34 111t-83.5 84t-129.5 81q-72 42 -114 71t-70.5 67t-28.5 85q0 65 37 99t106 34q44 0 83.5 -21t57.5 -51l15 -156l78 -9l19 246q-42 29 -100.5 44.5t-122.5 15.5q-76 0 -145 -31t-112 -90.5t-43 -138.5q0 -72 35 -125.5
t85 -89.5t132 -82q68 -39 105.5 -65t63.5 -61t26 -78q0 -60 -49 -92.5t-114 -32.5q-127 0 -184 74l-17 160l-78 11l-30 -242q40 -39 111 -61t170 -22q93 0 168.5 34z" />
    <glyph glyph-name="germandbls.sc" horiz-adv-x="1069" 
d="M314 562q0 115 32.5 184.5t96 101.5t163.5 35l-1 -3q-64 -21 -110 -80t-46 -147q0 -69 36 -119.5t86.5 -84t133.5 -77.5q68 -35 107 -60t65 -58t26 -74q0 -59 -48.5 -91.5t-112.5 -32.5q-74 0 -116 17t-72 53l-17 165l-76 11l-31 -248q41 -36 112 -57.5t166 -21.5
t171.5 34t120.5 94.5t44 136.5q0 61 -33 106.5t-81.5 77.5t-127.5 74q-74 39 -118.5 68t-75 69.5t-30.5 92.5q0 65 39 100t98 35q138 0 182 -192q104 22 104 105q0 57 -53 94t-133 54t-165 17q-223 0 -352.5 -99t-129.5 -303v-448l-142 -33l-6 -58h294v562z" />
    <glyph glyph-name="t.sc" horiz-adv-x="942" 
d="M64 650l72 -10l36 211h221v-754l-142 -39l-6 -58h441l13 63l-156 31v757h214l28 -204l73 -10l28 285h-830z" />
    <glyph glyph-name="u.sc" horiz-adv-x="1131" 
d="M197 334q0 -361 360 -361q191 0 287 95.5t98 292.5l4 473l136 31l9 57h-391l-8 -57l155 -34l-2 -497q0 -142 -62 -201t-185 -59q-120 0 -186.5 66.5t-66.5 220.5v473l139 31l7 57h-438l-9 -57l153 -34v-497z" />
    <glyph glyph-name="uacute.sc" horiz-adv-x="1131" 
d="M582 1002l183 321l-103 39l-128 -331zM196 334q0 -361 360 -361q192 0 288 95.5t97 292.5l4 473l136 31l10 57h-392l-7 -57l154 -34l-1 -497q-1 -142 -63 -201t-184 -59q-121 0 -187 66.5t-66 220.5v473l139 31l6 57h-438l-8 -57l152 -34v-497z" />
    <glyph glyph-name="ucircumflex.sc" horiz-adv-x="1131" 
d="M410 1000l148 124h10l172 -123l40 37l-178 186l-55 -14l-167 -180zM196 334q0 -361 360 -361q192 0 288 95.5t97 292.5l4 473l136 31l10 57h-392l-7 -57l154 -34l-1 -497q-1 -142 -63 -201t-184 -59q-121 0 -187 66.5t-66 220.5v473l139 31l6 57h-438l-8 -57l152 -34
v-497z" />
    <glyph glyph-name="udieresis.sc" horiz-adv-x="1131" 
d="M500 1057.5q19 21.5 19 59.5q0 36 -20 57t-52 21q-30 0 -50 -21t-20 -57q0 -37 19.5 -59t51.5 -22q33 0 52 21.5zM768.5 1057.5q19.5 21.5 19.5 59.5q0 36 -20.5 57t-52.5 21q-30 0 -49.5 -21t-19.5 -57q0 -37 19 -59t51 -22q33 0 52.5 21.5zM196 334q0 -361 360 -361
q192 0 288 95.5t97 292.5l4 473l136 31l10 57h-392l-7 -57l154 -34l-1 -497q-1 -142 -63 -201t-184 -59q-121 0 -187 66.5t-66 220.5v473l139 31l6 57h-438l-8 -57l152 -34v-497z" />
    <glyph glyph-name="ugrave.sc" horiz-adv-x="1131" 
d="M568 992l51 31l-132 335l-105 -38zM196 334q0 -361 360 -361q192 0 288 95.5t97 292.5l4 473l136 31l10 57h-392l-7 -57l154 -34l-1 -497q-1 -142 -63 -201t-184 -59q-121 0 -187 66.5t-66 220.5v473l139 31l6 57h-438l-8 -57l152 -34v-497z" />
    <glyph glyph-name="v.sc" horiz-adv-x="1034" 
d="M161 830l304 -855l101 21l317 838l101 32l6 56h-354l-5 -56l144 -36l-232 -629l-217 633l134 32l7 56h-419l-7 -56z" />
    <glyph glyph-name="w.sc" horiz-adv-x="1440" 
d="M156 830l254 -855l112 20l188 661l197 -681l104 20l269 837l106 34l7 56h-371l-8 -55l154 -38l-182 -601l-191 664l-111 -16l-190 -651l-182 609l136 34l9 54h-404l-8 -56z" />
    <glyph glyph-name="x.sc" horiz-adv-x="1009" 
d="M392 0l11 63l-130 26l212 294l202 -297l-117 -35l-8 -51h399l10 58l-116 26l-269 401l252 352l106 29l4 56h-341l-9 -57l131 -32l-198 -277l-192 279l120 32l7 55h-406l-8 -55l116 -35l261 -380l-271 -359l-105 -37l-9 -56h348z" />
    <glyph glyph-name="y.sc" horiz-adv-x="948" 
d="M147 830l264 -460v-273l-142 -39l-8 -58h442l9 63l-151 28v291l258 452l97 32l7 56h-343l-6 -56l139 -36l-199 -353l-202 357l127 32l8 56h-410l-8 -56z" />
    <glyph glyph-name="yacute.sc" horiz-adv-x="948" 
d="M511 1001l183 321l-104 39l-127 -331zM148 830l264 -460v-273l-143 -39l-8 -58h442l9 63l-151 28v291l259 452l97 32l6 56h-342l-6 -56l139 -36l-199 -353l-203 357l127 32l8 56h-409l-9 -56z" />
    <glyph glyph-name="ydieresis.sc" horiz-adv-x="948" 
d="M407 1051.5q19 21.5 19 59.5q0 36 -20 57t-52 21q-30 0 -50 -21t-20 -57q0 -37 19.5 -59t51.5 -22q33 0 52 21.5zM675.5 1051.5q19.5 21.5 19.5 59.5q0 36 -20.5 57t-52.5 21q-30 0 -49.5 -21t-19.5 -57q0 -37 19 -59t51 -22q33 0 52.5 21.5zM148 830l264 -460v-273
l-143 -39l-8 -58h442l9 63l-151 28v291l259 452l97 32l6 56h-342l-6 -56l139 -36l-199 -353l-203 357l127 32l8 56h-409l-9 -56z" />
    <glyph glyph-name="z.sc" horiz-adv-x="871" 
d="M47 0h754l29 285l-70 12l-87 -218h-456l594 787l-2 56h-715l-9 -276l70 -15l66 216h402l-583 -776z" />
    <glyph glyph-name="ordfeminine" unicode="&#xaa;" horiz-adv-x="718" 
d="M321 557.5q44 20.5 71 49t39 55.5h6v-11q0 -27 15 -52t43.5 -40.5t67.5 -15.5q32 0 55 7.5t44 23.5l7 48l-48 9q-35 6 -50.5 21t-19.5 37.5t-4 66.5v266q0 126 -50.5 186t-154.5 60q-58 0 -119 -21.5t-101.5 -57.5t-40.5 -78q0 -44 32.5 -67.5t77.5 -20.5
q7 69 15.5 104.5t28 55t57.5 19.5q54 0 83 -26t39 -73t10 -123v-30q-128 -4 -211.5 -41.5t-121.5 -95t-38 -123.5q0 -47 23 -82t61 -53t82 -18q58 0 102 20.5zM424 715q-63 -90 -148 -90q-47 0 -69 28t-22 72q0 74 59 115t180 60v-185z" />
    <glyph glyph-name="ordmasculine" unicode="&#xba;" horiz-adv-x="770" 
d="M549.5 583q76.5 47 122 132t45.5 194q0 102 -39 184t-110.5 129.5t-165.5 47.5q-93 0 -173 -46.5t-128 -133.5t-48 -204q0 -103 41 -182.5t116 -123.5t172 -44q91 0 167.5 47zM488.5 1150.5q48.5 -47.5 71 -124t22.5 -164.5q0 -112 -43.5 -185t-127.5 -73
q-113 0 -168 95.5t-55 244.5q0 112 45 183t134 71q73 0 121.5 -47.5z" />
    <glyph glyph-name="zero" unicode="0" horiz-adv-x="917" 
d="M659 37q90 64 145.5 202t55.5 348q0 200 -48.5 338.5t-137 208t-210.5 69.5q-113 0 -206 -71.5t-148 -211t-55 -333.5q0 -218 53.5 -355t144.5 -198t210 -61q106 0 196 64zM634.5 985.5q56.5 -139.5 56.5 -398.5q0 -274 -54 -406.5t-172 -132.5q-122 0 -182 134t-60 402
q0 263 56.5 402t181.5 139q117 0 173.5 -139.5z" />
    <glyph glyph-name="one" unicode="1" horiz-adv-x="792" 
d="M741 1l9 69l-268 28v1087h-27l-386 -64l-5 -61h259v-957l-274 -42l-4 -60h696z" />
    <glyph glyph-name="two" unicode="2" horiz-adv-x="910" 
d="M818 0l47 353l-55 8l-95 -243h-499l79 62q181 144 283 237.5t171 205.5t69 237q0 171 -92 260t-250 89q-73 0 -146 -22t-129.5 -57.5t-84.5 -72.5l10 -269l57 -8l41 241q24 45 77.5 76t128.5 31q111 0 162.5 -81.5t51.5 -204.5q0 -104 -41 -194.5t-118 -176.5t-202 -193
l-238 -204l6 -74h767z" />
    <glyph glyph-name="three" unicode="3" horiz-adv-x="835" 
d="M561.5 16.5q101.5 49.5 163 136t61.5 192.5q0 78 -41 138.5t-112.5 98.5t-161.5 51v10q67 25 128 69t101 107.5t40 139.5t-39 133t-107 88t-152 31q-109 0 -198.5 -37.5t-135.5 -81.5l7 -248l64 -11l43 224q70 80 169 80q59 0 100 -30t61.5 -78t20.5 -100
q0 -121 -90 -197t-205 -127l6 -50q95 -2 172 -36t120.5 -93t43.5 -134q0 -77 -32 -135t-90 -89.5t-134 -31.5q-63 0 -117.5 31t-77.5 71l-10 204l-67 11l-45 -263q19 -32 63 -60.5t105.5 -45.5t129.5 -17q115 0 216.5 49.5z" />
    <glyph glyph-name="four" unicode="4" horiz-adv-x="1004" 
d="M559 361v-266l-247 -38l-7 -57h592l11 64l-206 25v268h239l16 105h-255v221q0 315 9 493l-49 15l-617 -776l19 -54h495zM555 948v-486h-362z" />
    <glyph glyph-name="five" unicode="5" horiz-adv-x="801" 
d="M543 36.5q97 52.5 152 141t55 190.5q0 109 -52 195.5t-163 141.5t-282 66l44 261l385 17l21 149l-449 -27l-115 -532q217 -14 340.5 -98.5t123.5 -232.5q0 -75 -28.5 -131.5t-81 -87.5t-123.5 -31q-62 0 -115 24t-93 73l-18 200l-67 14l-28 -281q57 -55 126 -79.5
t152 -24.5q119 0 216 52.5z" />
    <glyph glyph-name="six" unicode="6" horiz-adv-x="862" 
d="M616.5 28.5q89.5 49.5 141.5 137t52 196.5q0 100 -39 179t-111 123.5t-168 44.5q-147 0 -255 -100h-9q35 175 136 322t294 233l-29 50q-158 -54 -289.5 -178t-208 -286.5t-76.5 -327.5q0 -123 37.5 -223t119 -160t207.5 -60q108 0 197.5 49.5zM300.5 594.5
q54.5 24.5 118.5 24.5q73 0 124.5 -39.5t77.5 -106t26 -146.5q0 -136 -50 -209.5t-163 -73.5q-61 0 -110 47.5t-77.5 130.5t-28.5 185q0 85 7 133q21 30 75.5 54.5z" />
    <glyph glyph-name="seven" unicode="7" horiz-adv-x="879" 
d="M100 820l68 227h551l-474 -1063l159 -17l433 1163v52h-763l-28 -353z" />
    <glyph glyph-name="eight" unicode="8" horiz-adv-x="810" 
d="M576.5 14q87.5 41 136.5 113.5t49 163.5q0 68 -26.5 122t-77.5 101.5t-135 104.5l3 6q83 43 138.5 124t55.5 178q0 77 -35 139.5t-102 99t-159 36.5q-94 0 -169 -41.5t-117.5 -111.5t-42.5 -152q0 -94 47.5 -166.5t136.5 -133.5v-7q-230 -136 -230 -309
q0 -89 43.5 -159.5t118.5 -109.5t166 -39q112 0 199.5 41zM496 1107.5q46 -33.5 73 -91t27 -126.5q0 -83 -34 -139t-93 -95q-137 88 -195.5 156t-58.5 143q0 52 22 94.5t63.5 67t97.5 24.5q52 0 98 -33.5zM560 386q72 -73 72 -153q0 -87 -54.5 -136.5t-146.5 -49.5
q-56 0 -112 31.5t-93 92t-37 141.5q0 85 37 139.5t106 105.5q156 -98 228 -171z" />
    <glyph glyph-name="nine" unicode="9" horiz-adv-x="845" 
d="M608 576h10q-26 -192 -130 -335t-329 -210l19 -58q182 34 322 150t216 284t76 353q0 123 -38 224.5t-119 163t-205 61.5q-101 0 -189 -51t-140.5 -140.5t-52.5 -199.5q0 -100 35.5 -178.5t103.5 -123t162 -44.5q150 0 259 104zM523.5 1098.5q49.5 -45.5 78 -125.5
t28.5 -180q0 -91 -9 -142q-23 -35 -75.5 -60.5t-115.5 -25.5q-73 0 -123.5 38.5t-75.5 104t-25 145.5q0 143 49.5 217t159.5 74q59 0 108.5 -45.5z" />
    <glyph glyph-name="zero.osf" horiz-adv-x="932" 
d="M657 37q90 62 144.5 177t54.5 267q0 138 -46 250.5t-134 178.5t-208 66q-114 0 -203 -71t-138 -186.5t-49 -242.5q0 -151 51.5 -265t140 -175t195.5 -61q102 0 192 62zM637.5 799.5q59.5 -107.5 59.5 -321.5q0 -223 -60.5 -325.5t-168.5 -102.5q-106 0 -169 106t-63 323
t56.5 322.5t173.5 105.5q112 0 171.5 -107.5z" />
    <glyph glyph-name="one.osf" horiz-adv-x="602" 
d="M592 2l7 67l-215 29v848h-27l-306 -64l-7 -61l200 -1v-717l-213 -42l-6 -59h567z" />
    <glyph glyph-name="two.osf" horiz-adv-x="795" 
d="M717 0l42 287l-55 9l-79 -180h-411l86 59q138 96 224 175.5t131 163t45 178.5q0 85 -33 150.5t-96 101.5t-151 36q-87 0 -162.5 -45t-125 -113.5t-61.5 -135.5l65 -24q16 59 49.5 109.5t78 80.5t92.5 30q84 0 132.5 -63.5t48.5 -165.5q0 -107 -59 -202t-199 -199
l-236 -178l7 -74h667z" />
    <glyph glyph-name="three.osf" horiz-adv-x="725" 
d="M475.5 -246q95.5 49 151.5 134t56 187q0 80 -40.5 149t-107 112t-139.5 50v8q55 23 111.5 71.5t95 115.5t38.5 141q0 73 -32 131.5t-89 92t-129 33.5q-81 0 -149.5 -38.5t-114 -96.5t-62.5 -114l67 -22q31 74 80.5 120.5t129.5 46.5q75 0 111 -57.5t36 -141.5
q0 -119 -83 -200t-196 -121l6 -50q94 -3 166.5 -39t112 -98.5t39.5 -143.5q0 -113 -57 -178.5t-177 -65.5q-78 0 -125.5 57t-61.5 139q-32 -2 -58 -19.5t-41 -43t-15 -49.5q0 -45 32 -81t93 -57t145 -21q111 0 206.5 49z" />
    <glyph glyph-name="four.osf" horiz-adv-x="947" 
d="M531 108v-409l140 32v375h213l16 100h-230v248q0 324 11 509l-50 15l-614 -819l19 -51h495zM529 714v-508h-365z" />
    <glyph glyph-name="five.osf" horiz-adv-x="761" 
d="M497 -237q104 60 162.5 159t58.5 211q0 114 -55.5 200t-160.5 138.5t-252 65.5l43 259l366 25l21 140l-445 -38l-94 -509q206 -19 316.5 -106.5t110.5 -235.5q0 -97 -36 -163t-94 -98t-126 -32q-84 0 -141.5 56t-86.5 144q-40 -5 -68 -43t-28 -84q0 -42 36 -76
t99.5 -53.5t141.5 -19.5q128 0 232 60z" />
    <glyph glyph-name="six.osf" horiz-adv-x="785" 
d="M561.5 33q82.5 55 131 145.5t48.5 193.5q0 93 -33 170.5t-96.5 123t-150.5 45.5q-64 0 -125.5 -26.5t-107.5 -70.5h-9q35 173 138.5 323.5t287.5 229.5l-28 51q-159 -53 -290 -181t-205.5 -292.5t-74.5 -322.5q0 -196 79.5 -320t257.5 -124q95 0 177.5 55zM287 596.5
q45 22.5 97 22.5q106 0 155.5 -82t49.5 -209q0 -78 -21 -141t-62.5 -100.5t-100.5 -37.5t-104.5 46t-70.5 127.5t-25 184.5q0 26 3 68t7 69q27 30 72 52.5z" />
    <glyph glyph-name="seven.osf" horiz-adv-x="737" 
d="M142 806h456q-80 -129 -187 -324t-189 -384.5t-82 -282.5q0 -55 29.5 -87t90.5 -32q4 0 14 2t16 3q9 203 62 383.5t129 336.5t213 403q6 10 11 19t9 16l-6 74h-649l-26 -331l61 -10z" />
    <glyph glyph-name="eight.osf" horiz-adv-x="790" 
d="M551.5 15q87.5 42 138.5 116t51 164q0 92 -54 171.5t-166 152.5l1 6q166 126 166 308q0 79 -34.5 140t-97.5 95t-146 34q-90 0 -161 -41t-111 -110t-40 -150q0 -88 46 -163t120 -126v-7q-104 -73 -157.5 -155t-53.5 -169q0 -90 38.5 -160t108.5 -109t161 -39
q103 0 190.5 42zM478.5 1107q45.5 -33 71 -88.5t25.5 -119.5q0 -87 -29.5 -143t-78.5 -104q-135 82 -196 157.5t-61 166.5q0 46 21.5 83.5t60 59t85.5 21.5q56 0 101.5 -33zM490.5 454q64.5 -51 96.5 -100.5t32 -105.5q0 -92 -56.5 -145t-154.5 -53q-52 0 -104 34.5t-85 95
t-33 132.5q0 85 35 152.5t92 111.5q113 -71 177.5 -122z" />
    <glyph glyph-name="nine.osf" horiz-adv-x="779" 
d="M457.5 249.5q57.5 26.5 103.5 72.5h9q-43 -171 -146.5 -308t-302.5 -227l23 -59q164 55 299.5 176.5t213.5 281.5t78 325q0 197 -80 322.5t-260 125.5q-98 0 -179.5 -51t-129 -139t-47.5 -193q0 -103 32.5 -183t96 -125t154.5 -45q78 0 135.5 26.5zM481 847.5
q47 -45.5 73.5 -125.5t26.5 -181q0 -33 -1 -75t-6 -68q-24 -35 -71 -59t-108 -24q-102 0 -154 75.5t-52 211.5q0 146 47.5 218.5t138.5 72.5q59 0 106 -45.5z" />
    <glyph glyph-name="one.superior" horiz-adv-x="558" 
d="M503 548l5 70l-155 10v630h-19l-268 -36l-4 -61h150v-530l-158 -23l-3 -60h452z" />
    <glyph glyph-name="two.superior" horiz-adv-x="655" 
d="M579 548l20 242l-46 12l-62 -150h-293l35 23q120 87 186 144t106 120t40 135q0 98 -61.5 149t-168.5 51q-79 0 -148.5 -25t-96.5 -65l5 -165l55 -5l24 140q30 40 115 40q64 0 93.5 -44t29.5 -110q0 -71 -48.5 -136.5t-156.5 -153.5l-154 -124l-2 -78h528z" />
    <glyph glyph-name="three.superior" horiz-adv-x="620" 
d="M409 541.5q72 30.5 115.5 84t43.5 119.5q0 75 -58 125.5t-161 62.5v7q77 24 127.5 71t50.5 118q0 48 -27.5 84t-75 55.5t-104.5 19.5q-77 0 -143 -23.5t-92 -54.5l4 -155l63 -6l28 141q14 16 36 21.5t57 5.5q33 0 57.5 -18t37 -46.5t12.5 -58.5q0 -49 -34.5 -85t-71 -54
t-84.5 -37l8 -40q58 -1 109.5 -20.5t82.5 -53t31 -76.5q0 -67 -42 -108t-111 -41q-38 0 -71.5 16.5t-48.5 38.5l-6 128l-59 6l-33 -170q20 -39 76.5 -63t129.5 -24q81 0 153 30.5z" />
    <glyph glyph-name="fraction" unicode="&#x2044;" horiz-adv-x="951" 
d="M191 -40l347 631l368 601v15l-130 4l-355 -623l-376 -614z" />
    <glyph glyph-name="onehalf" unicode="&#xbd;" horiz-adv-x="1399" 
d="M497 550l5 70l-155 10v630h-19l-268 -36l-4 -61h150v-530l-158 -23l-3 -60h452zM382 -40l348 631l366 599l2 17l-136 4l-354 -623l-376 -614zM1334 1l20 241l-46 12l-62 -150h-293l35 24q121 88 186.5 144.5t105.5 119t40 134.5q0 98 -61.5 149t-168.5 51
q-79 0 -148.5 -25t-96.5 -65l5 -164l55 -5l24 139q30 40 115 40q64 0 93.5 -44t29.5 -110q0 -71 -48.5 -136.5t-156.5 -153.5l-154 -124l-2 -77h528z" />
    <glyph glyph-name="onequarter" unicode="&#xbc;" horiz-adv-x="1333" 
d="M497 550l5 70l-155 10v630h-19l-268 -36l-4 -61h150v-530l-158 -23l-3 -60h452zM392 -40l348 631l366 599l2 17l-136 4l-354 -623l-376 -614zM1014 192v-116l-150 -26l-5 -50h394l6 55l-119 19v114h139l9 86h-148v151q0 201 8 296l-50 9l-396 -480l10 -58h302zM1012 532
v-258h-204z" />
    <glyph glyph-name="threequarters" unicode="&#xbe;" horiz-adv-x="1326" 
d="M404 538.5q72 30.5 115.5 84t43.5 119.5q0 75 -57.5 125.5t-160.5 62.5v7q77 24 127.5 71t50.5 118q0 48 -27.5 84t-75 56t-104.5 20q-77 0 -143 -23.5t-92 -54.5l4 -156l62 -6l28 142q14 15 36 20.5t58 5.5q49 0 77.5 -37.5t28.5 -84.5q0 -49 -34.5 -85t-71.5 -55
t-84 -37l8 -39q58 -1 109.5 -20.5t83 -53t31.5 -76.5q0 -67 -42.5 -108.5t-111.5 -41.5q-38 0 -71 16.5t-48 39.5l-6 127l-59 7l-34 -171q20 -39 76.5 -63t129.5 -24q81 0 153 30.5zM393 -40l347 631l366 599l3 17l-137 4l-353 -623l-377 -614zM1007 192v-116l-150 -26
l-5 -50h394l6 55l-119 19v114h139l9 86h-148v151q0 201 8 296l-50 9l-396 -480l10 -58h302zM1005 532v-258h-204z" />
    <glyph glyph-name="asterisk" unicode="*" horiz-adv-x="801" 
d="M371 974l-276 118l-48 -114l310 -66l-198 -227l93 -81l161 278l156 -259l105 63l-212 237l291 67l-27 116l-290 -125l25 299l-123 11z" />
    <glyph glyph-name="backslash" unicode="\" horiz-adv-x="651" 
d="M507 -362l104 -5l-462 1621l-108 5z" />
    <glyph glyph-name="periodcentered" unicode="&#xb7;" horiz-adv-x="307" 
d="M221 422q25 31 25 81q0 48 -25.5 76.5t-66.5 28.5t-66.5 -28.5t-25.5 -76.5q0 -50 25 -81t67 -31t67 31z" />
    <glyph glyph-name="bullet" unicode="&#x2022;" horiz-adv-x="1174" 
d="M276 458.5q33 44.5 33 116.5q0 69 -34 111t-88 42q-53 0 -85.5 -41t-32.5 -110q0 -72 32.5 -117.5t86.5 -45.5q55 0 88 44.5z" />
    <glyph glyph-name="colon" unicode=":" horiz-adv-x="302" 
d="M217 660q24 30 24 79q0 46 -24.5 74.5t-63.5 28.5t-63.5 -28t-24.5 -74q0 -49 24 -79.5t64 -30.5t64 30zM215.5 30.5q23.5 30.5 23.5 79.5q0 46 -24.5 73.5t-63.5 27.5t-63.5 -27.5t-24.5 -73.5q0 -48 24.5 -79t64.5 -31t63.5 30.5z" />
    <glyph glyph-name="comma" unicode="," horiz-adv-x="414" 
d="M292 -167q61 85 61 176q0 69 -23.5 116t-60 70t-75.5 23q-43 0 -75.5 -28.5t-32.5 -77.5q0 -17 8 -41q13 3 29 3q48 0 80 -35.5t32 -88.5q0 -131 -180 -190l18 -58q158 46 219 131z" />
    <glyph glyph-name="ellipsis" unicode="&#x2026;" horiz-adv-x="1086" 
d="M218 -1q25 31 25 81q0 48 -26 77t-67 29t-65.5 -28.5t-24.5 -76.5q0 -50 25 -81.5t66 -31.5q42 0 67 31zM610 -1q25 31 25 81q0 48 -26 77t-67 29t-65.5 -28.5t-24.5 -76.5q0 -50 25 -81.5t66 -31.5q42 0 67 31zM1001 -1q25 31 25 81q0 48 -26 77t-67 29t-65.5 -28.5
t-24.5 -76.5q0 -50 25 -81.5t66 -31.5q42 0 67 31z" />
    <glyph glyph-name="exclam" unicode="!" horiz-adv-x="293" 
d="M178 361q21 254 36.5 512.5t15.5 380.5q0 21 -17.5 30t-41.5 9q-33 0 -66.5 -10.5t-33.5 -28.5q0 -85 12.5 -362.5t27.5 -515.5zM213 -3q25 32 25 81q0 45 -27 75.5t-66 30.5q-38 0 -64 -30t-26 -75q0 -48 24.5 -81t65.5 -33q43 0 68 32z" />
    <glyph glyph-name="exclamdown" unicode="&#xa1;" horiz-adv-x="291" 
d="M211.5 721.5q26.5 29.5 26.5 74.5q0 48 -25 81t-66 33q-42 0 -67 -32t-25 -81q0 -45 26.5 -75t65.5 -30q38 0 64.5 29.5zM185.5 -406.5q31.5 10.5 37.5 29.5v2q0 81 -13.5 363t-28.5 524v3l-64 14l-3 -5q-21 -248 -36 -512.5t-15 -388.5q0 -21 17.5 -30.5t41.5 -9.5
q32 0 63.5 10.5z" />
    <glyph glyph-name="numbersign" unicode="#" horiz-adv-x="1095" 
d="M1027 712h-252l-42 -285h245l-26 -101h-234l-52 -345l-94 -7l53 352h-225l-52 -345l-93 -7l53 352h-265l27 101h253l43 285h-252l28 101h239l51 337l93 10l-52 -347h225l51 337l93 9l-52 -346h262zM640 427l43 285h-225l-43 -285h225z" />
    <glyph glyph-name="period" unicode="." horiz-adv-x="309" 
d="M222 -1q25 31 25 81q0 48 -26 77t-67 29t-65.5 -28.5t-24.5 -76.5q0 -50 25 -81.5t66 -31.5q42 0 67 31z" />
    <glyph glyph-name="question" unicode="?" horiz-adv-x="617" 
d="M185.5 1127q51.5 20 108.5 20q47 0 89 -29t67.5 -76t25.5 -99q0 -39 -19 -68.5t-47 -49.5t-76 -48q-54 -31 -87.5 -56t-56.5 -63.5t-23 -92.5q0 -56 25 -116t56 -95l58 17q-35 86 -35 137q0 35 17 61.5t42 45.5t70 47q55 34 88.5 61t57.5 69t24 101q0 105 -47 196
t-123 144.5t-159 53.5q-59 0 -104 -19.5t-69.5 -49t-24.5 -59.5q0 -28 17.5 -51.5t41.5 -34.5q32 34 83.5 54zM352 -3q25 32 25 81q0 45 -26.5 75.5t-65.5 30.5q-38 0 -64.5 -30t-26.5 -75q0 -48 25 -81t66 -33q42 0 67 32z" />
    <glyph glyph-name="questiondown" unicode="&#xbf;" horiz-adv-x="615" 
d="M262 903q-25 -32 -25 -81q0 -45 26.5 -75.5t65.5 -30.5q38 0 64.5 30t26.5 75q0 48 -25 81t-66 33q-42 0 -67 -32zM428.5 -227q-51.5 -20 -108.5 -20q-47 0 -89 29t-67.5 76t-25.5 99q0 39 19 68.5t47 49.5t76 48q54 31 87.5 56t56.5 63.5t23 92.5q0 56 -25 116t-56 95
l-58 -17q35 -86 35 -137q0 -35 -17 -61.5t-42 -45.5t-70 -47q-55 -34 -88.5 -61t-57.5 -69t-24 -101q0 -105 47 -196t123 -144.5t159 -53.5q59 0 104 19.5t69.5 49t24.5 59.5q0 28 -17.5 51.5t-41.5 34.5q-32 -34 -83.5 -54z" />
    <glyph glyph-name="quotedbl" unicode="&#x22;" horiz-adv-x="453" 
d="M96 891l73 8l36 392l-145 12zM283 891l74 8l36 392l-147 12z" />
    <glyph glyph-name="quotesingle" unicode="'" horiz-adv-x="265" 
d="M96 891l73 8l36 392l-146 12z" />
    <glyph glyph-name="semicolon" unicode=";" horiz-adv-x="397" 
d="M240 660q25 31 25 81q0 48 -26 77t-67 29t-65.5 -28.5t-24.5 -76.5q0 -50 25 -81.5t66 -31.5q42 0 67 31zM284 -172.5q61 81.5 61 169.5q0 66 -23.5 111t-60 67t-75.5 22q-43 0 -75.5 -27.5t-32.5 -73.5q0 -16 8 -40q14 3 29 3q48 0 80 -34t32 -85q0 -125 -180 -183
l18 -55q158 44 219 125.5z" />
    <glyph glyph-name="slash" unicode="/" horiz-adv-x="651" 
d="M144 -355l466 1599l-107 -6l-463 -1599z" />
    <glyph glyph-name="underscore" unicode="_" horiz-adv-x="985" 
d="M903 -133l10 86h-828l-12 -86h830z" />
    <glyph glyph-name="numbersign.osf" horiz-adv-x="962" 
d="M828 559h-197l-33 -213h196l-26 -101h-185l-40 -264l-89 -7l41 271h-181l-40 -264l-90 -7l41 271h-211l27 101h200l32 213h-204l28 101h191l42 273l89 10l-43 -283h182l41 273l90 9l-43 -282h207zM510 346l32 213h-181l-32 -213h181z" />
    <glyph glyph-name="braceleft" unicode="{" horiz-adv-x="613" 
d="M313.5 -319.5q-50.5 58.5 -63 142t-14.5 220.5q-2 113 -10 179.5t-37.5 115.5t-92.5 57l-51 7v74l48 8q64 9 94.5 58.5t38.5 117t10 181.5q3 136 15.5 218t61.5 139.5t152 57.5h102l-8 -74l-94 -7q-41 -3 -60 -40t-23.5 -91.5t-5.5 -151.5q-1 -129 -10.5 -211.5
t-48.5 -150t-120 -87.5v-5q80 -18 119 -83.5t49.5 -148.5t13.5 -211q2 -99 7.5 -156t26.5 -95.5t64 -40.5l87 -6l8 -75h-103q-105 0 -155.5 58.5z" />
    <glyph glyph-name="braceright" unicode="}" horiz-adv-x="614" 
d="M299 -319.5q50 58.5 62.5 141t15.5 221.5q2 114 9.5 180.5t37 115t92.5 56.5l52 7v74l-49 8q-64 9 -94.5 58.5t-38.5 117t-10 181.5q-2 135 -14.5 217.5t-61.5 140t-152 57.5h-102l8 -74l94 -7q41 -3 60 -40t23.5 -91.5t5.5 -151.5q1 -127 10 -210.5t48 -151t120 -87.5
v-5q-80 -18 -119 -83.5t-49.5 -149t-12.5 -210.5q-2 -99 -7.5 -156t-26.5 -95.5t-64 -40.5l-87 -6l-8 -75h103q105 0 155 58.5z" />
    <glyph glyph-name="bracketleft" unicode="[" horiz-adv-x="484" 
d="M435 -375h-360l1 1631h358l7 -71l-235 -21v-1450l237 -20z" />
    <glyph glyph-name="bracketright" unicode="]" horiz-adv-x="485" 
d="M50 -375h360l-1 1631h-357l-8 -71l235 -21v-1450l-237 -20z" />
    <glyph glyph-name="parenleft" unicode="(" horiz-adv-x="478" 
d="M401 1256q-68 -58 -139 -144.5t-134.5 -255.5t-63.5 -406q0 -328 112 -527t220 -298l48 45q-49 80 -97.5 177.5t-93 259.5t-44.5 349q0 195 36.5 341t84.5 235.5t108 168.5z" />
    <glyph glyph-name="parenright" unicode=")" horiz-adv-x="477" 
d="M231.5 107q-44.5 -162 -93 -259.5t-97.5 -177.5l48 -45q108 99 220 298t112 527q0 237 -63.5 406t-134.5 255.5t-139 144.5l-37 -55q60 -79 108 -168.5t84.5 -235.5t36.5 -341q0 -187 -44.5 -349z" />
    <glyph glyph-name="emdash" unicode="&#x2014;" horiz-adv-x="1261" 
d="M1184 426l14 83l-1120 -6l-14 -83z" />
    <glyph glyph-name="endash" unicode="&#x2013;" horiz-adv-x="752" 
d="M676 426l13 83l-611 -6l-13 -83z" />
    <glyph glyph-name="hyphen" unicode="-" horiz-adv-x="545" 
d="M473 426l11 81l-408 -18l-11 -80z" />
    <glyph glyph-name="uni00AD" unicode="&#xad;" horiz-adv-x="538" 
d="M469 480l8 90l-408 -61l-8 -89z" />
    <glyph glyph-name="guillemotleft" unicode="&#xab;" horiz-adv-x="652" 
d="M296 449l261 -372l42 51l-177 333l176 313l-36 47l-268 -352zM49 449l261 -372l42 51l-177 333l176 313l-36 47l-268 -352z" />
    <glyph glyph-name="guillemotright" unicode="&#xbb;" horiz-adv-x="653" 
d="M331 449l2 20l-268 352l-36 -47l176 -313l-177 -333l42 -51zM578 449l2 20l-268 352l-36 -47l176 -313l-177 -333l42 -51z" />
    <glyph glyph-name="guilsinglleft" unicode="&#x2039;" horiz-adv-x="405" 
d="M51 449l261 -372l42 51l-177 333l176 313l-36 47l-268 -352z" />
    <glyph glyph-name="guilsinglright" unicode="&#x203a;" horiz-adv-x="406" 
d="M357 449l2 20l-268 352l-36 -47l176 -313l-177 -333l42 -51z" />
    <glyph glyph-name="quotedblbase" unicode="&#x201e;" horiz-adv-x="736" 
d="M293 -167q61 85 61 176q0 69 -23.5 116t-60 70t-75.5 23q-43 0 -75.5 -28.5t-32.5 -77.5q0 -17 8 -41q14 3 29 3q48 0 80 -35.5t32 -88.5q0 -131 -180 -190l18 -58q158 46 219 131zM617 -167q61 85 61 176q0 69 -23.5 116t-60 70t-75.5 23q-43 0 -75.5 -28.5t-32.5 -77.5
q0 -17 8 -41q14 3 29 3q48 0 80 -35.5t32 -88.5q0 -131 -180 -190l18 -58q158 46 219 131z" />
    <glyph glyph-name="quotedblleft" unicode="&#x201c;" horiz-adv-x="720" 
d="M431 1152q-61 -85 -61 -176q0 -69 23.5 -116t60 -70t75.5 -23q43 0 75.5 29t32.5 77q0 17 -8 41q-14 -3 -29 -3q-48 0 -80 35.5t-32 88.5q0 131 180 190l-18 58q-158 -46 -219 -131zM115 1152q-61 -85 -61 -176q0 -69 23.5 -116t60 -70t75.5 -23q43 0 75.5 29t32.5 77
q0 17 -8 41q-14 -3 -29 -3q-48 0 -80 35.5t-32 88.5q0 131 180 190l-18 58q-158 -46 -219 -131z" />
    <glyph glyph-name="quotedblright" unicode="&#x201d;" horiz-adv-x="753" 
d="M639 897q61 85 61 176q0 69 -23.5 116t-60 70t-75.5 23q-43 0 -75.5 -28.5t-32.5 -77.5q0 -17 8 -41q14 3 29 3q48 0 80 -35.5t32 -88.5q0 -131 -180 -190l18 -58q158 46 219 131zM292 897q61 85 61 176q0 69 -23.5 116t-60 70t-75.5 23q-43 0 -75.5 -28.5t-32.5 -77.5
q0 -17 8 -41q14 3 29 3q48 0 80 -35.5t32 -88.5q0 -131 -180 -190l18 -58q158 46 219 131z" />
    <glyph glyph-name="quoteleft" unicode="&#x2018;" horiz-adv-x="404" 
d="M115 1152q-61 -85 -61 -176q0 -69 23.5 -116t60 -70t75.5 -23q43 0 75.5 29t32.5 77q0 17 -8 41q-14 -3 -29 -3q-48 0 -80 35.5t-32 88.5q0 131 180 190l-18 58q-158 -46 -219 -131z" />
    <glyph glyph-name="quoteright" unicode="&#x2019;" horiz-adv-x="406" 
d="M292 897q61 85 61 176q0 69 -23.5 116t-60 70t-75.5 23q-43 0 -75.5 -28.5t-32.5 -77.5q0 -17 8 -41q14 3 29 3q48 0 80 -35.5t32 -88.5q0 -131 -180 -190l18 -58q158 46 219 131z" />
    <glyph glyph-name="quotesinglbase" unicode="&#x201a;" horiz-adv-x="414" 
d="M293 -167q61 85 61 176q0 69 -23.5 116t-60 70t-75.5 23q-43 0 -75.5 -28.5t-32.5 -77.5q0 -17 8 -41q14 3 29 3q48 0 80 -35.5t32 -88.5q0 -131 -180 -190l18 -58q158 46 219 131z" />
    <glyph glyph-name="uni00A0" unicode="&#xa0;" horiz-adv-x="316" 
 />
    <glyph glyph-name="cent" unicode="&#xa2;" horiz-adv-x="767" 
d="M612.5 15.5q-75.5 -37.5 -160.5 -44.5l29 -221l-128 -17l23 239q-99 12 -172 73.5t-111.5 157.5t-38.5 209q0 126 41.5 231t113.5 174t162 92l-29 226l127 17l-22 -232h7q80 0 131.5 -23t75 -59.5t23.5 -78.5q0 -83 -95 -99q-31 87 -73.5 135t-109.5 48q-59 0 -107.5 -45
t-76.5 -126.5t-28 -185.5q0 -117 35 -212t100.5 -150t155.5 -55q122 0 219 79l21 -46q-37 -49 -112.5 -86.5z" />
    <glyph glyph-name="currency" unicode="&#xa4;" horiz-adv-x="712" 
d="M107 566.5q-14 -43.5 -14 -76.5q0 -38 16 -85.5t37 -79.5l-84 -78l67 -68l77 89q33 -20 74 -35t69 -15q33 0 80 16.5t84 39.5l79 -90l69 64l-93 86q21 28 36 74t15 84q0 34 -13.5 79t-30.5 75l84 74l-59 70l-77 -80q-32 24 -80 42t-87 18q-35 0 -81 -20.5t-80 -48.5
l-78 88l-68 -66l91 -85q-19 -28 -33 -71.5zM481 631q49 -54 49 -143q0 -55 -22.5 -97.5t-62.5 -66t-92 -23.5q-76 0 -123 53.5t-47 140.5q0 85 46.5 137.5t122.5 52.5q80 0 129 -54z" />
    <glyph glyph-name="dollar" unicode="$" horiz-adv-x="850" 
d="M763 171.5q-41 -72.5 -113.5 -120.5t-166.5 -66l11 -149l-145 -15l10 154q-97 4 -180.5 44.5t-131.5 99.5l22 276l75 -11l33 -203q28 -49 85.5 -82.5t126.5 -40.5v506q-98 58 -160 105t-104 114t-42 155t38 156t102.5 110.5t141.5 57.5l-11 133l137 16l-13 -142
q74 -5 139.5 -31.5t113.5 -72.5l-27 -296l-73 9l-26 218q-18 34 -62 63t-94 38v-476l48 -29q102 -60 162.5 -104.5t102.5 -108.5t42 -148q0 -87 -41 -159.5zM264.5 867.5q45.5 -57.5 128.5 -111.5v443q-76 -6 -125 -58t-49 -140q0 -76 45.5 -133.5zM553 91q47 26 75.5 72.5
t28.5 110.5q0 77 -53 134.5t-153 118.5v-468q55 6 102 32z" />
    <glyph glyph-name="Euro" unicode="&#x20ac;" horiz-adv-x="1174" 
d="M1124 107q-95 -71 -181.5 -101.5t-205.5 -30.5q-138 0 -248.5 63t-179.5 180t-88 275h-174l6 83h162q-1 11 -1 34q0 20 2 62h-160l5 82h165q25 143 96.5 260t190 186.5t277.5 69.5q101 0 174 -22.5t144 -76.5l-32 -335l-65 10l-37 240q-36 53 -82.5 78.5t-131.5 25.5
q-161 0 -257 -115.5t-117 -320.5h539l-17 -82h-527v-31q0 -23 2 -65h495l-17 -83h-470q18 -133 71 -230t136 -148.5t190 -51.5q52 0 107 27.5t95 82.5l37 244l66 9z" />
    <glyph glyph-name="sterling" unicode="&#xa3;" horiz-adv-x="1072" 
d="M1025 322l-63 14l-111 -259l-499 1q59 137 62 438v52l211 13l10 80l-219 -13v54q2 199 19 297t58.5 135t124.5 37q25 0 62.5 -10.5t55.5 -19.5l31 -239l67 -10l31 319q-55 23 -110 31.5t-122 8.5q-174 0 -268 -114.5t-100 -350.5l-3 -145l-170 -10l-11 -79l178 9l-1 -100
q-2 -122 -11 -207t-29 -158l-168 -38l-7 -58h948z" />
    <glyph glyph-name="yen" unicode="&#xa5;" horiz-adv-x="1067" 
d="M179 1152l263 -574h-293l-11 -73h323v-167h-315l-11 -73h326v-169l-162 -40l-8 -56h481l9 62l-174 28v175h335l11 73h-346v167h338l11 73h-330l267 577l126 33l7 56h-394l-6 -56l171 -37l-227 -513l-239 518l150 32l8 56h-439l-8 -56z" />
    <glyph glyph-name="dollar.osf" horiz-adv-x="750" 
d="M562 60q-62 -65 -159 -86l12 -153l-127 -18l12 162q-72 3 -130 26.5t-90.5 62t-32.5 84.5q0 44 27.5 73t77.5 33q51 -204 205 -204q66 0 107.5 31.5t41.5 87.5q0 35 -23 65t-57.5 55t-94.5 61q-79 49 -127.5 86t-83.5 90.5t-35 121.5q0 55 26.5 110t77.5 95t119 52
l-15 147l122 17l-13 -161q87 -8 142 -53t55 -110q0 -52 -30 -80.5t-78 -31.5q-14 102 -60.5 156.5t-107.5 54.5q-58 0 -93 -37.5t-35 -99.5q0 -46 27 -83.5t67 -67t107 -69.5q74 -46 119.5 -80t77 -81t31.5 -106q0 -85 -62 -150z" />
    <glyph glyph-name="Euro.osf" horiz-adv-x="1028" 
d="M895 111q-36 -51 -116.5 -93.5t-210.5 -42.5q-104 0 -188 40t-139 116.5t-74 183.5h-144l9 83h126q-1 10 -1 31q0 17 2 49h-132l8 82h136q23 108 82.5 194.5t153 136.5t213.5 50q81 0 138 -20t93 -44l-26 -262l-72 10l-16 165q-45 75 -180 75q-93 0 -152 -75.5
t-74 -229.5h324l-16 -82h-312v-15q0 -33 3 -65h289l-17 -83h-258q29 -116 101.5 -178.5t171.5 -62.5q87 0 145 27t100 67z" />
    <glyph glyph-name="sterling.osf" horiz-adv-x="1100" 
d="M944 301l-62 16l-98 -239h-416q37 41 53 111.5t16 180.5v43l239 17l10 75l-247 -14v58q0 128 10.5 194t44.5 97.5t105 31.5q67 0 104.5 -50t56.5 -153q45 6 78.5 34.5t33.5 72.5q0 49 -30 86.5t-86 58t-131 20.5q-109 0 -183 -45t-110.5 -121.5t-39.5 -174.5l-3 -117
l-170 -9l-11 -76l177 9v-92q0 -139 -40 -222l-168 -35l-6 -58h845z" />
    <glyph glyph-name="yen.osf" horiz-adv-x="1048" 
d="M978 867l-125 -34l-128 -260h235l-11 -72h-259l-63 -127h333l-11 -73h-336v-211l174 -28l-10 -62h-480l8 57l162 39v205h-325l12 73h299l-61 127h-250l12 72h204l-123 258l-139 36l10 55h407l-7 -55l-120 -33l182 -420l189 417l-137 36l6 55h359z" />
    <glyph glyph-name="plus" unicode="+" horiz-adv-x="637" 
d="M275 417v-231l91 -13l-2 244h209l11 86h-220l-1 227l-88 12v-239h-209l-12 -86h221z" />
    <glyph glyph-name="multiply" unicode="&#xd7;" horiz-adv-x="558" 
d="M108 232l169 175l164 -171l70 56l-173 166l168 157l-56 71l-169 -172l-158 167l-71 -56l169 -163l-170 -160z" />
    <glyph glyph-name="divide" unicode="&#xf7;" horiz-adv-x="918" 
d="M519.5 707.5q25.5 31.5 25.5 82.5q0 47 -26.5 75.5t-67.5 28.5t-65.5 -28t-24.5 -76q0 -50 25 -82t66 -32q42 0 67.5 31.5zM860 465l11 85h-812l-13 -85h814zM519.5 143.5q25.5 31.5 25.5 81.5q0 47 -26.5 76t-67.5 29t-65.5 -28t-24.5 -76q0 -50 25 -82t66 -32
q42 0 67.5 31.5z" />
    <glyph glyph-name="equal" unicode="=" horiz-adv-x="754" 
d="M680 569l11 86h-615l-11 -86h615zM677 330l11 85h-615l-11 -85h615z" />
    <glyph glyph-name="greater" unicode="&#x3e;" horiz-adv-x="766" 
d="M84 -82l635 509l-1 29l-621 518l-35 -60l471 -477l-491 -462z" />
    <glyph glyph-name="less" unicode="&#x3c;" horiz-adv-x="764" 
d="M706 -82l42 57l-491 462l471 477l-35 60l-621 -518l-1 -29z" />
    <glyph glyph-name="plusminus" unicode="&#xb1;" horiz-adv-x="723" 
d="M311 479v-231l91 -13l-2 244h209l11 86h-220l-1 227l-88 12v-239h-209l-12 -86h221zM659 29l17 84l-611 -3l-17 -84z" />
    <glyph glyph-name="asciitilde" unicode="~" horiz-adv-x="900" 
d="M122 430.5q16 23.5 39 43.5t50 20q9 0 13 -1l399 -71q15 -3 29 -3q60 0 103 45.5t66.5 98t23.5 60.5l-55 1q0 -3 -15 -25t-37.5 -40.5t-49.5 -18.5q-5 0 -15 2l-399 71q-15 3 -28 3q-60 0 -101.5 -44t-63.5 -95t-22 -60l47 -13q0 3 16 26.5z" />
    <glyph glyph-name="logicalnot" unicode="&#xac;" horiz-adv-x="876" 
d="M722 584v-252l89 19l-1 313h-745l-12 -80h669z" />
    <glyph glyph-name="uni00B5" unicode="&#xb5;" horiz-adv-x="1017" 
d="M187 494q0 -202 -8.5 -509t-11.5 -347l111 -26l-15 302q-2 21 -4 71q-2 51 -4 64h6q22 -36 62.5 -54.5t91.5 -18.5q75 0 147 40t131 115h12v-12q0 -61 35.5 -100.5t100.5 -39.5q36 0 65 4.5t62 14.5l6 59l-52 11q-57 11 -79 44.5t-22 109.5v638l-14 18l-266 -24l-6 -59
l158 -36v-573q-47 -46 -97 -75t-110 -29q-82 0 -126 57t-44 177v544l-17 18l-249 -21l-8 -54l145 -42v-267z" />
    <glyph glyph-name="percent" unicode="%" horiz-adv-x="1177" 
d="M647 591l-347 -631l-146 14l376 614l316 555l-377 7q18 -22 32.5 -70.5t22.5 -100.5t8 -80q0 -83 -36 -156t-93 -116t-116 -43q-64 0 -119.5 39t-88.5 111t-33 165q0 82 34.5 154.5t90.5 116t117 43.5q24 0 36 -4v-56q-12 9 -19.5 12t-20.5 3q-56 0 -83 -83t-27 -186
q0 -62 13 -122.5t39 -100t61 -39.5q58 0 87.5 79.5t29.5 182.5q0 184 -46 297l527 15l130 -4l-2 -16zM1009.5 549.5q55.5 -41.5 87 -114t31.5 -161.5q0 -82 -35.5 -153.5t-91.5 -114t-115 -42.5q-64 0 -120 39t-90 110.5t-34 163.5q0 82 34.5 154.5t90.5 116t117 43.5
q70 0 125.5 -41.5zM973 95.5q29 79.5 29 184.5q0 63 -14 124.5t-41 101.5t-63 40q-58 0 -85.5 -83t-27.5 -186q0 -62 13.5 -122.5t39.5 -99.5t62 -39q58 0 87 79.5z" />
    <glyph glyph-name="percent.osf" horiz-adv-x="1068" 
d="M958 923l-367 -470l-335 -485l-153 11l367 471l301 422l-369 6q25 -25 42 -87.5t17 -99.5q0 -68 -34 -125.5t-88 -91t-110 -33.5q-61 0 -113.5 30.5t-83.5 87.5t-31 133q0 67 32.5 124.5t85.5 91.5t111 34q24 0 34 -3l1 -59q-3 2 -10 5.5t-13.5 5t-14.5 1.5
q-54 0 -80 -61t-26 -140q0 -76 29 -134.5t79 -58.5q56 0 84 57t28 137q0 126 -45 236l523 12l139 -4v-13zM948.5 434.5q52.5 -32.5 82 -90t29.5 -130.5q0 -67 -33.5 -123.5t-86.5 -90t-109 -33.5q-61 0 -113.5 30.5t-84.5 87t-32 131.5q0 67 32.5 125t85 92t110.5 34
q67 0 119.5 -32.5zM914.5 80.5q27.5 57.5 27.5 138.5q0 49 -13.5 95t-39 75t-60.5 29q-55 0 -81 -61t-26 -141q0 -48 13 -92.5t37.5 -72.5t58.5 -28q56 0 83.5 57.5z" />
    <glyph glyph-name="lozenge" unicode="&#x25ca;" horiz-adv-x="941" 
d="M474 180l241 292l-243 287l-242 -285z" />
    <glyph glyph-name="at" unicode="@" horiz-adv-x="1325" 
d="M838.5 -205q78.5 22 127 49t119.5 74l-29 51q-26 -22 -84.5 -50t-132 -48t-142.5 -20q-161 0 -278 62.5t-179 176.5t-62 265q0 168 69 309.5t193 224.5t280 83q119 0 221 -52t162.5 -149t60.5 -226q0 -112 -39.5 -202t-105 -140.5t-141.5 -50.5q-17 0 -24 11.5t-7 38.5
q0 23 5 64.5t6 52.5l8 66l42 367l-18 21q-43 10 -77 13.5t-75 3.5q-87 0 -176 -58.5t-147 -165t-58 -241.5q0 -126 44 -195.5t120 -69.5q53 0 110 39t90 88h9q-3 -55 12 -86.5t59 -31.5q133 0 241 71t169 189t61 253q0 134 -69.5 239.5t-187.5 164.5t-258 59
q-206 0 -365.5 -98.5t-247.5 -263t-88 -354.5q0 -183 84.5 -308.5t222 -186.5t297.5 -61q100 0 178.5 22zM738.5 710.5q30.5 -3.5 47.5 -7.5l-54 -455q-28 -32 -79 -60t-89 -28q-84 0 -84 209q0 91 26 170t73 127t105 48q24 0 54.5 -3.5z" />
    <glyph glyph-name="ampersand" unicode="&#x26;" horiz-adv-x="1277" 
d="M529 13q71 33 124 86t104 128l95 -105q53 -59 117.5 -100.5t134.5 -41.5q31 0 53.5 4t52.5 14l10 54l-39 12q-60 19 -148 91.5t-196 200.5l219 367l169 34l8 55h-425l-6 -55l157 -37l-183 -303l-243 276v7q117 78 179.5 154t62.5 162q0 124 -72.5 190t-200.5 66
q-78 0 -146.5 -41.5t-109 -110t-40.5 -145.5q0 -75 41 -150.5t101 -137.5q-141 -91 -219 -189.5t-78 -219.5q0 -86 39 -154t111 -106t166 -38q91 0 162 33zM564.5 1172.5q36.5 -27.5 56 -74.5t19.5 -104q0 -76 -40.5 -130t-121.5 -112q-64 66 -108 137t-44 136q0 46 18.5 86
t53.5 64.5t80 24.5q50 0 86.5 -27.5zM400 626l298 -340q-52 -88 -122.5 -144t-156.5 -56q-66 0 -115.5 34t-76 91t-26.5 126q0 88 51 157.5t138 132.5z" />
    <glyph glyph-name="paragraph" unicode="&#xb6;" horiz-adv-x="1191" 
d="M546 537q-104 0 -178.5 42t-112.5 114t-38 159q0 158 81.5 238.5t254.5 80.5q49 0 90 -2v-1072l-229 -39l-6 -58h365v1245h-265q-123 0 -228.5 -53t-168.5 -146.5t-63 -209.5q0 -204 130.5 -288.5t349.5 -84.5zM1139 -1l9 64l-186 26v1068l173 31l7 57h-302v-1245z" />
    <glyph glyph-name="section" unicode="&#xa7;" horiz-adv-x="850" 
d="M798 318q5 89 -36.5 157t-104.5 114.5t-167 107.5q-93 55 -146.5 93.5t-90.5 91t-37 119.5q0 63 26.5 108t71 68t98.5 23q58 0 113.5 -32t76.5 -72l26 -218l73 -9l27 296q-54 51 -129 78t-158 27q-92 0 -174.5 -39.5t-134 -115t-51.5 -177.5q0 -88 42 -154t102.5 -112
t160.5 -105l35 -21zM591.5 -335.5q96.5 45.5 152 126.5t55.5 184q0 86 -43 150.5t-106 109.5t-165 103l-53 31l-346 207q-5 -88 37 -155t104.5 -113t166.5 -108q88 -53 139 -89t86 -84.5t35 -107.5q0 -70 -35 -119.5t-90 -74t-115 -24.5q-77 0 -144 34.5t-98 88.5l-32 205
l-76 10l-21 -277q50 -62 140 -102.5t194 -40.5q118 0 214.5 45.5z" />
    <glyph glyph-name="copyright" unicode="&#xa9;" horiz-adv-x="1352" 
d="M987.5 65q146.5 86 228.5 236t82 335q0 194 -77.5 345t-220.5 235.5t-333 84.5q-168 0 -309 -86t-223.5 -238.5t-82.5 -343.5q0 -190 75 -338.5t212.5 -232t317.5 -83.5q184 0 330.5 86zM950 1144.5q122 -77.5 188 -213.5t66 -305q0 -159 -71 -288t-194 -202.5
t-273 -73.5t-268 75t-184.5 208t-66.5 299q0 160 68 292t187 209t266 77q160 0 282 -77.5zM812 296.5q72 32.5 106 77.5l-18 39q-80 -66 -183 -66q-75 0 -130 44.5t-84.5 122.5t-29.5 176q0 86 23 148t63.5 94.5t90.5 32.5q56 0 92 -40t62 -112q79 13 79 82q0 56 -47.5 95.5
t-145.5 39.5q-91 0 -167.5 -49.5t-121.5 -141.5t-45 -212q0 -101 37 -183.5t106 -131t163 -48.5q78 0 150 32.5z" />
    <glyph glyph-name="registered" unicode="&#xae;" horiz-adv-x="1065" 
d="M766.5 600.5q114.5 58.5 182 168t67.5 257.5q0 155 -64.5 266.5t-176 169.5t-251.5 58q-133 0 -241.5 -59.5t-171 -172t-62.5 -266.5q0 -142 62 -251.5t168 -169t235 -59.5q138 0 252.5 58.5zM736 1405.5q97 -53.5 152.5 -154t55.5 -235.5q0 -121 -56.5 -215t-153 -145.5
t-212.5 -51.5t-207.5 54t-142.5 152t-51 226q0 135 52.5 230.5t143 144t202.5 48.5q120 0 217 -53.5zM531 817l-85 18v175h73l61 -111q39 -73 75.5 -103.5t89.5 -30.5q40 0 62 8l6 41l-19 7q-32 14 -54 32.5t-63 72.5l-84 107l1 1q60 26 95.5 70.5t35.5 93.5
q0 71 -59.5 105.5t-159.5 34.5q-48 0 -111.5 -6t-116.5 -15l-5 -38l77 -13v-432l-75 -21l-5 -39h256zM491 1285q131 0 131 -104q0 -73 -85 -119h-91v222z" />
    <glyph glyph-name="trademark" unicode="&#x2122;" horiz-adv-x="1138" 
d="M49 1089l52 -5l20 113h139v-454l-77 -18l-3 -41h248l6 44l-82 13v456h145l12 -109l53 -5l15 161h-532zM796 684l5 42l-82 12l32 418l164 -452l70 6l169 458l26 -427l-76 -18l-4 -39h245l2 42l-81 12l-24 450l76 16l4 40h-197l-30 -69l-134 -351l-111 334l-33 86h-202
l-4 -40l83 -17l-35 -446l-75 -18l-4 -39h216z" />
    <glyph glyph-name="degree" unicode="&#xb0;" horiz-adv-x="482" 
d="M324.5 954q44.5 26 71 72t26.5 102q0 84 -43 130t-128 46q-53 0 -97 -27.5t-70 -73t-26 -96.5q0 -86 45.5 -132.5t123.5 -46.5q53 0 97.5 26zM315 1208.5q30 -42.5 30 -103.5q0 -57 -28.5 -90.5t-72.5 -33.5q-51 0 -80.5 42t-29.5 106q0 54 27 88t75 34q49 0 79 -42.5z
" />
    <glyph glyph-name="bar" unicode="|" horiz-adv-x="247" 
d="M171 -380v1628l-96 13v-1628z" />
    <glyph glyph-name="brokenbar" unicode="&#xa6;" horiz-adv-x="241" 
d="M165 529l2 719l-94 9v-720zM168 -380v791l-95 8v-789z" />
    <glyph glyph-name="dagger" unicode="&#x2020;" horiz-adv-x="792" 
d="M348 730l-15 -1081l125 -12l-16 1091l300 -10l6 101l-306 -8l11 433l-113 12l8 -445l-297 8l-9 -96z" />
    <glyph glyph-name="daggerdbl" unicode="&#x2021;" horiz-adv-x="799" 
d="M348 730l4 -231l-7 -333l-280 12l-7 -103l287 10l-10 -438l113 -10l-8 448l306 -10l6 96l-312 -6l-5 264l8 299l298 -11l7 101l-305 -7l11 433l-114 12l8 -445l-295 7l-8 -95z" />
    <glyph glyph-name="asciicircum" unicode="^" horiz-adv-x="743" 
d="M93 797l262 301h10l277 -306l48 32l-294 427l-56 -13l-289 -412z" />
    <glyph glyph-name="ampersand.sc" horiz-adv-x="1127" 
d="M873 462q-86 -161 -143 -245q71 -71 122.5 -103.5t109.5 -49.5l40 -11l-10 -54q-29 -10 -52.5 -14t-54.5 -4q-60 0 -123 33t-120 93q-61 -63 -133.5 -95t-164.5 -32q-80 0 -135 27.5t-82.5 73t-27.5 100.5q0 63 30.5 112.5t76 86t117.5 82.5l-13 15q-50 59 -81 116.5
t-31 114.5q0 58 34.5 112t92.5 87.5t123 33.5q68 0 119 -25t78.5 -67.5t27.5 -95.5q0 -62 -25.5 -109t-66 -81.5t-100.5 -72.5l198 -219q53 80 102 188l-119 36l6 50h358l-7 -50zM350.5 657.5q27.5 -48.5 87.5 -119.5q55 41 85 85t30 100q0 68 -34.5 108.5t-90.5 40.5
q-44 0 -74.5 -33.5t-30.5 -83.5q0 -49 27.5 -97.5zM290.5 114q40.5 -41 104.5 -41q105 0 197 89l-226 252q-56 -42 -86 -88.5t-30 -109.5q0 -61 40.5 -102z" />
    <glyph glyph-name="paragraph.sc" horiz-adv-x="1134" 
d="M519 391q-124 2 -191.5 65t-67.5 167q0 119 69.5 172.5t183.5 53.5q28 0 76 -3v-749l-198 -38l-6 -58h332v921h-179q-123 0 -221.5 -38.5t-156 -113t-57.5 -178.5q0 -138 110 -207.5t289 -69.5zM1054 0l8 63l-154 26v746l143 29l7 58h-272v-922h268z" />
    <glyph glyph-name="acute" unicode="&#xb4;" horiz-adv-x="387" 
d="M128 1346l182 321l-103 39l-128 -330z" />
    <glyph glyph-name="cedilla" unicode="&#xb8;" horiz-adv-x="334" 
d="M220.5 -322.5q52.5 39.5 52.5 95.5q0 44 -25 80.5t-64 70.5l54 79h-67l-91 -131q6 -6 30 -29t37 -45.5t13 -45.5t-30 -49.5t-73 -41.5l16 -51q95 28 147.5 67.5z" />
    <glyph glyph-name="circumflex" unicode="&#x2c6;" horiz-adv-x="559" 
d="M109 1358l149 123h9l173 -122l40 37l-178 186l-55 -14l-168 -180z" />
    <glyph glyph-name="dieresis" unicode="&#xa8;" horiz-adv-x="582" 
d="M209 1405.5q19 21.5 19 59.5q0 36 -20 57t-52 21q-30 0 -50 -21t-20 -57q0 -37 19.5 -59t51.5 -22q33 0 52 21.5zM477.5 1405.5q19.5 21.5 19.5 59.5q0 36 -20.5 57t-52.5 21q-30 0 -49.5 -21t-19.5 -57q0 -37 19 -59t51 -22q33 0 52.5 21.5z" />
    <glyph glyph-name="dotaccent" unicode="&#x2d9;" horiz-adv-x="296" 
d="M212 127q23 29 23 77q0 46 -24 74t-62 28t-61 -28t-23 -74q0 -47 22.5 -76.5t61.5 -29.5q40 0 63 29z" />
    <glyph glyph-name="grave" unicode="`" horiz-adv-x="393" 
d="M263 1332l51 31l-133 335l-104 -37z" />
    <glyph glyph-name="macron" unicode="&#xaf;" horiz-adv-x="610" 
d="M521 1380l10 76h-441l-11 -76h442z" />
    <glyph glyph-name="ring" unicode="&#x2da;" horiz-adv-x="482" 
d="M321.5 1386.5q38.5 24.5 60 65t21.5 85.5q0 72 -43 117.5t-114 45.5q-46 0 -84.5 -23.5t-60.5 -63t-22 -85.5q0 -76 42.5 -121t112.5 -45q49 0 87.5 24.5zM307.5 1616q27.5 -40 27.5 -92q0 -56 -24 -86.5t-66 -30.5q-46 0 -72.5 41t-26.5 92q0 48 22.5 82t66.5 34
q45 0 72.5 -40z" />
    <glyph glyph-name="tilde" unicode="&#x2dc;" horiz-adv-x="625" 
d="M123 1391q9 15 24.5 29t33.5 14q7 0 10 -1l201 -42q12 -3 23 -3q42 0 71.5 31.5t45 68t15.5 42.5l-42 2q-2 -4 -9.5 -17.5t-21.5 -26t-33 -12.5q-4 0 -12 2l-203 42q-8 2 -22 2q-41 0 -69 -31.5t-42 -67t-14 -42.5l33 -10q2 5 11 20z" />
  </font>
</defs>
</svg>
