<?xml version="1.0" standalone="no"?>
<!DOCTYPE svg PUBLIC "-//W3C//DTD SVG 1.1//EN" "http://www.w3.org/Graphics/SVG/1.1/DTD/svg11.dtd" >
<svg xmlns="http://www.w3.org/2000/svg" xmlns:xlink="http://www.w3.org/1999/xlink" version="1.1">
<metadata>
Created by FontForge 20170910 at Mon Nov  7 14:59:08 2016
 By Jimmy Wärting
Copyright 2010 The Neuton Project Authors (http://www.21326.info/), with Reserved Font Name "Neuton".
</metadata>
<defs>
<font id="Neuton-Italic" horiz-adv-x="807" >
  <font-face 
    font-family="Neuton"
    font-weight="400"
    font-style="italic"
    font-stretch="normal"
    units-per-em="2048"
    panose-1="0 0 5 0 0 0 0 0 0 0"
    ascent="1638"
    descent="-410"
    x-height="874"
    cap-height="1244"
    bbox="-143 -416 1877 1763"
    underline-thickness="0"
    underline-position="-361"
    unicode-range="U+000D-25CA"
  />
<missing-glyph horiz-adv-x="1024" 
d="M840 1638v-2048h-650v2048h650zM682 1501h-338v-68h133v-76h-135v-67h340v67h-135v76h135v68zM547 1237h-205v-213h340v69h-135v144zM477 1167v-74h-67v74h67zM682 968h-340v-67h135v-76h-135v-68h205v144h135v67zM682 845h-68v-135h-272v-69h340v204zM682 596h-205v-115
h70v47h67v-96h-204v164h-68v-232h340v232zM682 241h-340v-231h340v231zM614 174v-97h-204v97h204zM682 -37h-340v-68h143l-143 -96v-68h340v68h-209l143 96h66v68z" />
    <glyph glyph-name=".notdef" horiz-adv-x="1024" 
d="M840 1638v-2048h-650v2048h650zM682 1501h-338v-68h133v-76h-135v-67h340v67h-135v76h135v68zM547 1237h-205v-213h340v69h-135v144zM477 1167v-74h-67v74h67zM682 968h-340v-67h135v-76h-135v-68h205v144h135v67zM682 845h-68v-135h-272v-69h340v204zM682 596h-205v-115
h70v47h67v-96h-204v164h-68v-232h340v232zM682 241h-340v-231h340v231zM614 174v-97h-204v97h204zM682 -37h-340v-68h143l-143 -96v-68h340v68h-209l143 96h66v68z" />
    <glyph glyph-name="NULL" horiz-adv-x="0" 
 />
    <glyph glyph-name="NULL" horiz-adv-x="0" 
 />
    <glyph glyph-name="nonmarkingreturn" unicode="&#xd;" horiz-adv-x="380" 
 />
    <glyph glyph-name="space" unicode=" " horiz-adv-x="380" 
 />
    <glyph glyph-name="A" unicode="A" horiz-adv-x="1379" 
d="M827 1237l-603 -1108l-159 -55l-21 -74h469l24 81l-178 43l159 309h419l63 -304l-182 -55l-23 -74h515l22 81l-129 43l-219 1144zM836 1034l86 -501h-352z" />
    <glyph glyph-name="Aacute" unicode="&#xc1;" horiz-adv-x="1379" 
d="M870 1395l183 318l-111 39l-123 -325zM827 1237l-603 -1108l-159 -55l-21 -74h469l24 81l-178 43l159 309h419l63 -304l-182 -55l-23 -74h515l22 81l-129 43l-219 1144zM836 1034l86 -501h-352z" />
    <glyph glyph-name="Acircumflex" unicode="&#xc2;" horiz-adv-x="1379" 
d="M795 1395l139 111h11l163 -110l49 37l-178 186l-55 -15l-168 -179zM827 1237l-603 -1108l-159 -55l-21 -74h469l24 81l-178 43l159 309h419l63 -304l-182 -55l-23 -74h515l22 81l-129 43l-219 1144zM836 1034l86 -501h-352z" />
    <glyph glyph-name="Adieresis" unicode="&#xc4;" horiz-adv-x="1379" 
d="M504 1414q22 -19 52 -19q35 0 63 22.5t34 58.5q1 4 1 12q0 29 -21 47t-52 18q-37 0 -68 -25t-31 -65q0 -30 22 -49zM771.5 1413.5q21.5 -18.5 51.5 -18.5q35 0 64 22.5t35 58.5q1 4 1 11q0 29 -21.5 47.5t-53.5 18.5q-37 0 -67.5 -25t-30.5 -65q0 -31 21.5 -49.5z
M827 1237l-603 -1108l-159 -55l-21 -74h469l24 81l-178 43l159 309h419l63 -304l-182 -55l-23 -74h515l22 81l-129 43l-219 1144zM836 1034l86 -501h-352z" />
    <glyph glyph-name="Agrave" unicode="&#xc0;" horiz-adv-x="1379" 
d="M919 1395l56 35l-132 333l-115 -38zM827 1237l-603 -1108l-159 -55l-21 -74h469l24 81l-178 43l159 309h419l63 -304l-182 -55l-23 -74h515l22 81l-129 43l-219 1144zM836 1034l86 -501h-352z" />
    <glyph glyph-name="Aring" unicode="&#xc5;" horiz-adv-x="1379" 
d="M1332 81l-22 -81h-515l23 74l182 55l-63 304h-419l-159 -309l178 -43l-24 -81h-469l21 74l159 55l603 1108l128 25q-67 5 -111 50t-44 116q0 45 25.5 84.5t67 63.5t87.5 24q47 0 85.5 -21.5t60.5 -58.5t22 -83q0 -42 -21.5 -80.5t-59 -64t-82.5 -29.5l218 -1139z
M912 1352.5q22 -35.5 67 -35.5q41 0 60.5 26.5t19.5 81.5q0 51 -23 86t-67 35q-41 0 -60 -30t-19 -77q0 -51 22 -86.5zM570 533h352l-86 501z" />
    <glyph glyph-name="Atilde" unicode="&#xc3;" horiz-adv-x="1379" 
d="M780 1411.5q9 12.5 22.5 23.5t25.5 9l225 -32q4 -1 11 -1q40 0 69.5 32t46.5 69.5t17 42.5l-49 2q-2 -3 -11 -13.5t-21.5 -19t-23.5 -7.5l-226 29l-11 1q-39 0 -67 -32t-43 -68.5t-15 -42.5l39 -9q2 4 11 16.5zM827 1237l-603 -1108l-159 -55l-21 -74h469l24 81l-178 43
l159 309h419l63 -304l-182 -55l-23 -74h515l22 81l-129 43l-219 1144zM836 1034l86 -501h-352z" />
    <glyph glyph-name="AE" unicode="&#xc6;" horiz-adv-x="1919" 
d="M499 1l26 82l-181 43l273 346h359l-56 -351l-174 -47l-20 -74h971l79 313l-77 16l-138 -233h-464l78 490h243l6 -177l87 15l95 386l-96 -8l-62 -123h-259l75 473h438l9 -212l84 -13l82 317h-1062l-22 -76l207 -42l-790 -995l-145 -55l-21 -75h455zM1068 1058l-77 -490
h-307z" />
    <glyph glyph-name="B" unicode="B" horiz-adv-x="1219" 
d="M1122 1124q-41 60 -128.5 96.5t-220.5 36.5q-117 0 -229 -12t-271 -34l-23 -76l165 -30l-172 -984l-177 -47l-23 -74h484q210 0 355 60.5t216 154.5t71 196q0 63 -30.5 121t-91 96.5t-147.5 43.5l2 8q93 32 151.5 84.5t84 112t25.5 116.5q0 71 -41 131zM902.5 1105.5
q62.5 -65.5 62.5 -159.5q0 -79 -27.5 -137t-77.5 -89t-117 -31h-208l83 475q39 7 81 7q141 0 203.5 -65.5zM931 242q-37 -65 -112.5 -105.5t-185.5 -40.5h-203l89 508h223q73 0 124 -32t76.5 -83t25.5 -109q0 -73 -37 -138z" />
    <glyph glyph-name="C" unicode="C" horiz-adv-x="1190" 
d="M340 892q64 136 170 209t228 73q88 0 145.5 -35.5t89.5 -88.5l8 -219l84 -14l83 332q-65 56 -151.5 88.5t-182.5 32.5q-241 0 -413.5 -111.5t-260 -282t-87.5 -341.5q0 -164 68 -292t184 -198t253 -70q318 0 506 210l-43 55q-88 -78 -174 -106t-185 -28
q-108 0 -195.5 54.5t-139 160t-51.5 254.5q0 181 64 317z" />
    <glyph glyph-name="Ccaron" unicode="&#x10c;" horiz-adv-x="1153" 
d="M867 1361l57 15l201 179l-39 30l-145 -140h-11l-126 144l-90 -62zM840.5 7q95.5 31 173 78.5t128.5 99.5l-23 76q-80 -65 -179.5 -107.5t-193.5 -42.5q-106 0 -191.5 48.5t-135.5 144t-50 230.5q0 61 10 124q25 157 92.5 274t162 179.5t199.5 62.5q92 0 152 -28t89 -76
l8 -220l86 -13l83 332q-60 52 -150 76t-196 24q-215 0 -376.5 -103.5t-255.5 -260t-119 -316.5q-10 -60 -10 -120q0 -156 67 -267.5t181.5 -168.5t254.5 -57q98 0 193.5 31z" />
    <glyph glyph-name="Ccedilla" unicode="&#xc7;" horiz-adv-x="1190" 
d="M510 1101q-106 -73 -170 -209t-64 -317q0 -149 51.5 -254.5t139 -160t195.5 -54.5q99 0 185 28t174 106l43 -55q-176 -196 -463 -209l-45 -67q39 -34 64 -70.5t25 -80.5q0 -56 -53 -95t-148 -67l-19 58q41 14 63.5 36.5t22.5 46.5q0 40 -74 110l90 129q-131 8 -239 80
t-171.5 196.5t-63.5 282.5q0 171 87.5 341.5t260 282t413.5 111.5q96 0 182.5 -32.5t151.5 -88.5l-83 -332l-84 14l-8 219q-32 53 -89.5 88.5t-145.5 35.5q-122 0 -228 -73z" />
    <glyph glyph-name="D" unicode="D" horiz-adv-x="1462" 
d="M256 1209l-21 -76l167 -30l-152 -974l-182 -55l-25 -74h481q261 0 464.5 107.5t315.5 282t112 368.5q0 139 -62.5 251.5t-205.5 180.5t-372 68q-202 0 -520 -49zM982.5 1093.5q105.5 -62.5 157 -171t51.5 -248.5q0 -158 -75 -288t-213 -206t-320 -76h-147l165 1045
q57 7 121 7q155 0 260.5 -62.5z" />
    <glyph glyph-name="Eth" unicode="&#xd0;" horiz-adv-x="1473" 
d="M249 129l-180 -55l-26 -74h513q258 0 456 96.5t306.5 264t108.5 374.5q0 142 -63 260t-208 191.5t-377 73.5q-202 0 -521 -49l-21 -77l167 -30l-70 -444l-172 -13l-25 -92l182 14zM761 602l27 91l-262 -21l76 479q62 6 123 6q157 0 264.5 -62.5t160.5 -168.5t53 -237
q0 -165 -65 -298t-190.5 -210t-299.5 -77h-212l76 477z" />
    <glyph glyph-name="E" unicode="E" horiz-adv-x="1259" 
d="M220 1168l177 -42l-159 -1005l-175 -47l-20 -74h1026l61 314l-83 11l-113 -229h-507l77 487h276l7 -175l87 13l83 388l-96 -13l-51 -119h-291l73 476h452l20 -215l84 -13l69 319h-975z" />
    <glyph glyph-name="Eacute" unicode="&#xc9;" horiz-adv-x="1259" 
d="M660 1395l183 318l-111 39l-123 -325zM220 1168l177 -42l-159 -1005l-175 -47l-20 -74h1026l61 314l-83 11l-113 -229h-507l77 487h276l7 -175l87 13l83 388l-96 -13l-51 -119h-291l73 476h452l20 -215l84 -13l69 319h-975z" />
    <glyph glyph-name="Ecaron" unicode="&#x11a;" horiz-adv-x="1142" 
d="M781 1361l57 15l200 179l-39 30l-146 -140h-9l-126 144l-90 -62zM410 1126l-159 -1005l-174 -47l-20 -74h1015l80 313l-81 13l-135 -230h-495l77 487h274l7 -175l87 13l95 389l-97 -14l-61 -120h-290l75 476h471l7 -215l85 -13l82 320h-995l-23 -76z" />
    <glyph glyph-name="Ecircumflex" unicode="&#xca;" horiz-adv-x="1259" 
d="M584 1395l139 111h11l163 -110l49 37l-178 186l-55 -15l-168 -179zM220 1168l177 -42l-159 -1005l-175 -47l-20 -74h1026l61 314l-83 11l-113 -229h-507l77 487h276l7 -175l87 13l83 388l-96 -13l-51 -119h-291l73 476h452l20 -215l84 -13l69 319h-975z" />
    <glyph glyph-name="Edieresis" unicode="&#xcb;" horiz-adv-x="1259" 
d="M293 1414q22 -19 52 -19q35 0 63 22.5t34 58.5q1 4 1 12q0 29 -21 47t-52 18q-37 0 -68 -25t-31 -65q0 -30 22 -49zM560.5 1413.5q21.5 -18.5 51.5 -18.5q35 0 64 22.5t35 58.5q1 4 1 11q0 29 -21.5 47.5t-53.5 18.5q-37 0 -67.5 -25t-30.5 -65q0 -31 21.5 -49.5z
M220 1168l177 -42l-159 -1005l-175 -47l-20 -74h1026l61 314l-83 11l-113 -229h-507l77 487h276l7 -175l87 13l83 388l-96 -13l-51 -119h-291l73 476h452l20 -215l84 -13l69 319h-975z" />
    <glyph glyph-name="Egrave" unicode="&#xc8;" horiz-adv-x="1259" 
d="M709 1395l56 35l-132 333l-115 -38zM220 1168l177 -42l-159 -1005l-175 -47l-20 -74h1026l61 314l-83 11l-113 -229h-507l77 487h276l7 -175l87 13l83 388l-96 -13l-51 -119h-291l73 476h452l20 -215l84 -13l69 319h-975z" />
    <glyph glyph-name="F" unicode="F" horiz-adv-x="1116" 
d="M220 1168l177 -42l-159 -1005l-175 -47l-20 -74h592l26 84l-231 38l72 456h275l4 -180l91 15l75 391l-91 -13l-51 -121h-288l75 483h465l24 -217l86 -13l69 321h-994z" />
    <glyph glyph-name="G" unicode="G" horiz-adv-x="1319" 
d="M456.5 1167q-178.5 -93 -291 -268.5t-112.5 -409.5q0 -144 53 -261.5t164.5 -188t278.5 -70.5q163 0 297 31.5t220 87.5l54 351l132 42l24 74h-557l-25 -83l230 -38l-48 -312q-24 -20 -71 -33t-119 -13q-134 0 -225 64.5t-135.5 174t-44.5 244.5q0 211 68 345.5
t176.5 195.5t233.5 61t202 -33.5t108 -80.5l5 -192l86 -14l76 322q-69 50 -168 73.5t-243 23.5q-190 0 -368.5 -93z" />
    <glyph glyph-name="H" unicode="H" horiz-adv-x="1650" 
d="M611 81l-180 33l75 476h629l-74 -469l-174 -47l-23 -74h543l24 81l-177 33l160 1016l172 38l23 76h-545l-23 -76l178 -42l-69 -434h-628l70 438l173 38l22 76h-545l-22 -76l177 -42l-159 -1005l-175 -47l-20 -74h542z" />
    <glyph glyph-name="I" unicode="I" horiz-adv-x="828" 
d="M607 81l-177 33l160 1016l175 38l22 76h-545l-22 -76l177 -42l-159 -1005l-175 -47l-20 -74h540z" />
    <glyph glyph-name="Iacute" unicode="&#xcd;" horiz-adv-x="828" 
d="M435 1395l183 318l-111 39l-123 -325zM607 81l-177 33l160 1016l175 38l22 76h-545l-22 -76l177 -42l-159 -1005l-175 -47l-20 -74h540z" />
    <glyph glyph-name="Icircumflex" unicode="&#xce;" horiz-adv-x="828" 
d="M359 1395l139 111h11l163 -110l49 37l-178 186l-55 -15l-168 -179zM607 81l-177 33l160 1016l175 38l22 76h-545l-22 -76l177 -42l-159 -1005l-175 -47l-20 -74h540z" />
    <glyph glyph-name="Idieresis" unicode="&#xcf;" horiz-adv-x="828" 
d="M68 1414q22 -19 52 -19q35 0 63 22.5t34 58.5q1 4 1 12q0 29 -21 47t-52 18q-37 0 -68 -25t-31 -65q0 -30 22 -49zM335.5 1413.5q21.5 -18.5 51.5 -18.5q35 0 64 22.5t35 58.5q1 4 1 11q0 29 -21.5 47.5t-53.5 18.5q-37 0 -67.5 -25t-30.5 -65q0 -31 21.5 -49.5zM607 81
l-177 33l160 1016l175 38l22 76h-545l-22 -76l177 -42l-159 -1005l-175 -47l-20 -74h540z" />
    <glyph glyph-name="Igrave" unicode="&#xcc;" horiz-adv-x="828" 
d="M484 1395l56 35l-132 333l-115 -38zM607 81l-177 33l160 1016l175 38l22 76h-545l-22 -76l177 -42l-159 -1005l-175 -47l-20 -74h540z" />
    <glyph glyph-name="J" unicode="J" horiz-adv-x="927" 
d="M690 1130l175 38l20 76h-545l-20 -76l175 -42l-149 -929q-18 -116 -91.5 -218t-212.5 -217q12 -46 42 -87q172 102 260.5 178.5t139 182t78.5 282.5z" />
    <glyph glyph-name="K" unicode="K" horiz-adv-x="1387" 
d="M595 1121l179 47l21 76h-550l-25 -76l182 -50l-155 -989l-182 -55l-21 -74h553l25 81l-182 43zM1239 2l22 69l-35 12q-60 20 -107 54.5t-93.5 90t-111.5 150.5l-183 266l454 477l183 47l23 76h-497l-20 -76l156 -47l-355 -384q-28 -29 -63.5 -58.5t-64.5 -49.5l-4 -25
q16 -16 39 -50t30 -45l135 -248q75 -135 159 -208.5t200 -73.5q68 0 133 23z" />
    <glyph glyph-name="L" unicode="L" horiz-adv-x="1149" 
d="M238 1244l-25 -76l182 -50l-157 -997l-175 -47l-20 -74h999l59 330l-84 14l-138 -248h-453l162 1025l178 47l22 76h-550z" />
    <glyph glyph-name="M" unicode="M" horiz-adv-x="1832" 
d="M893 51l492 953l-41 -883l-173 -47l-24 -74h535l24 81l-177 33l67 1016l174 38l21 76h-400l-99 -161l-391 -773l-175 740l-56 194h-393l-23 -76l178 -42l-191 -1005l-175 -47l-23 -74h480l27 81l-180 33l158 852l238 -935z" />
    <glyph glyph-name="N" unicode="N" horiz-adv-x="1580" 
d="M1164 2l178 1128l172 38l25 76h-476l-23 -76l180 -42l-135 -864l-494 982h-348l-22 -76l175 -50l-157 -997l-175 -47l-20 -74h476l23 81l-178 33l134 847l505 -991z" />
    <glyph glyph-name="Ntilde" unicode="&#xd1;" horiz-adv-x="1580" 
d="M720 1411.5q9 12.5 22.5 23.5t25.5 9l225 -32q4 -1 11 -1q40 0 69.5 32t46.5 69.5t17 42.5l-49 2q-2 -3 -11 -13.5t-21.5 -19t-23.5 -7.5l-226 29l-11 1q-39 0 -67 -32t-43 -68.5t-15 -42.5l39 -9q2 4 11 16.5zM1164 2l178 1128l172 38l25 76h-476l-23 -76l180 -42
l-135 -864l-494 982h-348l-22 -76l175 -50l-157 -997l-175 -47l-20 -74h476l23 81l-178 33l134 847l505 -991z" />
    <glyph glyph-name="O" unicode="O" horiz-adv-x="1344" 
d="M394.5 1176.5q-164.5 -96.5 -252.5 -268t-88 -393.5q0 -156 55.5 -278t171 -192.5t287.5 -70.5q227 0 392 102.5t251 274t86 374.5q0 150 -57.5 274.5t-173.5 199t-284 74.5q-223 0 -387.5 -96.5zM979 264.5q-94 -185.5 -365 -185.5q-109 0 -183.5 66t-111 173t-36.5 229
q0 164 30.5 299.5t131 232.5t292.5 97q109 0 185 -70t113.5 -180.5t37.5 -232.5q0 -243 -94 -428.5z" />
    <glyph glyph-name="Oacute" unicode="&#xd3;" horiz-adv-x="1344" 
d="M794 1395l183 318l-111 39l-123 -325zM394.5 1176.5q-164.5 -96.5 -252.5 -268t-88 -393.5q0 -156 55.5 -278t171 -192.5t287.5 -70.5q227 0 392 102.5t251 274t86 374.5q0 150 -57.5 274.5t-173.5 199t-284 74.5q-223 0 -387.5 -96.5zM979 264.5q-94 -185.5 -365 -185.5
q-109 0 -183.5 66t-111 173t-36.5 229q0 164 30.5 299.5t131 232.5t292.5 97q109 0 185 -70t113.5 -180.5t37.5 -232.5q0 -243 -94 -428.5z" />
    <glyph glyph-name="Ocircumflex" unicode="&#xd4;" horiz-adv-x="1344" 
d="M719 1395l139 111h11l163 -110l49 37l-178 186l-55 -15l-168 -179zM394.5 1176.5q-164.5 -96.5 -252.5 -268t-88 -393.5q0 -156 55.5 -278t171 -192.5t287.5 -70.5q227 0 392 102.5t251 274t86 374.5q0 150 -57.5 274.5t-173.5 199t-284 74.5q-223 0 -387.5 -96.5z
M979 264.5q-94 -185.5 -365 -185.5q-109 0 -183.5 66t-111 173t-36.5 229q0 164 30.5 299.5t131 232.5t292.5 97q109 0 185 -70t113.5 -180.5t37.5 -232.5q0 -243 -94 -428.5z" />
    <glyph glyph-name="Odieresis" unicode="&#xd6;" horiz-adv-x="1344" 
d="M428 1414q22 -19 52 -19q35 0 63 22.5t34 58.5q1 4 1 12q0 29 -21 47t-52 18q-37 0 -68 -25t-31 -65q0 -30 22 -49zM695.5 1413.5q21.5 -18.5 51.5 -18.5q35 0 64 22.5t35 58.5q1 4 1 11q0 29 -21.5 47.5t-53.5 18.5q-37 0 -67.5 -25t-30.5 -65q0 -31 21.5 -49.5z
M394.5 1176.5q-164.5 -96.5 -252.5 -268t-88 -393.5q0 -156 55.5 -278t171 -192.5t287.5 -70.5q227 0 392 102.5t251 274t86 374.5q0 150 -57.5 274.5t-173.5 199t-284 74.5q-223 0 -387.5 -96.5zM979 264.5q-94 -185.5 -365 -185.5q-109 0 -183.5 66t-111 173t-36.5 229
q0 164 30.5 299.5t131 232.5t292.5 97q109 0 185 -70t113.5 -180.5t37.5 -232.5q0 -243 -94 -428.5z" />
    <glyph glyph-name="Ograve" unicode="&#xd2;" horiz-adv-x="1344" 
d="M843 1395l56 35l-132 333l-115 -38zM394.5 1176.5q-164.5 -96.5 -252.5 -268t-88 -393.5q0 -156 55.5 -278t171 -192.5t287.5 -70.5q227 0 392 102.5t251 274t86 374.5q0 150 -57.5 274.5t-173.5 199t-284 74.5q-223 0 -387.5 -96.5zM979 264.5q-94 -185.5 -365 -185.5
q-109 0 -183.5 66t-111 173t-36.5 229q0 164 30.5 299.5t131 232.5t292.5 97q109 0 185 -70t113.5 -180.5t37.5 -232.5q0 -243 -94 -428.5z" />
    <glyph glyph-name="Oslash" unicode="&#xd8;" horiz-adv-x="1344" 
d="M1203 353q-94 -172 -267 -275.5t-398 -103.5q-107 0 -195 38l-60 -94l-162 -9l110 172q-86 74 -131.5 188t-45.5 252q0 213 96.5 384.5t269 269.5t392.5 98q86 0 163 -25l48 76l167 8l-95 -147q98 -72 150 -194t52 -268q0 -198 -94 -370zM382 990.5
q-99 -185.5 -99 -433.5q0 -96 17 -181t53 -148l568 890q-74 58 -174 58q-266 0 -365 -185.5zM893.5 178.5q104.5 99.5 142 238t37.5 281.5q0 103 -22.5 195t-68.5 159l-575 -897q79 -76 197 -76q185 0 289.5 99.5z" />
    <glyph glyph-name="Otilde" unicode="&#xd5;" horiz-adv-x="1344" 
d="M704 1411.5q9 12.5 22.5 23.5t25.5 9l225 -32q4 -1 11 -1q40 0 69.5 32t46.5 69.5t17 42.5l-49 2q-2 -3 -11 -13.5t-21.5 -19t-23.5 -7.5l-226 29l-11 1q-39 0 -67 -32t-43 -68.5t-15 -42.5l39 -9q2 4 11 16.5zM394.5 1176.5q-164.5 -96.5 -252.5 -268t-88 -393.5
q0 -156 55.5 -278t171 -192.5t287.5 -70.5q227 0 392 102.5t251 274t86 374.5q0 150 -57.5 274.5t-173.5 199t-284 74.5q-223 0 -387.5 -96.5zM979 264.5q-94 -185.5 -365 -185.5q-109 0 -183.5 66t-111 173t-36.5 229q0 164 30.5 299.5t131 232.5t292.5 97q109 0 185 -70
t113.5 -180.5t37.5 -232.5q0 -243 -94 -428.5z" />
    <glyph glyph-name="OE" unicode="&#x152;" horiz-adv-x="1708" 
d="M798 0h841l79 313l-81 13l-135 -230h-492l77 487h272l6 -175l89 13l93 389l-96 -14l-61 -120h-288l75 476h469l6 -215l84 -13l83 320h-777q-74 28 -181 28q-193 0 -339.5 -81t-237.5 -228t-122 -344q-13 -78 -13 -155q0 -147 49.5 -257.5t148 -172t239.5 -61.5
q96 0 212 27zM980 1126l-159 -1004q-82 -43 -175 -43q-141 0 -204.5 118t-63.5 298q0 84 15 181q40 251 140.5 375.5t263.5 124.5q107 0 183 -50z" />
    <glyph glyph-name="P" unicode="P" horiz-adv-x="1227" 
d="M251 1211l-21 -76l165 -30l-154 -984l-176 -47l-22 -74h593l26 84l-229 38l163 1046q11 1 46.5 3t61.5 2q133 0 199.5 -73t66.5 -193q0 -162 -90 -244t-277 -82h-53l7 -82q72 -9 114 -9q136 0 253.5 52.5t188.5 151.5t71 232q0 116 -61 189.5t-162 106.5t-226 33
q-194 0 -484 -44z" />
    <glyph glyph-name="Thorn" unicode="&#xde;" horiz-adv-x="1194" 
d="M240 119l-175 -46l-22 -74h593l26 84l-231 38l127 798q11 1 46.5 4t60.5 3q90 0 150.5 -37t89.5 -97.5t29 -132.5q0 -163 -94.5 -236.5t-269.5 -73.5q-17 0 -55 2l3 -85q59 -6 116 -6q134 0 251.5 52t190 152t72.5 238q0 111 -61 183t-162.5 105.5t-226.5 33.5
q-24 0 -76 -2q-32 -2 -48 -2l17 110l177 38l22 76h-543l-23 -76l176 -42z" />
    <glyph glyph-name="Q" unicode="Q" horiz-adv-x="1362" 
d="M1001.5 -378q43.5 7 90.5 28q14 26 24 74q-136 23 -215.5 59.5t-118 86.5t-58.5 123q177 41 311 147.5t207 258t73 324.5q0 147 -59.5 272.5t-176.5 201.5t-282 76q-221 0 -389.5 -95.5t-261 -267.5t-92.5 -395q0 -150 62 -274t175 -195.5t260 -71.5q13 0 30 1.5t24 3.5
q-2 -26 -2 -39q0 -99 40.5 -173t110 -113t155.5 -39q49 0 92.5 7zM1067.5 428q-31.5 -118 -127 -217t-274.5 -143q-144 8 -233 82t-127.5 182.5t-38.5 227.5q0 181 59 318.5t169.5 213.5t258.5 76q107 0 185 -68.5t119 -180.5t41 -239q0 -134 -31.5 -252z" />
    <glyph glyph-name="R" unicode="R" horiz-adv-x="1296" 
d="M504 1241q-111 -12 -252 -34l-23 -76l167 -29l-154 -981l-176 -47l-22 -74h548l24 83l-180 43l62 411h174l115 -284q54 -130 127.5 -202t184.5 -72q67 0 124 19l25 70l-30 10q-57 20 -95.5 51t-70 78t-85.5 141l-138 250l-2 1q108 37 183 96t112.5 131.5t37.5 151.5
q0 142 -117 208.5t-327 66.5q-101 0 -212 -12zM597 1164q9 1 43.5 3t78.5 2q114 0 175.5 -59t61.5 -167q0 -85 -41 -157.5t-106 -115t-132 -42.5h-166z" />
    <glyph glyph-name="Rcaron" unicode="&#x158;" horiz-adv-x="1208" 
d="M769 1361l57 15l201 179l-39 30l-145 -140h-10l-127 144l-90 -62zM621 83l-181 43l65 411h174l114 -284q52 -129 127 -201.5t186 -72.5q62 0 123 20l26 68l-32 10q-57 18 -95 49.5t-68 77t-87 145.5l-140 249v1q96 32 169.5 88t117.5 123t54 133q5 32 5 54
q0 136 -120 196t-338 60q-100 0 -210 -12t-253 -34l-22 -77l166 -30l-155 -979l-174 -47l-23 -74h548zM647 1167q34 2 78 2q114 0 176 -61t62 -163q0 -25 -5 -58q-15 -99 -83.5 -165t-157.5 -94h-198l85 536q9 1 43 3z" />
    <glyph glyph-name="S" unicode="S" horiz-adv-x="944" 
d="M783.5 1246.5q-72.5 23.5 -148.5 23.5q-113 0 -215.5 -46t-166.5 -134.5t-64 -209.5q0 -83 39 -146t94.5 -106t143.5 -97q69 -43 109 -72t66.5 -65.5t26.5 -81.5q0 -76 -42.5 -129t-105.5 -79t-126 -26q-70 0 -119 29.5t-71 79.5l-6 188l-99 15l-57 -268
q21 -41 67.5 -74.5t111 -53t134.5 -19.5q128 0 245.5 49.5t191 142t73.5 213.5q0 83 -39 145.5t-94 105.5t-144 99q-73 45 -115.5 76.5t-70.5 71.5t-28 90q0 108 60.5 162t152.5 54q39 0 72.5 -16.5t55.5 -39t26 -38.5l-3 -192l97 -11l66 282q-45 54 -117.5 77.5z" />
    <glyph glyph-name="Scaron" unicode="&#x160;" horiz-adv-x="900" 
d="M649 1360l57 13l201 180l-38 31l-146 -141h-10l-127 144l-89 -61zM623 23.5q110 47.5 186.5 133.5t93.5 197q4 24 4 52q0 77 -37 134t-89.5 95t-140.5 88q-77 44 -120 74.5t-72.5 72t-29.5 94.5q0 15 3 31q14 94 73 142t139 48q37 0 70 -15.5t55.5 -38t29.5 -41.5
l-6 -191l97 -12q10 43 33 139t34 143q-103 100 -266 100q-101 0 -197 -42t-163.5 -122t-84.5 -189q-4 -24 -4 -52q0 -78 37.5 -136t90.5 -97.5t141 -91.5q71 -42 112.5 -71.5t69.5 -68t28 -85.5q0 -9 -2 -27q-11 -70 -54 -117t-101 -70t-115 -23q-66 0 -116 32t-72 78
l-10 188l-99 14l-56 -267q41 -63 125.5 -104.5t187.5 -41.5q115 0 225 47.5z" />
    <glyph glyph-name="uni1E9E" unicode="&#x1e9e;" horiz-adv-x="1394" 
d="M528 774q61 387 350 387q57 0 86 -3l-2 -3q-72 -16 -134 -62.5t-103.5 -115t-54.5 -148.5q-4 -24 -4 -52q0 -74 35 -127.5t84 -88.5t130 -80q66 -36 104.5 -62t64.5 -61.5t26 -81.5q0 -8 -2 -26q-27 -174 -229 -174q-66 0 -120 31.5t-75 76.5l-7 177l-92 15l-54 -255
q30 -67 115.5 -106t193.5 -39q114 0 212.5 38.5t164.5 115.5t83 186q4 24 4 52q0 73 -33.5 126t-82 88t-127.5 80q-71 41 -112 69.5t-68.5 69t-27.5 93.5q0 16 3 34q8 48 39.5 90.5t75 68t85.5 25.5q53 0 83 -30t43 -71.5t27 -113.5q65 21 98.5 51t42.5 84q2 16 2 23
q0 73 -70 116.5t-171.5 61t-205.5 17.5q-231 0 -380 -122.5t-190 -376.5l-100 -632l-171 -46l-20 -73h363z" />
    <glyph glyph-name="T" unicode="T" horiz-adv-x="1242" 
d="M46 923l90 -13l91 243h295l-162 -1032l-176 -47l-22 -74h540l27 81l-179 33l164 1039h304l3 -231l92 -15l86 337h-1111z" />
    <glyph glyph-name="U" unicode="U" horiz-adv-x="1458" 
d="M417 1130l175 38l19 76h-541l-23 -76l180 -42l-104 -657q-10 -63 -10 -121q0 -211 120.5 -292.5t283.5 -81.5q513 0 600 525l104 631l173 38l22 76h-479l-20 -76l175 -42l-102 -645q-16 -102 -51 -185.5t-116 -143.5t-220 -60t-217 72t-78 222q0 50 9 108z" />
    <glyph glyph-name="Uacute" unicode="&#xda;" horiz-adv-x="1458" 
d="M820 1395l183 318l-111 39l-123 -325zM417 1130l175 38l19 76h-541l-23 -76l180 -42l-104 -657q-10 -63 -10 -121q0 -211 120.5 -292.5t283.5 -81.5q513 0 600 525l104 631l173 38l22 76h-479l-20 -76l175 -42l-102 -645q-16 -102 -51 -185.5t-116 -143.5t-220 -60
t-217 72t-78 222q0 50 9 108z" />
    <glyph glyph-name="Ucircumflex" unicode="&#xdb;" horiz-adv-x="1458" 
d="M745 1395l139 111h11l163 -110l49 37l-178 186l-55 -15l-168 -179zM417 1130l175 38l19 76h-541l-23 -76l180 -42l-104 -657q-10 -63 -10 -121q0 -211 120.5 -292.5t283.5 -81.5q513 0 600 525l104 631l173 38l22 76h-479l-20 -76l175 -42l-102 -645q-16 -102 -51 -185.5
t-116 -143.5t-220 -60t-217 72t-78 222q0 50 9 108z" />
    <glyph glyph-name="Udieresis" unicode="&#xdc;" horiz-adv-x="1458" 
d="M453 1414q22 -19 52 -19q35 0 63 22.5t34 58.5q1 4 1 12q0 29 -21 47t-52 18q-37 0 -68 -25t-31 -65q0 -30 22 -49zM720.5 1413.5q21.5 -18.5 51.5 -18.5q35 0 64 22.5t35 58.5q1 4 1 11q0 29 -21.5 47.5t-53.5 18.5q-37 0 -67.5 -25t-30.5 -65q0 -31 21.5 -49.5z
M417 1130l175 38l19 76h-541l-23 -76l180 -42l-104 -657q-10 -63 -10 -121q0 -211 120.5 -292.5t283.5 -81.5q513 0 600 525l104 631l173 38l22 76h-479l-20 -76l175 -42l-102 -645q-16 -102 -51 -185.5t-116 -143.5t-220 -60t-217 72t-78 222q0 50 9 108z" />
    <glyph glyph-name="Ugrave" unicode="&#xd9;" horiz-adv-x="1458" 
d="M869 1395l56 35l-132 333l-115 -38zM417 1130l175 38l19 76h-541l-23 -76l180 -42l-104 -657q-10 -63 -10 -121q0 -211 120.5 -292.5t283.5 -81.5q513 0 600 525l104 631l173 38l22 76h-479l-20 -76l175 -42l-102 -645q-16 -102 -51 -185.5t-116 -143.5t-220 -60t-217 72
t-78 222q0 50 9 108z" />
    <glyph glyph-name="V" unicode="V" horiz-adv-x="1384" 
d="M663 5l524 1125l135 38l20 76h-456l-20 -76l177 -42l-403 -886l-238 890l174 38l21 76h-527l-21 -76l139 -42l320 -1151z" />
    <glyph glyph-name="W" unicode="W" horiz-adv-x="1910" 
d="M1235 5l483 1125l127 38l23 76h-449l-23 -76l175 -42l-343 -857l-142 950l-181 -25l-394 -942l-127 878l173 38l25 76h-514l-19 -76l132 -42l187 -1151l165 30l395 946l148 -976z" />
    <glyph glyph-name="X" unicode="X" horiz-adv-x="1460" 
d="M1266 1130l132 38l20 76h-452l-23 -76l181 -42l-328 -401l-192 396l178 47l24 76h-527l-23 -76l125 -50l258 -491l-441 -506l-129 -47l-25 -74h453l23 81l-177 33l347 422l213 -415l-175 -47l-25 -74h514l26 81l-134 33l-258 523z" />
    <glyph glyph-name="Y" unicode="Y" horiz-adv-x="1225" 
d="M1033 1130l128 38l22 76h-444l-22 -76l177 -42l-300 -485l-200 489l163 38l23 76h-507l-24 -76l130 -42l258 -621l-61 -384l-159 -47l-21 -74h507l23 81l-159 33l65 414z" />
    <glyph glyph-name="Yacute" unicode="&#xdd;" horiz-adv-x="1225" 
d="M726 1395l183 318l-111 39l-123 -325zM1033 1130l128 38l22 76h-444l-22 -76l177 -42l-300 -485l-200 489l163 38l23 76h-507l-24 -76l130 -42l258 -621l-61 -384l-159 -47l-21 -74h507l23 81l-159 33l65 414z" />
    <glyph glyph-name="Ydieresis" unicode="&#x178;" horiz-adv-x="1123" 
d="M407 1403q22 -19 52 -19q35 0 63 22.5t34 58.5q1 4 1 12q0 29 -21 47t-52 18q-37 0 -68 -25t-31 -65q0 -30 22 -49zM674.5 1402.5q21.5 -18.5 51.5 -18.5q35 0 64 22.5t35 58.5q1 4 1 11q0 29 -21.5 47.5t-53.5 18.5q-37 0 -67.5 -25t-30.5 -65q0 -31 21.5 -49.5z
M981 1130l128 38l22 76h-444l-22 -76l177 -42l-300 -485l-200 489l163 38l23 76h-507l-24 -76l130 -42l258 -621l-61 -384l-159 -47l-21 -74h507l23 81l-159 33l65 414z" />
    <glyph glyph-name="Z" unicode="Z" horiz-adv-x="1223" 
d="M222 922l87 -19l98 246h516l-869 -1045l-9 -104h957l79 335l-91 15l-132 -249h-590l902 1067l11 76h-918z" />
    <glyph glyph-name="Zcaron" unicode="&#x17d;" horiz-adv-x="1096" 
d="M736 1361l57 15l201 179l-39 30l-145 -140h-10l-125 144l-92 -62zM55 0h936l110 335l-90 16l-163 -251h-570l933 1068l12 76h-928l-61 -323l87 -18l116 246h537l-911 -1045z" />
    <glyph glyph-name="uni1E9E.alt" horiz-adv-x="1387" 
d="M515 700q28 174 75 275t116.5 143.5t170.5 42.5q27 0 114 -9.5t112 -21.5l-1 -5l-389 -438l15 -48l72 -44q97 -59 159 -102.5t107 -98.5t45 -115q0 -73 -35 -118.5t-88 -65t-110 -19.5q-64 0 -112.5 34t-71.5 82l-9 185l-99 15l-55 -263q31 -68 116 -110.5t192 -42.5
q120 0 227 43.5t174 130.5t67 211q0 83 -43 149t-98 109.5t-132 90.5q-45 28 -62 41l362 391l10 71q-41 14 -178.5 25.5t-261.5 11.5q-156 0 -272.5 -54t-196 -180t-112.5 -338l-88 -559l-172 -46l-20 -73h363z" />
    <glyph glyph-name="a" unicode="a" 
d="M735 832q-42 53 -201 53q-116 0 -234.5 -73.5t-197 -212.5t-78.5 -325q0 -90 24.5 -157t70 -102.5t106.5 -35.5q72 0 136 43.5t100 109.5h12q-6 -21 -6 -39q0 -50 36 -80t95 -30q65 0 151 32l18 69l-76 12q-27 4 -38.5 22t-11.5 62q0 52 22 198zM397.5 130.5
q-39.5 -24.5 -91.5 -24.5q-60 0 -90.5 52t-30.5 162q0 109 32.5 216t92 176t135.5 69q81 0 119 -35l-86 -545q-41 -46 -80.5 -70.5z" />
    <glyph glyph-name="aacute" unicode="&#xe1;" 
d="M499 1015l183 318l-111 39l-123 -325zM735 832q-42 53 -201 53q-116 0 -234.5 -73.5t-197 -212.5t-78.5 -325q0 -90 24.5 -157t70 -102.5t106.5 -35.5q72 0 136 43.5t100 109.5h12q-6 -21 -6 -39q0 -50 36 -80t95 -30q65 0 151 32l18 69l-76 12q-27 4 -38.5 22t-11.5 62
q0 52 22 198zM397.5 130.5q-39.5 -24.5 -91.5 -24.5q-60 0 -90.5 52t-30.5 162q0 109 32.5 216t92 176t135.5 69q81 0 119 -35l-86 -545q-41 -46 -80.5 -70.5z" />
    <glyph glyph-name="acircumflex" unicode="&#xe2;" 
d="M424 1015l139 111h11l163 -110l49 37l-178 186l-55 -15l-168 -179zM735 832q-42 53 -201 53q-116 0 -234.5 -73.5t-197 -212.5t-78.5 -325q0 -90 24.5 -157t70 -102.5t106.5 -35.5q72 0 136 43.5t100 109.5h12q-6 -21 -6 -39q0 -50 36 -80t95 -30q65 0 151 32l18 69
l-76 12q-27 4 -38.5 22t-11.5 62q0 52 22 198zM397.5 130.5q-39.5 -24.5 -91.5 -24.5q-60 0 -90.5 52t-30.5 162q0 109 32.5 216t92 176t135.5 69q81 0 119 -35l-86 -545q-41 -46 -80.5 -70.5z" />
    <glyph glyph-name="adieresis" unicode="&#xe4;" 
d="M132 1034q22 -19 52 -19q35 0 63 22.5t34 58.5q1 4 1 12q0 29 -21 47t-52 18q-37 0 -68 -25t-31 -65q0 -30 22 -49zM399.5 1033.5q21.5 -18.5 51.5 -18.5q35 0 64 22.5t35 58.5q1 4 1 11q0 29 -21.5 47.5t-53.5 18.5q-37 0 -67.5 -25t-30.5 -65q0 -31 21.5 -49.5z
M735 832q-42 53 -201 53q-116 0 -234.5 -73.5t-197 -212.5t-78.5 -325q0 -90 24.5 -157t70 -102.5t106.5 -35.5q72 0 136 43.5t100 109.5h12q-6 -21 -6 -39q0 -50 36 -80t95 -30q65 0 151 32l18 69l-76 12q-27 4 -38.5 22t-11.5 62q0 52 22 198zM397.5 130.5
q-39.5 -24.5 -91.5 -24.5q-60 0 -90.5 52t-30.5 162q0 109 32.5 216t92 176t135.5 69q81 0 119 -35l-86 -545q-41 -46 -80.5 -70.5z" />
    <glyph glyph-name="agrave" unicode="&#xe0;" 
d="M548 1015l56 35l-132 333l-115 -38zM735 832q-42 53 -201 53q-116 0 -234.5 -73.5t-197 -212.5t-78.5 -325q0 -90 24.5 -157t70 -102.5t106.5 -35.5q72 0 136 43.5t100 109.5h12q-6 -21 -6 -39q0 -50 36 -80t95 -30q65 0 151 32l18 69l-76 12q-27 4 -38.5 22t-11.5 62
q0 52 22 198zM397.5 130.5q-39.5 -24.5 -91.5 -24.5q-60 0 -90.5 52t-30.5 162q0 109 32.5 216t92 176t135.5 69q81 0 119 -35l-86 -545q-41 -46 -80.5 -70.5z" />
    <glyph glyph-name="aring" unicode="&#xe5;" 
d="M706.5 1039.5q41.5 24.5 65.5 65t24 85.5q0 46 -22 83t-60.5 58.5t-85.5 21.5q-46 0 -87.5 -24t-67 -63.5t-25.5 -84.5q0 -50 22.5 -87.5t60.5 -58t84 -20.5q50 0 91.5 24.5zM684 1264q23 -35 23 -86q0 -55 -19.5 -81.5t-60.5 -26.5q-45 0 -67 35.5t-22 86.5q0 47 19 77
t60 30q44 0 67 -35zM735 832q-42 53 -201 53q-116 0 -234.5 -73.5t-197 -212.5t-78.5 -325q0 -90 24.5 -157t70 -102.5t106.5 -35.5q72 0 136 43.5t100 109.5h12q-6 -21 -6 -39q0 -50 36 -80t95 -30q65 0 151 32l18 69l-76 12q-27 4 -38.5 22t-11.5 62q0 52 22 198z
M397.5 130.5q-39.5 -24.5 -91.5 -24.5q-60 0 -90.5 52t-30.5 162q0 109 32.5 216t92 176t135.5 69q81 0 119 -35l-86 -545q-41 -46 -80.5 -70.5z" />
    <glyph glyph-name="atilde" unicode="&#xe3;" 
d="M409 1031.5q9 12.5 22.5 23.5t25.5 9l225 -32q4 -1 11 -1q40 0 69.5 32t46.5 69.5t17 42.5l-49 2q-2 -3 -11 -13.5t-21.5 -19t-23.5 -7.5l-226 29l-11 1q-39 0 -67 -32t-43 -68.5t-15 -42.5l39 -9q2 4 11 16.5zM735 832q-42 53 -201 53q-116 0 -234.5 -73.5t-197 -212.5
t-78.5 -325q0 -90 24.5 -157t70 -102.5t106.5 -35.5q72 0 136 43.5t100 109.5h12q-6 -21 -6 -39q0 -50 36 -80t95 -30q65 0 151 32l18 69l-76 12q-27 4 -38.5 22t-11.5 62q0 52 22 198zM397.5 130.5q-39.5 -24.5 -91.5 -24.5q-60 0 -90.5 52t-30.5 162q0 109 32.5 216
t92 176t135.5 69q81 0 119 -35l-86 -545q-41 -46 -80.5 -70.5z" />
    <glyph glyph-name="ae" unicode="&#xe6;" horiz-adv-x="1171" 
d="M630.5 16.5q52.5 -46.5 139.5 -46.5q64 0 126.5 25t111 62.5t72.5 74.5l-26 45q-13 -13 -49 -31t-76 -31t-65 -13q-87 0 -134.5 56t-47.5 166q0 44 5 72q23 -4 55 -4q87 0 176 33t148.5 101t59.5 166q0 91 -49.5 144.5t-132.5 53.5q-43 0 -101.5 -28t-109.5 -64l4 38
l-15 19q-24 13 -70.5 21.5t-94.5 8.5q-116 0 -234.5 -73.5t-197 -212.5t-78.5 -325q0 -90 24.5 -157t70 -102.5t106.5 -35.5q87 0 169.5 48t135.5 129q25 -93 77.5 -139.5zM951 758.5q25 -39.5 25 -95.5q0 -101 -65.5 -149t-163.5 -48q-25 0 -51 3q27 168 73 248.5t115 80.5
q42 0 67 -39.5zM434 135q-49 -29 -105 -29q-60 0 -90.5 52t-30.5 162q0 109 32.5 216t92 176t135.5 69q37 0 78 -11.5t61 -29.5l-99 -532q-25 -44 -74 -73z" />
    <glyph glyph-name="b" unicode="b" horiz-adv-x="843" 
d="M107 1284l-9 -80l42 1q45 0 68 -12.5t23 -49.5q0 -7 -2 -23l-171 -1070q39 -36 105 -54.5t127 -18.5q152 0 273 81t188 212t67 274q0 97 -26.5 175t-81.5 124.5t-136 46.5q-67 0 -140 -49.5t-113 -118.5h-12l28 120l50 282q7 49 7 75q0 60 -30 89t-104 29q-85 0 -153 -33
zM615.5 292.5q-35.5 -92.5 -98 -150.5t-140.5 -58q-47 0 -88.5 19.5t-60.5 51.5l84 491q41 50 80.5 76t96.5 26q83 0 122.5 -77t39.5 -188q0 -98 -35.5 -190.5z" />
    <glyph glyph-name="c" unicode="c" horiz-adv-x="708" 
d="M246 174q-49 68 -49 206q0 92 24.5 187t77.5 159.5t132 64.5q41 0 66.5 -22t40 -53.5t33.5 -88.5q55 5 92 32t37 72q0 72 -49.5 114.5t-136.5 42.5q-120 0 -233.5 -76t-185 -209t-71.5 -295q0 -109 38 -183.5t106 -111.5t159 -37q82 0 168 40.5t140 101.5l-24 61
q-118 -73 -213 -73q-103 0 -152 68z" />
    <glyph glyph-name="ccaron" unicode="&#x10d;" horiz-adv-x="778" 
d="M562 1010l57 14l200 179l-39 31l-146 -141h-10l-126 144l-90 -63zM627 6.5q94 36.5 143 86.5l-16 58q-50 -29 -97.5 -45t-114.5 -16q-83 0 -136 48.5t-77 124t-24 159.5q0 45 6 85q14 90 49.5 157.5t86 104.5t109.5 37q57 0 86.5 -46t48.5 -118q69 5 107 38.5t38 86.5
q0 58 -54.5 95.5t-163.5 37.5q-110 0 -217.5 -60.5t-184.5 -171t-100 -253.5q-7 -41 -7 -85q0 -102 39.5 -183.5t114 -129t177.5 -47.5q93 0 187 36.5z" />
    <glyph glyph-name="ccedilla" unicode="&#xe7;" horiz-adv-x="708" 
d="M299 726.5q-53 -64.5 -77.5 -159.5t-24.5 -187q0 -138 49 -206t152 -68q95 0 213 73l24 -61q-54 -61 -140 -101.5t-168 -40.5q-25 0 -49 3l-50 -75q39 -34 64 -70.5t25 -80.5q0 -56 -53 -95t-148 -67l-19 58q41 14 63.5 36.5t22.5 46.5q0 40 -74 110l98 141h46
q-107 21 -168 103.5t-61 221.5q0 162 71.5 295t185 209t233.5 76q87 0 136.5 -42.5t49.5 -114.5q0 -45 -37 -72t-92 -32q-19 57 -33.5 88.5t-40 53.5t-66.5 22q-79 0 -132 -64.5z" />
    <glyph glyph-name="d" unicode="d" horiz-adv-x="844" 
d="M519 1284l-9 -80l42 1q44 0 67 -13.5t23 -54.5q0 -11 -1 -17l-28 -239h-6q-13 3 -41 3q-132 0 -257.5 -72t-205 -208t-79.5 -318q0 -153 59 -230t161 -77q73 0 136.5 40.5t99.5 102.5h13q-5 -25 -5 -48q2 -40 30.5 -64.5t88.5 -24.5q37 0 70 9t69 23l19 69l-66 11
q-24 4 -33.5 16.5t-9.5 46.5q0 51 27 220l116 744q7 39 7 75q0 60 -30 89t-104 29q-85 0 -153 -33zM219.5 160.5q-32.5 54.5 -32.5 176.5q0 117 34 219t94.5 163.5t135.5 61.5q43 0 71 -12t55 -33l-82 -535q-34 -46 -75 -70.5t-99 -24.5q-69 0 -101.5 54.5z" />
    <glyph glyph-name="eth" unicode="&#xf0;" horiz-adv-x="926" 
d="M860 1124l22 77l-134 -27q-40 84 -82 128h-117q30 -46 63 -156l-193 -40l-22 -75l234 47q16 -64 28.5 -126t16.5 -93l-7 -2q-12 50 -55.5 70.5t-86.5 20.5q-119 0 -230 -80t-180.5 -219.5t-69.5 -308.5q0 -104 34.5 -186.5t108 -131.5t185.5 -49q140 0 249 74.5
t170.5 216t61.5 334.5q0 138 -20.5 271t-59.5 238zM587.5 807q40.5 -48 64.5 -127t24 -170q0 -125 -30.5 -225t-90 -157.5t-142.5 -57.5q-56 0 -97 38.5t-63 108.5t-22 163q0 130 31 238.5t92 173t145 64.5q48 -1 88.5 -49z" />
    <glyph glyph-name="e" unicode="e" horiz-adv-x="676" 
d="M398.5 -5q62.5 25 111 62.5t72.5 74.5l-26 45q-31 -27 -88.5 -51t-131.5 -24q-78 0 -113.5 55t-35.5 162q0 17 2 57q185 -5 312 65t127 251q0 91 -49.5 144.5t-132.5 53.5q-110 0 -207.5 -82.5t-156 -221t-58.5 -297.5q0 -319 248 -319q64 0 126.5 25zM453 758.5
q25 -39.5 25 -95.5q0 -86 -37.5 -133t-98 -63.5t-144.5 -17.5q6 130 35.5 208t69.5 109.5t83 31.5q42 0 67 -39.5z" />
    <glyph glyph-name="eacute" unicode="&#xe9;" horiz-adv-x="676" 
d="M385 1015l183 318l-111 39l-123 -325zM398.5 -5q62.5 25 111 62.5t72.5 74.5l-26 45q-31 -27 -88.5 -51t-131.5 -24q-78 0 -113.5 55t-35.5 162q0 17 2 57q185 -5 312 65t127 251q0 91 -49.5 144.5t-132.5 53.5q-110 0 -207.5 -82.5t-156 -221t-58.5 -297.5
q0 -319 248 -319q64 0 126.5 25zM453 758.5q25 -39.5 25 -95.5q0 -86 -37.5 -133t-98 -63.5t-144.5 -17.5q6 130 35.5 208t69.5 109.5t83 31.5q42 0 67 -39.5z" />
    <glyph glyph-name="ecaron" unicode="&#x11b;" horiz-adv-x="802" 
d="M554 993l57 14l201 179l-38 31l-145 -140h-10l-128 143l-89 -61zM613 5.5q91 35.5 161 98.5l-12 53q-74 -36 -121 -45.5t-109 -9.5h-6q-79 0 -130 41t-74.5 107t-23.5 143q0 27 3 52l485 6q10 25 21.5 65.5t15.5 64.5q6 39 6 74q0 79 -29 134t-79 82.5t-115 27.5
q-100 0 -204 -57t-181.5 -164t-99.5 -250q-8 -49 -8 -103q0 -114 42.5 -194t113 -120.5t155.5 -40.5q98 0 189 35.5zM655 676q0 -33 -5 -61q-2 -15 -7 -36.5t-10 -32.5l-317 -23q19 92 56.5 154.5t82.5 93t87 30.5q113 0 113 -125z" />
    <glyph glyph-name="ecircumflex" unicode="&#xea;" horiz-adv-x="676" 
d="M310 1015l139 111h11l163 -110l49 37l-178 186l-55 -15l-168 -179zM398.5 -5q62.5 25 111 62.5t72.5 74.5l-26 45q-31 -27 -88.5 -51t-131.5 -24q-78 0 -113.5 55t-35.5 162q0 17 2 57q185 -5 312 65t127 251q0 91 -49.5 144.5t-132.5 53.5q-110 0 -207.5 -82.5
t-156 -221t-58.5 -297.5q0 -319 248 -319q64 0 126.5 25zM453 758.5q25 -39.5 25 -95.5q0 -86 -37.5 -133t-98 -63.5t-144.5 -17.5q6 130 35.5 208t69.5 109.5t83 31.5q42 0 67 -39.5z" />
    <glyph glyph-name="edieresis" unicode="&#xeb;" horiz-adv-x="676" 
d="M18 1034q22 -19 52 -19q35 0 63 22.5t34 58.5q1 4 1 12q0 29 -21 47t-52 18q-37 0 -68 -25t-31 -65q0 -30 22 -49zM285.5 1033.5q21.5 -18.5 51.5 -18.5q35 0 64 22.5t35 58.5q1 4 1 11q0 29 -21.5 47.5t-53.5 18.5q-37 0 -67.5 -25t-30.5 -65q0 -31 21.5 -49.5z
M398.5 -5q62.5 25 111 62.5t72.5 74.5l-26 45q-31 -27 -88.5 -51t-131.5 -24q-78 0 -113.5 55t-35.5 162q0 17 2 57q185 -5 312 65t127 251q0 91 -49.5 144.5t-132.5 53.5q-110 0 -207.5 -82.5t-156 -221t-58.5 -297.5q0 -319 248 -319q64 0 126.5 25zM453 758.5
q25 -39.5 25 -95.5q0 -86 -37.5 -133t-98 -63.5t-144.5 -17.5q6 130 35.5 208t69.5 109.5t83 31.5q42 0 67 -39.5z" />
    <glyph glyph-name="egrave" unicode="&#xe8;" horiz-adv-x="676" 
d="M434 1015l56 35l-132 333l-115 -38zM398.5 -5q62.5 25 111 62.5t72.5 74.5l-26 45q-31 -27 -88.5 -51t-131.5 -24q-78 0 -113.5 55t-35.5 162q0 17 2 57q185 -5 312 65t127 251q0 91 -49.5 144.5t-132.5 53.5q-110 0 -207.5 -82.5t-156 -221t-58.5 -297.5
q0 -319 248 -319q64 0 126.5 25zM453 758.5q25 -39.5 25 -95.5q0 -86 -37.5 -133t-98 -63.5t-144.5 -17.5q6 130 35.5 208t69.5 109.5t83 31.5q42 0 67 -39.5z" />
    <glyph glyph-name="f" unicode="f" horiz-adv-x="579" 
d="M156 -204q22 27 42 98t60 241l110 633h175l18 90h-180q17 136 34 209.5t42 107.5t66 34q36 0 60.5 -11t42 -28t43.5 -50q17 -20 16 -19q47 15 71 44t24 59q0 113 -164 113q-78 0 -159 -52.5t-143 -153.5t-85 -239l-157 -36l-14 -68h149l-112 -669q-34 -150 -51.5 -206
t-43.5 -97h156z" />
    <glyph glyph-name="g" unicode="g" horiz-adv-x="725" 
d="M187 274.5q26 26.5 57 36.5q20 -4 47 -4q80 0 158 44.5t127.5 119.5t49.5 160q0 88 -15 107l2 17l119 -40h16l45 121l-17 23l-201 -25q-59 63 -157 63q-91 0 -175 -51t-136 -136t-52 -180q0 -40 18 -81.5t43 -72t45 -38.5l5 -8q-39 -12 -81.5 -38.5t-71.5 -60.5t-29 -68
q0 -51 23.5 -77t62.5 -41v-8q-49 -14 -98 -45.5t-80.5 -75.5t-31.5 -93q1 -103 92.5 -150.5t222.5 -47.5q115 0 224.5 41t178 111.5t68.5 153.5q0 94 -44 145t-115.5 69.5t-177.5 23.5q-60 2 -88 5.5t-44 13.5t-16 32q0 28 26 54.5zM456 775.5q22 -46.5 22 -114.5
t-17.5 -132.5t-54 -106.5t-89.5 -42q-51 0 -80.5 49t-29.5 113q0 65 21.5 130t62 107.5t94.5 42.5q49 0 71 -46.5zM443 -208q-32 -34 -87 -52.5t-121 -18.5q-59 0 -111 19t-83.5 53.5t-31.5 78.5q0 35 22 66.5t54 53.5t60 30q118 0 183 -7.5t106 -41t41 -105.5
q0 -42 -32 -76z" />
    <glyph glyph-name="h" unicode="h" horiz-adv-x="889" 
d="M317 662q40 37 84 60t108 23q115 0 115 -127q0 -40 -11 -93l-51 -331q-8 -48 -8 -80q0 -68 34 -99.5t112 -31.5q39 0 77.5 9.5t63.5 22.5l8 81q-43 -1 -68.5 2.5t-42 20.5t-16.5 53q0 60 23 206l35 235q9 54 9 96q0 94 -43.5 139t-129.5 45q-83 0 -160 -51.5t-129 -119.5
h-12l28 124l43 278q7 49 7 75q0 60 -30 89t-104 29q-85 0 -153 -33l-9 -80l42 1q44 0 67.5 -13t23.5 -51q0 -5 -2 -21l-169 -1120h163z" />
    <glyph glyph-name="i" unicode="i" horiz-adv-x="493" 
d="M258 1100.5q32 -31.5 76 -31.5q50 0 84.5 31.5t34.5 78.5q0 48 -31.5 80.5t-76.5 32.5q-34 0 -61.5 -16t-42.5 -42.5t-15 -56.5q0 -45 32 -76.5zM107 774q45 0 68 -12.5t23 -49.5q0 -7 -2 -23l-71 -495q-6 -43 -6 -77q0 -71 33 -102.5t111 -31.5q39 0 77.5 9.5t63.5 22.5
l8 81q-43 -1 -68.5 2.5t-42 20.5t-16.5 53q0 30 5.5 75.5t17.5 130.5l46 315q6 41 6 74q0 61 -29.5 90t-103.5 29q-85 0 -153 -33l-9 -80z" />
    <glyph glyph-name="iacute" unicode="&#xed;" horiz-adv-x="594" 
d="M370 1015l183 318l-111 39l-123 -325zM62 73l-18 -75h408l17 73l-126 31l116 744l-20 23l-274 -25l-10 -76l130 -22l-100 -640z" />
    <glyph glyph-name="icircumflex" unicode="&#xee;" horiz-adv-x="698" 
d="M295 1015l139 111h11l163 -110l49 37l-178 186l-55 -15l-168 -179zM62 73l-18 -75h408l17 73l-126 31l116 744l-20 23l-274 -25l-10 -76l130 -22l-100 -640z" />
    <glyph glyph-name="idieresis" unicode="&#xef;" horiz-adv-x="584" 
d="M68 1034q22 -19 52 -19q35 0 63 22.5t34 58.5q1 4 1 12q0 29 -21 47t-52 18q-37 0 -68 -25t-31 -65q0 -30 22 -49zM335.5 1033.5q21.5 -18.5 51.5 -18.5q35 0 64 22.5t35 58.5q1 4 1 11q0 29 -21.5 47.5t-53.5 18.5q-37 0 -67.5 -25t-30.5 -65q0 -31 21.5 -49.5zM126 73
l-18 -75h408l17 73l-126 31l116 744l-20 23l-274 -25l-10 -76l130 -22l-100 -640z" />
    <glyph glyph-name="igrave" unicode="&#xec;" horiz-adv-x="518" 
d="M419 1015l56 35l-132 333l-115 -38zM62 73l-18 -75h408l17 73l-126 31l116 744l-20 23l-274 -25l-10 -76l130 -22l-100 -640z" />
    <glyph glyph-name="j" unicode="j" horiz-adv-x="478" 
d="M248.5 1100q32.5 -32 77.5 -32q51 0 85.5 31.5t34.5 79.5t-32 81t-77 33q-34 0 -62 -16t-43.5 -43t-15.5 -57q0 -45 32.5 -77zM78 847l-9 -80l42 1q45 0 68 -12.5t23 -49.5q0 -7 -2 -23l-85 -584q-19 -126 -82 -225t-176 -181l50 -79q117 56 226.5 171.5t136.5 300.5
l88 601q7 39 7 75q0 60 -30 89t-104 29q-85 0 -153 -33z" />
    <glyph glyph-name="k" unicode="k" horiz-adv-x="801" 
d="M106 1284l-9 -80l42 1q44 0 67.5 -13t23.5 -51q0 -5 -2 -21l-170 -1120h163l165 1124q7 49 7 75q0 60 -30 89t-104 29q-85 0 -153 -33zM382 287q50 -124 91 -188.5t84.5 -89t106.5 -24.5q53 0 122 21l13 78l-26 5q-53 10 -95 41t-82.5 91.5t-85.5 161.5l-37 83
q44 28 105.5 76t113.5 110.5t52 117.5q0 68 -26 94t-91 26q-68 0 -123 -33l-9 -80q23 6 43 6q26 0 41 -11t15 -34q0 -33 -39.5 -85.5t-102 -107.5t-126.5 -94l-3 -17z" />
    <glyph glyph-name="l" unicode="l" horiz-adv-x="410" 
d="M119 1205q45 0 68 -12.5t23 -49.5q0 -7 -2 -23l-143 -926q-7 -51 -7 -78q0 -69 33.5 -101t111.5 -32q39 0 77.5 9.5t63.5 22.5l8 81q-43 -1 -68.5 2.5t-42 20.5t-16.5 53q0 60 23 206l118 746q6 41 6 74q0 61 -29.5 90t-103.5 29q-85 0 -153 -33l-9 -80z" />
    <glyph glyph-name="m" unicode="m" horiz-adv-x="1402" 
d="M1251.5 122q16.5 -17 42 -20.5t68.5 -2.5l-8 -81q-25 -13 -63.5 -22.5t-77.5 -9.5q-79 0 -111.5 32.5t-32.5 103.5q0 33 6 75l42 328q7 58 7 90q0 64 -22.5 97t-74.5 33q-68 0 -117.5 -28t-91.5 -73l-3 -31l-70 -613h-163l66 525q6 48 6 87q0 67 -23.5 100t-81.5 33
q-62 0 -105 -23t-82 -60l-95 -662h-163l92 697q2 16 2 22q0 38 -23 50.5t-67 12.5l-43 -1l9 80q68 33 153 33q71 0 106 -27t35 -84q0 -24 -8 -61h12q51 68 126.5 119.5t157.5 51.5q85 0 124.5 -47t39.5 -148q60 79 142 137t172 58q80 0 117.5 -47t37.5 -148q0 -46 -5 -85
l-26 -235l-11 -86q-12 -86 -12 -117q0 -36 16.5 -53z" />
    <glyph glyph-name="n" unicode="n" horiz-adv-x="924" 
d="M74 861l-9 -80l42 1q44 0 67.5 -13t23.5 -51q0 -5 -2 -21l-92 -697h163l95 662q39 37 82 60t105 23q57 0 82 -33t25 -97q0 -37 -8 -90l-51 -328q-8 -48 -8 -80q0 -68 34 -99.5t112 -31.5q39 0 77.5 9.5t63.5 22.5l8 81q-43 -1 -68.5 2.5t-42 20.5t-16.5 53q0 59 23 203
l35 235q9 54 9 97q0 183 -168 183q-82 0 -157.5 -51.5t-126.5 -119.5h-12q8 37 8 61q0 57 -35 84t-106 27q-85 0 -153 -33z" />
    <glyph glyph-name="ntilde" unicode="&#xf1;" horiz-adv-x="924" 
d="M333 1031.5q9 12.5 22.5 23.5t25.5 9l225 -32q4 -1 11 -1q40 0 69.5 32t46.5 69.5t17 42.5l-49 2q-2 -3 -11 -13.5t-21.5 -19t-23.5 -7.5l-226 29l-11 1q-39 0 -67 -32t-43 -68.5t-15 -42.5l39 -9q2 4 11 16.5zM74 861l-9 -80l42 1q44 0 67.5 -13t23.5 -51q0 -5 -2 -21
l-92 -697h163l95 662q39 37 82 60t105 23q57 0 82 -33t25 -97q0 -37 -8 -90l-51 -328q-8 -48 -8 -80q0 -68 34 -99.5t112 -31.5q39 0 77.5 9.5t63.5 22.5l8 81q-43 -1 -68.5 2.5t-42 20.5t-16.5 53q0 59 23 203l35 235q9 54 9 97q0 183 -168 183q-82 0 -157.5 -51.5
t-126.5 -119.5h-12q8 37 8 61q0 57 -35 84t-106 27q-85 0 -153 -33z" />
    <glyph glyph-name="o" unicode="o" horiz-adv-x="819" 
d="M731 700q-31 86 -95 139.5t-157 53.5q-128 0 -232 -77t-163 -202.5t-59 -266.5q0 -106 33 -190.5t98.5 -133.5t157.5 -49q128 0 230.5 78t160 203t57.5 260q0 99 -31 185zM281.5 127.5q-42.5 33.5 -67 100t-24.5 160.5q0 123 26.5 210.5t73.5 132t109 44.5
q101 0 149 -86.5t48 -216.5q0 -177 -57 -277.5t-162 -100.5q-53 0 -95.5 33.5z" />
    <glyph glyph-name="oacute" unicode="&#xf3;" horiz-adv-x="819" 
d="M426 1015l183 318l-111 39l-123 -325zM731 700q-31 86 -95 139.5t-157 53.5q-128 0 -232 -77t-163 -202.5t-59 -266.5q0 -106 33 -190.5t98.5 -133.5t157.5 -49q128 0 230.5 78t160 203t57.5 260q0 99 -31 185zM281.5 127.5q-42.5 33.5 -67 100t-24.5 160.5
q0 123 26.5 210.5t73.5 132t109 44.5q101 0 149 -86.5t48 -216.5q0 -177 -57 -277.5t-162 -100.5q-53 0 -95.5 33.5z" />
    <glyph glyph-name="ocircumflex" unicode="&#xf4;" horiz-adv-x="819" 
d="M351 1015l139 111h11l163 -110l49 37l-178 186l-55 -15l-168 -179zM731 700q-31 86 -95 139.5t-157 53.5q-128 0 -232 -77t-163 -202.5t-59 -266.5q0 -106 33 -190.5t98.5 -133.5t157.5 -49q128 0 230.5 78t160 203t57.5 260q0 99 -31 185zM281.5 127.5
q-42.5 33.5 -67 100t-24.5 160.5q0 123 26.5 210.5t73.5 132t109 44.5q101 0 149 -86.5t48 -216.5q0 -177 -57 -277.5t-162 -100.5q-53 0 -95.5 33.5z" />
    <glyph glyph-name="odieresis" unicode="&#xf6;" horiz-adv-x="819" 
d="M60 1034q22 -19 52 -19q35 0 63 22.5t34 58.5q1 4 1 12q0 29 -21 47t-52 18q-37 0 -68 -25t-31 -65q0 -30 22 -49zM327.5 1033.5q21.5 -18.5 51.5 -18.5q35 0 64 22.5t35 58.5q1 4 1 11q0 29 -21.5 47.5t-53.5 18.5q-37 0 -67.5 -25t-30.5 -65q0 -31 21.5 -49.5zM731 700
q-31 86 -95 139.5t-157 53.5q-128 0 -232 -77t-163 -202.5t-59 -266.5q0 -106 33 -190.5t98.5 -133.5t157.5 -49q128 0 230.5 78t160 203t57.5 260q0 99 -31 185zM281.5 127.5q-42.5 33.5 -67 100t-24.5 160.5q0 123 26.5 210.5t73.5 132t109 44.5q101 0 149 -86.5
t48 -216.5q0 -177 -57 -277.5t-162 -100.5q-53 0 -95.5 33.5z" />
    <glyph glyph-name="ograve" unicode="&#xf2;" horiz-adv-x="819" 
d="M475 1015l56 35l-132 333l-115 -38zM731 700q-31 86 -95 139.5t-157 53.5q-128 0 -232 -77t-163 -202.5t-59 -266.5q0 -106 33 -190.5t98.5 -133.5t157.5 -49q128 0 230.5 78t160 203t57.5 260q0 99 -31 185zM281.5 127.5q-42.5 33.5 -67 100t-24.5 160.5
q0 123 26.5 210.5t73.5 132t109 44.5q101 0 149 -86.5t48 -216.5q0 -177 -57 -277.5t-162 -100.5q-53 0 -95.5 33.5z" />
    <glyph glyph-name="oslash" unicode="&#xf8;" horiz-adv-x="963" 
d="M803 747q40 -87 40 -210q0 -139 -56.5 -269.5t-156.5 -212t-225 -81.5q-88 0 -152 47l-48 -62l-163 -5l132 158q-48 89 -48 215q0 141 60.5 272t166.5 212.5t237 81.5q82 0 139 -46l38 50l155 7zM414 746q-54 -70 -80.5 -183t-26.5 -243q0 -40 4 -71l336 450
q-15 53 -40 85t-60 32q-79 0 -133 -70zM560 120q52 72 79.5 188t27.5 244q0 27 -3 55l-335 -444q16 -53 43.5 -84t65.5 -31q70 0 122 72z" />
    <glyph glyph-name="otilde" unicode="&#xf5;" horiz-adv-x="819" 
d="M336 1031.5q9 12.5 22.5 23.5t25.5 9l225 -32q4 -1 11 -1q40 0 69.5 32t46.5 69.5t17 42.5l-49 2q-2 -3 -11 -13.5t-21.5 -19t-23.5 -7.5l-226 29l-11 1q-39 0 -67 -32t-43 -68.5t-15 -42.5l39 -9q2 4 11 16.5zM731 700q-31 86 -95 139.5t-157 53.5q-128 0 -232 -77
t-163 -202.5t-59 -266.5q0 -106 33 -190.5t98.5 -133.5t157.5 -49q128 0 230.5 78t160 203t57.5 260q0 99 -31 185zM281.5 127.5q-42.5 33.5 -67 100t-24.5 160.5q0 123 26.5 210.5t73.5 132t109 44.5q101 0 149 -86.5t48 -216.5q0 -177 -57 -277.5t-162 -100.5
q-53 0 -95.5 33.5z" />
    <glyph glyph-name="oe" unicode="&#x153;" horiz-adv-x="1407" 
d="M603.5 9q75.5 37 155.5 122q96 -161 268 -161q98 0 190 35.5t162 98.5l-16 53q-80 -40 -128.5 -52t-105.5 -12q-75 0 -126.5 40t-76.5 105t-25 140q0 30 5 67l483 6q10 25 22 66t16 64q6 39 6 74q0 79 -29 134t-79 82.5t-115 27.5q-97 0 -186.5 -47t-151.5 -116
q-10 41 -50 79t-97 61.5t-117 23.5q-113 0 -215.5 -56t-175 -163.5t-96.5 -254.5q-9 -57 -9 -110q0 -158 81 -251t244 -93q91 0 166.5 37zM684 717q42 -84 42 -213q0 -64 -12 -145q-11 -71 -45 -136.5t-82 -106t-100 -40.5q-93 0 -139 83.5t-46 212.5q0 65 10 125
q22 135 78.5 219.5t160.5 84.5q91 0 133 -84zM1260 675q0 -23 -5 -60q-1 -12 -6.5 -31.5t-10.5 -34.5l-318 -22q19 92 56.5 153.5t82 91t87.5 29.5q114 0 114 -126z" />
    <glyph glyph-name="p" unicode="p" horiz-adv-x="905" 
d="M342 651q54 54 91.5 74.5t94.5 20.5q40 0 74.5 -31t55.5 -90.5t21 -138.5q0 -135 -41.5 -224.5t-100.5 -131t-111 -41.5t-76 6t-52 19l-23 -122q27 -9 87 -9q119 0 231.5 78.5t183.5 207.5t71 273q0 108 -31.5 186.5t-86 120t-122.5 41.5q-52 0 -103 -25t-91 -64.5
t-63 -80.5l-13 2q7 39 7 58q0 47 -29.5 69.5t-101.5 22.5q-85 0 -153 -33l-9 -80l42 1q44 0 67.5 -13t23.5 -51q0 -5 -2 -21l-153 -1041h159z" />
    <glyph glyph-name="thorn" unicode="&#xfe;" horiz-adv-x="1022" 
d="M731 715q30 -31 48.5 -90.5t18.5 -138.5q0 -172 -46 -260t-106.5 -112.5t-131.5 -24.5q-16 0 -44.5 5.5t-42.5 12.5l-22 -114q20 -11 93 -11q122 0 231 66.5t176.5 192t67.5 291.5q0 99 -31.5 181t-86 129.5t-119.5 47.5q-44 0 -93 -25t-90.5 -64t-62.5 -79h-10l29 125
l61 380l-22 23l-281 -25l-12 -76l134 -23l-207 -1384l-120 -33l-20 -74h436l18 71l-155 31l141 925q0 3 26.5 25t67.5 40.5t90 18.5q35 0 65 -31z" />
    <glyph glyph-name="q" unicode="q" horiz-adv-x="776" 
d="M736 832q-42 53 -201 53q-116 0 -235 -75t-197.5 -216.5t-78.5 -329.5q0 -82 22.5 -146.5t66.5 -101.5t106 -37q82 0 132.5 27t90.5 76l-3 55q-22 -15 -58 -25t-73 -10q-59 0 -90.5 62t-31.5 156q0 109 32.5 216t92 176t135.5 69q81 0 119 -35l-160 -1110h155z" />
    <glyph glyph-name="r" unicode="r" horiz-adv-x="646" 
d="M338 508q35 72 86.5 131.5t110.5 59.5q27 0 46.5 -7t39.5 -27q28 28 42 63t14 69q0 41 -25.5 68t-70.5 27q-48 0 -93 -42t-81 -107.5t-59 -135.5h-11l23 115q7 39 7 59q0 58 -34 85.5t-106 27.5q-85 0 -153 -33l-9 -80l42 1q44 0 67 -13t23 -52q0 -13 -1 -20l-92 -697
h167z" />
    <glyph glyph-name="rcaron" unicode="&#x159;" horiz-adv-x="735" 
d="M543 993l57 14l200 179l-39 31l-145 -140h-9l-127 143l-90 -61zM616 87l-228 34l61 383q21 71 56 120t72.5 73.5t66.5 24.5q26 0 53 -13t50 -36q98 61 98 137q0 41 -28 68.5t-76 27.5q-43 0 -92 -30.5t-97.5 -91.5t-87.5 -148h-19l52 230l-15 24l-293 -37l-26 -76
l155 -49l-97 -614l-159 -40l-22 -74h552z" />
    <glyph glyph-name="s" unicode="s" horiz-adv-x="685" 
d="M272.5 863.5q-73.5 -38.5 -116.5 -100.5t-43 -129q0 -64 28.5 -114t68.5 -85.5t105 -81.5q52 -37 81.5 -61.5t49.5 -55.5t20 -67q0 -47 -33 -81t-87 -34q-55 0 -90 18t-57.5 62t-37.5 124q-61 -5 -95.5 -38t-34.5 -78q0 -46 31.5 -86.5t92 -65.5t143.5 -25q74 0 149 34
t123.5 93t48.5 128q0 58 -27.5 106t-67.5 84t-104 83q-56 42 -87.5 69.5t-53 61.5t-21.5 73q0 63 35.5 96t87.5 33q41 0 67 -20t43.5 -61t31.5 -111q61 5 95 36t34 83q0 74 -61 111.5t-159 37.5q-86 0 -159.5 -38.5z" />
    <glyph glyph-name="scaron" unicode="&#x161;" horiz-adv-x="697" 
d="M474 993l57 14l201 179l-39 31l-145 -140h-9l-127 143l-90 -61zM488.5 -1q76.5 33 129.5 91.5t65 129.5q3 18 3 35q0 57 -29 101.5t-70 76t-108 72.5q-54 33 -86 56.5t-53.5 52.5t-21.5 64q0 12 1 18q8 50 44 85t87 35q115 0 120 -184v-43q66 4 109.5 43.5t53.5 101.5
q2 16 2 24q0 68 -62 105t-158 37q-95 0 -169.5 -43t-118.5 -107t-54 -126q-3 -19 -3 -38q0 -59 30 -105.5t73 -79t110 -72.5q51 -30 80 -51t48 -46t19 -54q0 -8 -1 -13q-8 -52 -49 -76.5t-99 -24.5q-59 0 -100 52t-56 155q-61 -4 -102.5 -41t-50.5 -89q-1 -6 -1 -17
q0 -42 32 -78.5t91.5 -58t140.5 -21.5q77 0 153.5 33z" />
    <glyph glyph-name="germandbls" unicode="&#xdf;" horiz-adv-x="1027" 
d="M775.5 1160q38.5 -57 38.5 -145q0 -49 -18 -90t-44 -72.5t-69 -74.5q-41 -40 -66 -69.5t-41.5 -67t-16.5 -81.5q0 -53 21.5 -96t52 -75t79.5 -73q56 -47 83 -80.5t27 -73.5q0 -53 -30.5 -80.5t-78.5 -27.5q-50 0 -87.5 36t-64.5 118q-57 -6 -89.5 -41.5t-32.5 -84.5
q0 -30 27.5 -57t81 -43.5t125.5 -16.5q67 0 135.5 34.5t113.5 94.5t45 134q0 47 -21.5 88t-52 73.5t-79.5 76.5q-60 55 -87.5 89t-27.5 73q0 41 28 78t85 90q52 50 83.5 86t54 84t22.5 105q0 112 -58 180.5t-176 68.5q-110 0 -209 -62.5t-167 -165.5t-91 -220l-157 -36
l-14 -68h153l-66 -669q-7 -69 -16.5 -98.5t-26.5 -60.5h156q14 19 28 69t22 126l74 704q14 132 43 214.5t78 123t123 40.5q69 0 107.5 -57z" />
    <glyph glyph-name="t" unicode="t" horiz-adv-x="573" 
d="M251 347q-11 -69 -11 -109q0 -65 27.5 -90.5t93.5 -25.5q55 0 105 33l13 -53q-43 -56 -100.5 -89.5t-125.5 -33.5q-90 0 -131 49t-41 148q0 43 10 113l74 477h-100l10 96h105l34 218h154l-35 -218h220l-19 -96h-216z" />
    <glyph glyph-name="u" unicode="u" horiz-adv-x="884" 
d="M505 148q-43 -23 -105 -23q-57 0 -82 33t-25 97q0 37 8 90l53 348q7 39 7 75q0 60 -30 89t-104 29q-85 0 -153 -33l-9 -80l42 1q44 0 67.5 -13t23.5 -51q0 -5 -2 -21l-62 -432q-8 -54 -8 -93q0 -96 41.5 -141.5t125.5 -45.5q82 0 157.5 51.5t126.5 119.5h12
q-7 -31 -7 -60q0 -106 117 -106q37 0 72.5 9t74.5 23l18 69l-66 12q-28 4 -42.5 17t-14.5 41q0 6 2 20l71 520q6 54 6 72q0 62 -29 91.5t-104 29.5q-85 0 -153 -33l-9 -80l42 1q44 0 67.5 -13t23.5 -51q0 -5 -2 -21l-69 -481q-39 -37 -82 -60z" />
    <glyph glyph-name="uacute" unicode="&#xfa;" horiz-adv-x="884" 
d="M572 1015l183 318l-111 39l-123 -325zM505 148q-43 -23 -105 -23q-57 0 -82 33t-25 97q0 37 8 90l53 348q7 39 7 75q0 60 -30 89t-104 29q-85 0 -153 -33l-9 -80l42 1q44 0 67.5 -13t23.5 -51q0 -5 -2 -21l-62 -432q-8 -54 -8 -93q0 -96 41.5 -141.5t125.5 -45.5
q82 0 157.5 51.5t126.5 119.5h12q-7 -31 -7 -60q0 -106 117 -106q37 0 72.5 9t74.5 23l18 69l-66 12q-28 4 -42.5 17t-14.5 41q0 6 2 20l71 520q6 54 6 72q0 62 -29 91.5t-104 29.5q-85 0 -153 -33l-9 -80l42 1q44 0 67.5 -13t23.5 -51q0 -5 -2 -21l-69 -481
q-39 -37 -82 -60z" />
    <glyph glyph-name="ucircumflex" unicode="&#xfb;" horiz-adv-x="884" 
d="M497 1015l139 111h11l163 -110l49 37l-178 186l-55 -15l-168 -179zM505 148q-43 -23 -105 -23q-57 0 -82 33t-25 97q0 37 8 90l53 348q7 39 7 75q0 60 -30 89t-104 29q-85 0 -153 -33l-9 -80l42 1q44 0 67.5 -13t23.5 -51q0 -5 -2 -21l-62 -432q-8 -54 -8 -93
q0 -96 41.5 -141.5t125.5 -45.5q82 0 157.5 51.5t126.5 119.5h12q-7 -31 -7 -60q0 -106 117 -106q37 0 72.5 9t74.5 23l18 69l-66 12q-28 4 -42.5 17t-14.5 41q0 6 2 20l71 520q6 54 6 72q0 62 -29 91.5t-104 29.5q-85 0 -153 -33l-9 -80l42 1q44 0 67.5 -13t23.5 -51
q0 -5 -2 -21l-69 -481q-39 -37 -82 -60z" />
    <glyph glyph-name="udieresis" unicode="&#xfc;" horiz-adv-x="884" 
d="M205 1034q22 -19 52 -19q35 0 63 22.5t34 58.5q1 4 1 12q0 29 -21 47t-52 18q-37 0 -68 -25t-31 -65q0 -30 22 -49zM472.5 1033.5q21.5 -18.5 51.5 -18.5q35 0 64 22.5t35 58.5q1 4 1 11q0 29 -21.5 47.5t-53.5 18.5q-37 0 -67.5 -25t-30.5 -65q0 -31 21.5 -49.5z
M505 148q-43 -23 -105 -23q-57 0 -82 33t-25 97q0 37 8 90l53 348q7 39 7 75q0 60 -30 89t-104 29q-85 0 -153 -33l-9 -80l42 1q44 0 67.5 -13t23.5 -51q0 -5 -2 -21l-62 -432q-8 -54 -8 -93q0 -96 41.5 -141.5t125.5 -45.5q82 0 157.5 51.5t126.5 119.5h12q-7 -31 -7 -60
q0 -106 117 -106q37 0 72.5 9t74.5 23l18 69l-66 12q-28 4 -42.5 17t-14.5 41q0 6 2 20l71 520q6 54 6 72q0 62 -29 91.5t-104 29.5q-85 0 -153 -33l-9 -80l42 1q44 0 67.5 -13t23.5 -51q0 -5 -2 -21l-69 -481q-39 -37 -82 -60z" />
    <glyph glyph-name="ugrave" unicode="&#xf9;" horiz-adv-x="884" 
d="M621 1015l56 35l-132 333l-115 -38zM505 148q-43 -23 -105 -23q-57 0 -82 33t-25 97q0 37 8 90l53 348q7 39 7 75q0 60 -30 89t-104 29q-85 0 -153 -33l-9 -80l42 1q44 0 67.5 -13t23.5 -51q0 -5 -2 -21l-62 -432q-8 -54 -8 -93q0 -96 41.5 -141.5t125.5 -45.5
q82 0 157.5 51.5t126.5 119.5h12q-7 -31 -7 -60q0 -106 117 -106q37 0 72.5 9t74.5 23l18 69l-66 12q-28 4 -42.5 17t-14.5 41q0 6 2 20l71 520q6 54 6 72q0 62 -29 91.5t-104 29.5q-85 0 -153 -33l-9 -80l42 1q44 0 67.5 -13t23.5 -51q0 -5 -2 -21l-69 -481
q-39 -37 -82 -60z" />
    <glyph glyph-name="v" unicode="v" horiz-adv-x="790" 
d="M532 857l-9 -80q18 5 41 5q26 0 42 -11t16 -33q0 -100 -25.5 -192t-67.5 -177.5t-115 -213.5l-71 514q-12 84 -23.5 126t-40 66.5t-84.5 24.5q-79 0 -143 -33l-9 -80l40 1q28 0 45.5 -6t29.5 -24.5t19 -54.5l126 -717l104 18q140 235 252.5 463t112.5 317
q0 59 -27.5 89.5t-89.5 30.5q-68 0 -123 -33z" />
    <glyph glyph-name="w" unicode="w" horiz-adv-x="1183" 
d="M835 155q63 128 99.5 213.5t58.5 177.5t22 192q0 22 -17.5 33t-46.5 11q-25 0 -45 -5l9 80q60 33 133 33q62 0 89.5 -30.5t27.5 -89.5q0 -89 -104 -317.5t-233 -462.5l-104 -18l-119 551q-84 -252 -198 -533l-104 -18l-126 717q-7 36 -19 54.5t-29.5 24.5t-45.5 6l-40 -1
l9 80q64 33 143 33q56 0 84.5 -24.5t40 -66.5t23.5 -126l71 -494q80 212 120.5 339t63.5 263l110 22z" />
    <glyph glyph-name="x" unicode="x" horiz-adv-x="883" 
d="M835 84l-13 -78q-69 -21 -121 -21q-61 0 -102.5 25t-81.5 88t-99 189l-70 153q-84 -78 -131 -152t-47 -163q0 -17 15 -25.5t41 -8.5q18 0 43 5l-9 -80q-55 -33 -123 -33q-65 0 -91 24t-26 86q0 95 97 202.5t208 192.5l-92 201q-18 38 -33 55.5t-33.5 23.5t-50.5 6l-37 -1
l9 80q55 33 123 33q45 0 72.5 -12.5t52.5 -48.5t60 -112l121 -266q75 71 118 140t43 151q0 23 -15 34t-41 11q-21 0 -43 -6l9 80q55 33 123 33q65 0 91 -26t26 -94q0 -88 -88.5 -187.5t-199.5 -185.5l6 -14q47 -102 87 -162.5t81.5 -91t94.5 -40.5z" />
    <glyph glyph-name="y" unicode="y" horiz-adv-x="778" 
d="M-73 -349.5q-47 32.5 -47 92.5q0 28 12 56t35 51q44 -30 81.5 -43t79.5 -13q84 0 143 50t104 156l-160 697q-8 37 -20.5 55t-29 24t-44.5 6l-40 -1l9 80q64 33 143 33q56 0 83.5 -24.5t38.5 -63.5t26 -129l91 -534q61 109 121 274.5t60 328.5q0 22 -18 33t-48 11
q-26 0 -46 -5l9 80q60 33 133 33q62 0 89.5 -30.5t27.5 -89.5q0 -63 -51 -202t-127.5 -299t-146.5 -279q-71 -125 -123.5 -201t-119.5 -127.5t-147 -51.5q-71 0 -118 32.5z" />
    <glyph glyph-name="yacute" unicode="&#xfd;" horiz-adv-x="778" 
d="M385 1015l183 318l-111 39l-123 -325zM-73 -349.5q-47 32.5 -47 92.5q0 28 12 56t35 51q44 -30 81.5 -43t79.5 -13q84 0 143 50t104 156l-160 697q-8 37 -20.5 55t-29 24t-44.5 6l-40 -1l9 80q64 33 143 33q56 0 83.5 -24.5t38.5 -63.5t26 -129l91 -534q61 109 121 274.5
t60 328.5q0 22 -18 33t-48 11q-26 0 -46 -5l9 80q60 33 133 33q62 0 89.5 -30.5t27.5 -89.5q0 -63 -51 -202t-127.5 -299t-146.5 -279q-71 -125 -123.5 -201t-119.5 -127.5t-147 -51.5q-71 0 -118 32.5z" />
    <glyph glyph-name="ydieresis" unicode="&#xff;" horiz-adv-x="778" 
d="M18 1034q22 -19 52 -19q35 0 63 22.5t34 58.5q1 4 1 12q0 29 -21 47t-52 18q-37 0 -68 -25t-31 -65q0 -30 22 -49zM285.5 1033.5q21.5 -18.5 51.5 -18.5q35 0 64 22.5t35 58.5q1 4 1 11q0 29 -21.5 47.5t-53.5 18.5q-37 0 -67.5 -25t-30.5 -65q0 -31 21.5 -49.5z
M-73 -349.5q-47 32.5 -47 92.5q0 28 12 56t35 51q44 -30 81.5 -43t79.5 -13q84 0 143 50t104 156l-160 697q-8 37 -20.5 55t-29 24t-44.5 6l-40 -1l9 80q64 33 143 33q56 0 83.5 -24.5t38.5 -63.5t26 -129l91 -534q61 109 121 274.5t60 328.5q0 22 -18 33t-48 11
q-26 0 -46 -5l9 80q60 33 133 33q62 0 89.5 -30.5t27.5 -89.5q0 -63 -51 -202t-127.5 -299t-146.5 -279q-71 -125 -123.5 -201t-119.5 -127.5t-147 -51.5q-71 0 -118 32.5z" />
    <glyph glyph-name="z" unicode="z" horiz-adv-x="778" 
d="M172.5 37q15.5 7 39.5 7q29 0 68 -14l133 -48q39 -14 70 -21.5t59 -7.5q62 0 115 43t101 148l-62 28q-29 -42 -49.5 -59t-44.5 -17q-14 0 -31 4.5t-45 15.5l-97 40q-24 10 -62 10q-42 0 -80 -9t-44 -10l-4 4l513 655v68h-607l-36 -280l68 -13l68 168h339l-574 -723
l91 -41l33 29q23 16 38.5 23z" />
    <glyph glyph-name="zcaron" unicode="&#x17e;" horiz-adv-x="818" 
d="M537 993l58 14l200 179l-39 31l-145 -140h-10l-126 143l-91 -61zM57 0h671l84 267l-65 8l-123 -176h-360l613 700l11 74h-672l-50 -265l75 -13l89 185h337l-600 -693z" />
    <glyph glyph-name="f.i" horiz-adv-x="1075" 
d="M690 758q68 -3 104 -21t36 -59q0 -5 -2 -19l-68 -465q-7 -51 -7 -78q0 -70 33.5 -101.5t111.5 -31.5q39 0 77.5 9.5t63.5 22.5l8 81q-43 -1 -68.5 2.5t-42 20.5t-16.5 53q0 30 5.5 75.5t17.5 130.5l46 315q6 41 6 74q0 61 -29.5 90t-103.5 29q-70 0 -207.5 -10.5
t-195.5 -17.5l17 98q21 123 69.5 172.5t127.5 49.5q50 0 107 -39t89 -79q45 17 68.5 49t23.5 64q0 65 -46.5 99t-140.5 34q-100 0 -200 -57.5t-173 -157t-95 -219.5l-157 -36l-14 -68h153l-66 -669q-7 -69 -16.5 -98.5t-26.5 -60.5h156q14 19 28 69.5t22 125.5l65 633z" />
    <glyph glyph-name="f.l" horiz-adv-x="1121" 
d="M970.5 -7.5q38.5 9.5 63.5 22.5l8 81q-43 -1 -68.5 2.5t-42 20.5t-16.5 53q0 77 23 206l140 794q-7 23 -48 55t-112 55.5t-164 23.5q-80 0 -177 -58.5t-173 -158.5t-98 -217l-157 -36l-14 -68h153l-66 -669q-7 -69 -16.5 -98.5t-26.5 -60.5h156q14 19 28 69.5t22 125.5
l65 633h276l24 90h-291l17 98q38 222 237 222q48 0 109.5 -14.5t81.5 -31.5l-149 -938q-7 -41 -7 -78q0 -70 33.5 -101.5t111.5 -31.5q39 0 77.5 9.5z" />
    <glyph glyph-name="germandbls.sc.alt" horiz-adv-x="1063" 
d="M1037 98q-56 -58 -137 -90t-165 -32q-117 0 -188 21t-105 62l73 250l100 -14l-5 -151q19 -25 36 -39t45 -22t74 -8q72 0 116.5 29t52.5 81q1 5 1 14q0 36 -29.5 69t-75 63t-132.5 81l-85 49l-15 48l337 314l1 5q-61 29 -120.5 36.5t-143.5 7.5q-105 0 -165.5 -72.5
t-85.5 -228.5l-90 -571h-331l20 73l139 37l70 438q33 204 167 302.5t347 98.5q112 0 224.5 -8.5t170.5 -19.5l-11 -74l-299 -287q17 -11 31.5 -19.5t27.5 -16.5q85 -51 127.5 -82t68.5 -71.5t26 -96.5q0 -12 -4 -44q-12 -74 -68 -132z" />
    <glyph glyph-name="a.sc" horiz-adv-x="1077" 
d="M954 124l100 -44l-22 -80h-445l24 74l138 47l-34 189h-297l-98 -186l139 -44l-24 -80h-398l21 74l127 55l449 788l156 31zM471 412h225l-58 318z" />
    <glyph glyph-name="aacute.sc" horiz-adv-x="1077" 
d="M960 1339l-233 -318l-46 32l174 325zM954 124l100 -44l-22 -80h-445l24 74l138 47l-34 189h-297l-98 -186l139 -44l-24 -80h-398l21 74l127 55l449 788l156 31zM471 412h225l-58 318z" />
    <glyph glyph-name="acircumflex.sc" horiz-adv-x="1077" 
d="M726 1139l-155 -111l-35 30l196 179l58 15l149 -186l-56 -37l-145 110h-12zM954 124l100 -44l-22 -80h-445l24 74l138 47l-34 189h-297l-98 -186l139 -44l-24 -80h-398l21 74l127 55l449 788l156 31zM471 412h225l-58 318z" />
    <glyph glyph-name="adieresis.sc" horiz-adv-x="1077" 
d="M540.5 1046q-21.5 19 -21.5 50q0 26 15 46.5t37.5 32t45.5 11.5q31 0 53 -18.5t22 -47.5q0 -7 -1 -11q-6 -36 -35.5 -59t-63.5 -23q-30 0 -51.5 19zM808.5 1046q-21.5 19 -21.5 50q0 26 15 46.5t37.5 32t45.5 11.5q31 0 53.5 -18.5t22.5 -47.5q0 -26 -15 -47.5
t-38.5 -33.5t-47.5 -12q-30 0 -51.5 19zM954 124l100 -44l-22 -80h-445l24 74l138 47l-34 189h-297l-98 -186l139 -44l-24 -80h-398l21 74l127 55l449 788l156 31zM471 412h225l-58 318z" />
    <glyph glyph-name="agrave.sc" horiz-adv-x="1037" 
d="M757 1055l-61 -35l-139 330l121 38zM935 124l100 -44l-22 -80h-445l24 74l138 47l-34 189h-297l-98 -186l139 -44l-24 -80h-398l21 74l127 55l449 788l156 31zM452 412h225l-58 318z" />
    <glyph glyph-name="aring.sc" horiz-adv-x="1077" 
d="M619.5 1041.5q-34.5 34.5 -34.5 95.5q0 18 3 36q7 45 36 85t71.5 63.5t87.5 23.5q63 0 98 -36t35 -95q0 -15 -3 -32q-7 -45 -35 -85.5t-71 -65t-92 -24.5q-61 0 -95.5 34.5zM659 1154q0 -42 19.5 -70t56.5 -28q41 0 68 29.5t36 84.5q2 18 2 27q0 42 -20 70.5t-58 28.5
q-41 0 -67.5 -32.5t-33.5 -79.5q-3 -15 -3 -30zM954 124l100 -44l-22 -80h-445l24 74l138 47l-34 189h-297l-98 -186l139 -44l-24 -80h-398l21 74l127 55l449 788l156 31zM471 412h225l-58 318z" />
    <glyph glyph-name="atilde.sc" horiz-adv-x="1077" 
d="M589.5 1063q-14.5 -11 -25.5 -23.5t-14 -16.5l-39 9q0 4 21.5 41.5t54.5 69.5t73 32l10 -1l221 -29q11 -1 25 7.5t24.5 19l13.5 13.5l49 -2q0 -4 -23 -42t-57.5 -70t-74.5 -32q-7 0 -11 1l-221 32q-12 2 -26.5 -9zM954 124l100 -44l-22 -80h-445l24 74l138 47l-34 189
h-297l-98 -186l139 -44l-24 -80h-398l21 74l127 55l449 788l156 31zM471 412h225l-58 318z" />
    <glyph glyph-name="ae.sc" horiz-adv-x="1452" 
d="M512 327h273l-33 -206l-144 -47l-20 -74h809l62 263l-92 13l-96 -180h-335l50 314h161l-9 -125l93 13l82 299l-101 -14l-34 -80h-177l52 332h301l5 -168l97 -13l64 273h-913l-22 -76l198 -39l-565 -681l-145 -55l-21 -75h415l26 82l-141 43zM852 754l-52 -331h-211z" />
    <glyph glyph-name="b.sc" horiz-adv-x="943" 
d="M728.5 41q105.5 41 159 106t65.5 143q3 21 3 41q0 82 -60 127.5t-178 50.5l1 7q99 29 150 87t61 124q3 17 3 34q0 86 -73 141t-222 55q-103 0 -203.5 -12t-236.5 -34l-22 -77l136 -30l-108 -683l-144 -47l-23 -74h428q158 0 263.5 41zM565 871q99 0 141.5 -37.5
t42.5 -95.5q0 -19 -2 -29q-12 -73 -37.5 -114t-83.5 -70h-166l54 343q26 3 51 3zM580 442q86 0 131.5 -39.5t45.5 -99.5q0 -8 -2 -26q-14 -86 -73.5 -133.5t-159.5 -47.5h-130l55 346h133z" />
    <glyph glyph-name="c.sc" horiz-adv-x="879" 
d="M698 15.5q94 39.5 164 99.5l-23 76q-68 -41 -129 -62t-154 -21q-66 0 -123.5 35t-92.5 104t-35 164q0 44 7 87q17 109 61 189t107.5 122.5t140.5 42.5t113.5 -21t52.5 -56l-4 -160l96 -13l65 278q-48 35 -118 51t-153 16q-161 0 -282.5 -77.5t-192 -194.5t-89.5 -236
q-8 -53 -8 -94q0 -116 49 -199.5t132.5 -126.5t185.5 -43q136 0 230 39.5z" />
    <glyph glyph-name="ccedilla.sc" horiz-adv-x="879" 
d="M783 615l4 160q-16 35 -52.5 56t-113.5 21t-140.5 -42.5t-107.5 -122.5t-61 -189q-7 -43 -7 -87q0 -95 35 -164t92.5 -104t123.5 -35q93 0 154 21t129 62l23 -76q-128 -112 -303 -133l-51 -62q29 -29 48 -60.5t19 -69.5q0 -64 -60 -108.5t-168 -74.5l-10 58
q47 15 73.5 40.5t26.5 50.5q0 41 -57 102l101 118h-13q-102 0 -185.5 43t-132.5 126.5t-49 199.5q0 41 8 94q19 119 89.5 236t192 194.5t282.5 77.5q83 0 153 -16t118 -51l-65 -278z" />
    <glyph glyph-name="d.sc" horiz-adv-x="1061" 
d="M751.5 67q149.5 67 239 180.5t110.5 250.5q7 43 7 91q0 160 -110.5 258t-365.5 98q-171 0 -441 -49l-21 -76l147 -30l-105 -661l-150 -55l-26 -74h374q192 0 341.5 67zM578 842q157 0 235.5 -72t78.5 -210q0 -43 -8 -97q-27 -168 -136 -263.5t-294 -95.5h-55l117 734
q21 4 62 4z" />
    <glyph glyph-name="eth.sc" horiz-adv-x="1034" 
d="M1038.5 847q110.5 -98 110.5 -258q0 -48 -7 -91q-21 -137 -110.5 -250.5t-239 -180.5t-341.5 -67h-374l26 74l150 55l44 274l-152 -10l26 92l140 9l47 296l-147 30l21 76q270 49 441 49q255 0 365.5 -98zM933 560q0 138 -78.5 210t-235.5 72q-41 0 -62 -4l-53 -331
l211 14l-27 -91l-198 -14l-50 -312h55q185 0 294 95.5t136 263.5q8 54 8 97z" />
    <glyph glyph-name="e.sc" horiz-adv-x="925" 
d="M317 809l-109 -688l-144 -47l-20 -74h825l62 263l-92 13l-96 -180h-345l50 314h161l-9 -125l93 13l82 299l-101 -14l-34 -80h-177l52 332h311l5 -168l97 -13l64 273h-797l-23 -76z" />
    <glyph glyph-name="eacute.sc" horiz-adv-x="802" 
d="M625 1019l234 318l-105 39l-175 -325zM309 809l-109 -688l-144 -47l-20 -74h825l62 263l-92 13l-96 -180h-345l50 314h161l-9 -125l93 13l82 299l-101 -14l-34 -80h-177l52 332h311l5 -168l97 -13l64 273h-797l-23 -76z" />
    <glyph glyph-name="ecircumflex.sc" horiz-adv-x="925" 
d="M487 1026l156 111h11l146 -110l55 37l-149 186l-57 -15l-197 -179zM317 809l-109 -688l-144 -47l-20 -74h825l62 263l-92 13l-96 -180h-345l50 314h161l-9 -125l93 13l82 299l-101 -14l-34 -80h-177l52 332h311l5 -168l97 -13l64 273h-797l-23 -76z" />
    <glyph glyph-name="edieresis.sc" horiz-adv-x="925" 
d="M565.5 1047q29.5 23 35.5 59q1 4 1 11q0 29 -22 47.5t-53 18.5q-22 0 -45 -11.5t-37.5 -32t-14.5 -46.5q0 -31 21 -50t51 -19q34 0 63.5 23zM817.5 1036q23.5 12 39 33.5t15.5 47.5q0 29 -22.5 47.5t-54.5 18.5q-22 0 -45 -11.5t-37.5 -32t-14.5 -46.5q0 -31 21 -50
t51 -19q24 0 47.5 12zM317 809l-109 -688l-144 -47l-20 -74h825l62 263l-92 13l-96 -180h-345l50 314h161l-9 -125l93 13l82 299l-101 -14l-34 -80h-177l52 332h311l5 -168l97 -13l64 273h-797l-23 -76z" />
    <glyph glyph-name="egrave.sc" horiz-adv-x="802" 
d="M626 1011l62 35l-80 333l-121 -38zM309 809l-109 -688l-144 -47l-20 -74h825l62 263l-92 13l-96 -180h-345l50 314h161l-9 -125l93 13l82 299l-101 -14l-34 -80h-177l52 332h311l5 -168l97 -13l64 273h-797l-23 -76z" />
    <glyph glyph-name="f.sc" horiz-adv-x="899" 
d="M318 812l-110 -691l-144 -47l-20 -74h521l26 83l-192 39l44 256h206l-3 -116l96 14l73 292l-100 -14l-39 -84h-219l59 368h325l-6 -166l101 -14l72 272h-813l-23 -76z" />
    <glyph glyph-name="g.sc" horiz-adv-x="1044" 
d="M712 -17q99 14 185 46l40 256l107 32l28 84h-476l-26 -83l180 -38l-26 -168q-23 -20 -61.5 -27.5t-116.5 -7.5q-115 0 -176 76t-61 213q0 46 10 114q20 125 72 207.5t121.5 121.5t144.5 39q71 0 126.5 -19t79.5 -41v-165l104 -15l71 292q-55 22 -135.5 34.5t-179.5 12.5
q-145 0 -277.5 -66.5t-224 -186.5t-115.5 -273q-8 -51 -8 -93q0 -106 42.5 -187t129.5 -126.5t216 -45.5q127 0 226 14z" />
    <glyph glyph-name="h.sc" horiz-adv-x="1195" 
d="M318 812l-110 -691l-144 -47l-20 -74h481l26 80l-149 34l46 291h425l-45 -284l-143 -47l-22 -74h483l23 80l-147 34l111 702l143 38l24 76h-486l-23 -76l147 -42l-49 -304h-425l49 308l144 38l22 76h-484l-23 -76z" />
    <glyph glyph-name="i.sc" horiz-adv-x="574" 
d="M318 812l-110 -691l-144 -47l-20 -74h480l23 80l-146 34l111 702l145 38l22 76h-484l-23 -76z" />
    <glyph glyph-name="iacute.sc" horiz-adv-x="574" 
d="M420 1023l233 318l-104 39l-175 -325zM318 812l-110 -691l-144 -47l-20 -74h480l23 80l-146 34l111 702l145 38l22 76h-484l-23 -76z" />
    <glyph glyph-name="icircumflex.sc" horiz-adv-x="574" 
d="M291 1027l157 111h10l147 -110l54 37l-149 186l-56 -15l-197 -179zM318 812l-110 -691l-144 -47l-20 -74h480l23 80l-146 34l111 702l145 38l22 76h-484l-23 -76z" />
    <glyph glyph-name="idieresis.sc" horiz-adv-x="574" 
d="M388.5 1050q29.5 23 35.5 59q1 4 1 11q0 29 -22 47.5t-53 18.5q-23 0 -45.5 -11.5t-37.5 -32t-15 -46.5q0 -31 21.5 -50t51.5 -19q34 0 63.5 23zM657 1050q30 23 36 59q1 4 1 11q0 29 -22.5 47.5t-53.5 18.5q-23 0 -45.5 -11.5t-37.5 -32t-15 -46.5q0 -31 21.5 -50
t51.5 -19q34 0 64 23zM318 812l-110 -691l-144 -47l-20 -74h480l23 80l-146 34l111 702l145 38l22 76h-484l-23 -76z" />
    <glyph glyph-name="igrave.sc" horiz-adv-x="574" 
d="M453 1010l62 35l-80 333l-121 -38zM318 812l-110 -691l-144 -47l-20 -74h480l23 80l-146 34l111 702l145 38l22 76h-484l-23 -76z" />
    <glyph glyph-name="j.sc" horiz-adv-x="651" 
d="M294.5 -162.5q88.5 73.5 139 179.5t79.5 288l81 511l146 38l22 76h-485l-22 -76l145 -42l-103 -645q-17 -108 -89.5 -202.5t-210.5 -201.5l40 -89q169 90 257.5 163.5z" />
    <glyph glyph-name="k.sc" horiz-adv-x="1115" 
d="M323 803l-107 -674l-150 -55l-22 -74h503l24 80l-162 44l108 683l139 47l22 76h-480l-26 -76zM575 258q59 -121 150.5 -200t208.5 -79q67 0 134 22l21 69l-44 13q-81 26 -153 103.5t-143 188.5l-74 117l348 319l147 40l24 79h-413l-20 -76l112 -39l-216 -199
q-85 -78 -170 -150l-3 -21z" />
    <glyph glyph-name="l.sc" horiz-adv-x="929" 
d="M864 0l73 281l-100 14l-127 -199h-306l113 711l158 47l22 76h-500l-25 -76l150 -51l-108 -682l-143 -47l-21 -74h814z" />
    <glyph glyph-name="m.sc" horiz-adv-x="1449" 
d="M455 0l26 80l-148 34l130 549l167 -622l132 19l393 659l-62 -598l-153 -47l-23 -74h486l23 80l-147 34l69 702l144 38l22 76h-374l-99 -161l-265 -447l-169 608h-357l-22 -76l147 -42l-173 -691l-144 -47l-23 -74h420z" />
    <glyph glyph-name="n.sc" horiz-adv-x="1169" 
d="M316 803l-108 -682l-144 -47l-20 -74h416l24 80l-149 34l84 533l378 -667l158 31l127 805l173 38l25 76h-442l-24 -76l146 -42l-85 -537l-370 655h-310l-23 -76z" />
    <glyph glyph-name="ntilde.sc" horiz-adv-x="1120" 
d="M545 1055.5q11 12.5 26 23.5t27 9l219 -32q4 -1 11 -1q40 0 74.5 32t58 70t23.5 42l-48 2q-3 -3 -13 -13.5t-24 -19t-25 -7.5l-222 29l-10 1q-40 0 -72.5 -32t-54 -69.5t-21.5 -41.5l37 -9q3 4 14 16.5zM316 803l-108 -682l-144 -47l-20 -74h416l24 80l-149 34l84 533
l378 -667l158 31l127 805l173 38l25 76h-442l-24 -76l146 -42l-85 -537l-370 655h-310l-23 -76z" />
    <glyph glyph-name="o.sc" horiz-adv-x="1034" 
d="M766.5 39q125.5 66 203 176.5t98.5 242.5q7 43 7 92q0 113 -45 203t-132.5 142t-209.5 52q-152 0 -275 -62t-201 -172.5t-101 -254.5q-7 -45 -7 -92q0 -114 45.5 -203t131.5 -139.5t203 -50.5q157 0 282.5 66zM802 761q54 -90 54 -227q0 -55 -10 -122q-23 -145 -94 -239
t-211 -94q-115 0 -169.5 87t-54.5 225q0 64 10 124q54 336 308 336q113 0 167 -90z" />
    <glyph glyph-name="oacute.sc" horiz-adv-x="1034" 
d="M670 1019l234 318l-105 39l-175 -325zM766.5 39q125.5 66 203 176.5t98.5 242.5q7 43 7 92q0 113 -45 203t-132.5 142t-209.5 52q-152 0 -275 -62t-201 -172.5t-101 -254.5q-7 -45 -7 -92q0 -114 45.5 -203t131.5 -139.5t203 -50.5q157 0 282.5 66zM802 761
q54 -90 54 -227q0 -55 -10 -122q-23 -145 -94 -239t-211 -94q-115 0 -169.5 87t-54.5 225q0 64 10 124q54 336 308 336q113 0 167 -90z" />
    <glyph glyph-name="ocircumflex.sc" horiz-adv-x="1034" 
d="M523 1019l157 111h11l146 -110l54 37l-148 186l-58 -15l-196 -179zM766.5 39q125.5 66 203 176.5t98.5 242.5q7 43 7 92q0 113 -45 203t-132.5 142t-209.5 52q-152 0 -275 -62t-201 -172.5t-101 -254.5q-7 -45 -7 -92q0 -114 45.5 -203t131.5 -139.5t203 -50.5
q157 0 282.5 66zM802 761q54 -90 54 -227q0 -55 -10 -122q-23 -145 -94 -239t-211 -94q-115 0 -169.5 87t-54.5 225q0 64 10 124q54 336 308 336q113 0 167 -90z" />
    <glyph glyph-name="odieresis.sc" horiz-adv-x="1034" 
d="M619.5 1062q29.5 23 35.5 59q1 4 1 11q0 29 -22 47.5t-53 18.5q-23 0 -45.5 -11.5t-37.5 -32t-15 -46.5q0 -31 21.5 -50t51.5 -19q34 0 63.5 23zM888 1062q30 23 36 59q1 4 1 11q0 29 -22.5 47.5t-53.5 18.5q-23 0 -45.5 -11.5t-37.5 -32t-15 -46.5q0 -31 21.5 -50
t51.5 -19q34 0 64 23zM766.5 39q125.5 66 203 176.5t98.5 242.5q7 43 7 92q0 113 -45 203t-132.5 142t-209.5 52q-152 0 -275 -62t-201 -172.5t-101 -254.5q-7 -45 -7 -92q0 -114 45.5 -203t131.5 -139.5t203 -50.5q157 0 282.5 66zM802 761q54 -90 54 -227q0 -55 -10 -122
q-23 -145 -94 -239t-211 -94q-115 0 -169.5 87t-54.5 225q0 64 10 124q54 336 308 336q113 0 167 -90z" />
    <glyph glyph-name="ograve.sc" horiz-adv-x="1034" 
d="M677 1016l61 35l-79 333l-121 -38zM766.5 39q125.5 66 203 176.5t98.5 242.5q7 43 7 92q0 113 -45 203t-132.5 142t-209.5 52q-152 0 -275 -62t-201 -172.5t-101 -254.5q-7 -45 -7 -92q0 -114 45.5 -203t131.5 -139.5t203 -50.5q157 0 282.5 66zM802 761q54 -90 54 -227
q0 -55 -10 -122q-23 -145 -94 -239t-211 -94q-115 0 -169.5 87t-54.5 225q0 64 10 124q54 336 308 336q113 0 167 -90z" />
    <glyph glyph-name="oslash.sc" horiz-adv-x="933" 
d="M986 792q33 -50 50 -112t17 -130q0 -49 -7 -92q-21 -132 -98.5 -242.5t-203 -176.5t-282.5 -66q-124 0 -215 58l-66 -72l-164 -5l148 150q-41 51 -62 118t-21 144q0 47 7 92q23 144 101 254.5t201 172.5t275 62q145 0 243 -74l69 74l156 7zM295 391q0 -94 25 -165
l480 497q-26 60 -72.5 94t-114.5 34q-254 0 -308 -336q-10 -70 -10 -124zM834 533q0 63 -12 120l-474 -485q58 -89 171 -89q140 0 211 94t94 239q10 67 10 121z" />
    <glyph glyph-name="otilde.sc" horiz-adv-x="1034" 
d="M497 1055.5q11 12.5 25.5 23.5t26.5 9l220 -32q4 -1 11 -1q40 0 74.5 32t58 70t23.5 42l-49 2q-3 -3 -13 -13.5t-24 -19t-25 -7.5l-222 29l-10 1q-40 0 -72.5 -32t-54 -69.5t-21.5 -41.5l38 -9q3 4 14 16.5zM766.5 39q125.5 66 203 176.5t98.5 242.5q7 43 7 92
q0 113 -45 203t-132.5 142t-209.5 52q-152 0 -275 -62t-201 -172.5t-101 -254.5q-7 -45 -7 -92q0 -114 45.5 -203t131.5 -139.5t203 -50.5q157 0 282.5 66zM802 761q54 -90 54 -227q0 -55 -10 -122q-23 -145 -94 -239t-211 -94q-115 0 -169.5 87t-54.5 225q0 64 10 124
q54 336 308 336q113 0 167 -90z" />
    <glyph glyph-name="p.sc" horiz-adv-x="932" 
d="M587 83l-191 39l117 738q6 1 24.5 2.5t38.5 1.5q114 0 168 -51t54 -136q0 -26 -4 -49q-16 -101 -81.5 -162t-162.5 -63l-53 -1l5 -83q114 -4 222 34.5t183 116t92 184.5q5 33 5 56q0 237 -374 237q-101 0 -204.5 -12t-228.5 -32l-22 -77l136 -30l-107 -675l-144 -47
l-23 -74h523z" />
    <glyph glyph-name="thorn.sc" horiz-adv-x="977" 
d="M903.5 720q97.5 -49 97.5 -172q0 -28 -4 -52q-16 -101 -90 -174t-182 -109t-222 -32l-5 82l53 2q97 4 161.5 58.5t78.5 146.5q4 21 4 45q0 78 -49.5 124.5t-154.5 46.5q-21 0 -57 -3l-90 -569l146 -34l-23 -80h-480l20 74l144 47l110 691l-146 42l23 76h491l-22 -76
l-152 -38l-8 -50q49 3 98 3q161 0 258.5 -49z" />
    <glyph glyph-name="q.sc" horiz-adv-x="1027" 
d="M517 -109q0 -64 26 -113.5t75.5 -77t116.5 -27.5q90 0 176 46q6 13 12.5 35t9.5 41q-242 -6 -301 199q114 28 205.5 100t150 173.5t76.5 215.5q7 42 7 88q0 108 -44 193t-130.5 134t-210.5 49q-147 0 -270.5 -63t-203.5 -175t-102 -254q-7 -43 -7 -91q0 -116 48 -207
t143.5 -141.5t232.5 -45.5q-10 -47 -10 -79zM750.5 806q52.5 -47 79.5 -125t27 -170q0 -50 -7 -93q-22 -135 -85.5 -226.5t-189.5 -124.5q-88 1 -146.5 47.5t-86.5 123.5t-28 174q0 56 9 114q25 155 104.5 241t196.5 86q74 0 126.5 -47z" />
    <glyph glyph-name="r.sc" horiz-adv-x="1094" 
d="M564 83l-170 43l38 242h174l20 -94q28 -131 102.5 -207.5t182.5 -76.5q69 0 134 20l26 70l-32 10q-60 18 -114.5 74.5t-97.5 134.5l-73 131v1q86 34 154.5 103t81.5 154q3 21 3 41q0 105 -93 161.5t-270 56.5q-93 0 -196.5 -12t-236.5 -34l-22 -77l146 -30l-107 -673
l-154 -47l-23 -74h504zM540 861q24 2 54 2q98 0 151 -47t53 -126q0 -18 -3 -38q-12 -76 -54 -127t-95 -66h-199l63 399q6 1 30 3z" />
    <glyph glyph-name="s.sc" horiz-adv-x="714" 
d="M513.5 11q80.5 35 136 98t68.5 145q3 18 3 33q0 55 -29 97t-70.5 72t-109.5 68q-61 35 -96 59.5t-59 57t-24 72.5q0 7 2 21q10 65 51 97t108 32q40 0 69.5 -19.5t40.5 -47.5l-9 -149l98 -12q10 40 31.5 129t31.5 133q-88 50 -216 50q-86 0 -166.5 -33.5t-137 -97.5
t-70.5 -151q-4 -30 -4 -44q0 -63 30 -110t72.5 -78.5t110.5 -70.5q55 -32 86 -53t51.5 -49t20.5 -63q0 -40 -23.5 -67.5t-59 -41t-71.5 -13.5q-49 0 -79 8t-48 22t-38 39l5 151l-100 14l-73 -250q36 -41 109.5 -62t193.5 -21q84 0 164.5 35z" />
    <glyph glyph-name="germandbls.sc" horiz-adv-x="1102" 
d="M738 703q0 -41 24.5 -74.5t60.5 -59t98 -62.5q67 -40 107.5 -69.5t69 -70t28.5 -92.5q0 -14 -3 -31q-13 -79 -68 -140t-135.5 -94.5t-164.5 -33.5q-120 0 -193.5 21t-109.5 62l73 250l100 -14l-5 -151q20 -25 38 -39t48 -22t79 -8q52 0 98.5 26.5t54.5 77.5q1 5 1 15
q0 30 -20.5 56.5t-51.5 48t-84 52.5q-68 40 -112 71.5t-74.5 77t-30.5 104.5q0 18 3 37q14 88 71.5 146.5t131.5 79.5l3 3q-30 2 -43 2q-131 0 -203.5 -72t-97.5 -229l-90 -571h-331l20 73l139 37l70 438q33 204 180.5 302.5t383.5 98.5q85 0 168.5 -14.5t141 -50.5
t57.5 -96q0 -5 -2 -19q-9 -54 -43 -84t-100 -51q-9 92 -41 150.5t-104 58.5q-51 0 -91 -29.5t-49 -89.5q-2 -14 -2 -21z" />
    <glyph glyph-name="t.sc" horiz-adv-x="936" 
d="M151 658l89 -13l78 193h186l-114 -717l-146 -47l-19 -74h489l27 80l-160 34l115 724h170l10 -182l93 -15l75 289h-856z" />
    <glyph glyph-name="u.sc" horiz-adv-x="1142" 
d="M241 319q-7 -43 -7 -85q0 -261 314 -261q196 0 312.5 92t151.5 300l76 451l142 38l23 76h-418l-22 -76l147 -42l-79 -480q-21 -127 -85.5 -177t-176.5 -50q-185 0 -185 181q0 34 6 74l72 456l145 38l21 75h-482l-25 -75l148 -42z" />
    <glyph glyph-name="uacute.sc" horiz-adv-x="1142" 
d="M754 1022l232 318l-104 39l-175 -325zM251 319q-7 -43 -7 -85q0 -261 314 -261q196 0 312.5 92t151.5 300l76 451l142 38l23 76h-418l-22 -76l147 -42l-79 -480q-21 -127 -85.5 -177t-176.5 -50q-185 0 -185 181q0 34 6 74l72 456l145 38l21 76h-482l-25 -76l148 -42z
" />
    <glyph glyph-name="ucircumflex.sc" horiz-adv-x="1152" 
d="M592 1025l157 111h11l146 -110l54 37l-148 186l-58 -15l-196 -179zM251 319q-7 -43 -7 -85q0 -261 314 -261q196 0 312.5 92t151.5 300l76 451l142 38l23 76h-418l-22 -76l147 -42l-79 -480q-21 -127 -85.5 -177t-176.5 -50q-185 0 -185 181q0 34 6 74l72 456l145 38
l21 76h-482l-25 -76l148 -42z" />
    <glyph glyph-name="udieresis.sc" horiz-adv-x="1152" 
d="M697.5 1082q29.5 23 35.5 59q1 4 1 11q0 29 -22 47.5t-53 18.5q-22 0 -45 -11.5t-37.5 -32t-14.5 -46.5q0 -31 21 -50t51 -19q34 0 63.5 23zM949.5 1071q23.5 12 39 33.5t15.5 47.5q0 29 -22.5 47.5t-54.5 18.5q-22 0 -45 -11.5t-37.5 -32t-14.5 -46.5q0 -31 21 -50
t51 -19q24 0 47.5 12zM251 319q-7 -43 -7 -85q0 -261 314 -261q196 0 312.5 92t151.5 300l76 451l142 38l23 76h-418l-22 -76l147 -42l-79 -480q-21 -127 -85.5 -177t-176.5 -50q-185 0 -185 181q0 34 6 74l72 456l145 38l21 76h-482l-25 -76l148 -42z" />
    <glyph glyph-name="ugrave.sc" horiz-adv-x="1142" 
d="M742 1012l62 35l-79 333l-120 -38zM251 319q-7 -43 -7 -85q0 -261 314 -261q196 0 312.5 92t151.5 300l76 451l142 38l23 76h-418l-22 -76l147 -42l-79 -480q-21 -127 -85.5 -177t-176.5 -50q-185 0 -185 181q0 34 6 74l72 456l145 38l21 76h-482l-25 -76l148 -42z" />
    <glyph glyph-name="v.sc" horiz-adv-x="1082" 
d="M289 812l171 -836l157 28l444 812l110 38l19 76h-377l-19 -76l126 -42l-302 -571l-108 575l135 38l22 76h-473l-22 -76z" />
    <glyph glyph-name="w.sc" horiz-adv-x="1523" 
d="M296 812l104 -836l168 28l285 633l75 -661l159 28l394 812l129 38l23 76h-419l-23 -76l145 -42l-246 -525l-68 618l-180 -25l-277 -609l-68 545l153 38l27 76h-484l-21 -76z" />
    <glyph glyph-name="x.sc" horiz-adv-x="1021" 
d="M427 0l28 83l-120 34l210 246l123 -252l-106 -37l-25 -74h433l26 80l-120 34l-181 377l279 325l123 38l20 76h-375l-25 -78l114 -40l-198 -228l-117 233l120 35l22 78h-453l-24 -78l120 -43l182 -360l-298 -328l-124 -45l-24 -76h390z" />
    <glyph glyph-name="y.sc" horiz-adv-x="1001" 
d="M294 812l181 -452l-38 -239l-147 -47l-22 -74h484l23 80l-146 34l43 271l316 431l101 38l22 76h-355l-22 -76l117 -42l-219 -319l-125 323l124 38l24 76h-458l-25 -76z" />
    <glyph glyph-name="yacute.sc" horiz-adv-x="1001" 
d="M691 1021l233 318l-105 39l-174 -325zM269 812l181 -452l-38 -239l-147 -47l-22 -74h484l23 80l-146 34l43 271l316 431l101 38l22 76h-355l-22 -76l117 -42l-219 -319l-125 323l124 38l24 76h-458l-25 -76z" />
    <glyph glyph-name="ydieresis.sc" horiz-adv-x="2048" 
d="M596.5 1078q29.5 23 35.5 59q1 4 1 11q0 29 -22 47.5t-53 18.5q-23 0 -45.5 -11.5t-37.5 -32t-15 -46.5q0 -31 21.5 -50t51.5 -19q34 0 63.5 23zM865 1078q30 23 36 59q1 4 1 11q0 29 -22.5 47.5t-53.5 18.5q-23 0 -45.5 -11.5t-37.5 -32t-15 -46.5q0 -31 21.5 -50
t51.5 -19q34 0 64 23zM263 812l181 -452l-38 -239l-147 -47l-22 -74h484l23 80l-146 34l43 271l316 431l101 38l22 76h-355l-22 -76l117 -42l-219 -319l-125 323l124 38l24 76h-458l-25 -76z" />
    <glyph glyph-name="z.sc" horiz-adv-x="899" 
d="M45 0h781l82 285l-92 16l-131 -201h-411l702 754l12 76h-754l-52 -273l97 -18l97 196h357l-680 -731z" />
    <glyph glyph-name="ordfeminine" unicode="&#xaa;" horiz-adv-x="761" 
d="M103 555q41 -40 101 -40q88 0 139.5 37t86.5 87h9q-1 -6 -1 -17q0 -43 33 -72.5t101 -29.5q38 0 63 9.5t60 36.5l21 62l-41 7q-45 8 -63 25t-18 53q0 16 3 35l38 260q6 39 6 72q0 86 -41.5 130t-131.5 44q-59 0 -132.5 -26.5t-125.5 -70t-52 -91.5q0 -43 23.5 -66
t68.5 -23q14 0 21 1q19 76 33.5 115t36 58t55.5 19q50 0 70.5 -27.5t20.5 -77.5q0 -41 -10 -99l-5 -34q-136 0 -228 -38.5t-137 -101.5t-45 -137q0 -60 41 -100zM436 709l-15 -14q-32 -31 -58 -47.5t-60 -16.5q-38 0 -55.5 20t-17.5 50q0 70 55.5 111t176.5 62z" />
    <glyph glyph-name="ordmasculine" unicode="&#xba;" horiz-adv-x="826" 
d="M92 652.5q34 -65.5 101 -102t163 -36.5q110 0 207 58t156 161.5t59 235.5q0 133 -74.5 211t-209.5 78q-106 0 -206.5 -55.5t-165 -159t-64.5 -240.5q0 -85 34 -150.5zM564.5 1112q35.5 -63 35.5 -164q0 -89 -21.5 -169.5t-69.5 -132.5t-122 -52q-87 0 -120 57.5
t-33 159.5q0 152 49.5 258t161.5 106q84 0 119.5 -63z" />
    <glyph glyph-name="zero" unicode="0" horiz-adv-x="971" 
d="M144 67.5q93 -94.5 249 -94.5q126 0 248 93.5t200.5 276.5t78.5 436q0 211 -87.5 317.5t-240.5 106.5q-138 0 -263 -102t-201.5 -289t-76.5 -429q0 -221 93 -315.5zM679.5 1026.5q35.5 -71.5 35.5 -191.5q0 -178 -38 -356t-107 -293.5t-157 -115.5q-81 0 -119 72t-38 193
q0 180 37 357t108.5 291.5t167.5 114.5q75 0 110.5 -71.5z" />
    <glyph glyph-name="one" unicode="1" horiz-adv-x="837" 
d="M770 0l23 83l-257 31l170 1071h-27l-434 -77l-18 -77h250l-144 -910l-271 -47l-19 -74h727z" />
    <glyph glyph-name="two" unicode="2" horiz-adv-x="1014" 
d="M824 0l105 358l-69 10l-138 -217h-454l83 54q175 113 298 208.5t221 233t98 296.5q0 128 -76.5 197t-219.5 69q-70 0 -154 -26.5t-156 -70t-108 -92.5l-18 -284l75 -10l78 261q27 50 82.5 84t116.5 34q84 0 118.5 -48t34.5 -130q0 -137 -54 -246t-142 -195t-225 -187
l-266 -197l-10 -102h780z" />
    <glyph glyph-name="three" unicode="3" horiz-adv-x="962" 
d="M580 20.5q127 50.5 207 143.5t80 212q0 68 -38.5 123.5t-104 91t-146.5 46.5l2 12q338 116 338 331q0 68 -39 121t-108.5 82.5t-155.5 29.5q-68 0 -144 -20t-137.5 -49t-88.5 -54l-24 -267l83 -11l86 256q31 25 72 40.5t81 15.5q51 0 86.5 -27.5t52.5 -70.5t17 -89
q0 -132 -114 -210t-238 -116v-66q87 0 154 -35t103.5 -90.5t36.5 -114.5q0 -119 -79.5 -176t-206.5 -57q-51 0 -94 26t-56 59l19 203l-83 13l-98 -299q11 -23 51.5 -47.5t100 -40.5t123.5 -16q135 0 262 50.5z" />
    <glyph glyph-name="four" unicode="4" horiz-adv-x="1051" 
d="M549 349l-38 -238l-222 -45l-17 -66h581l21 73l-184 32l39 241h239l37 133h-255l32 204q50 312 88 493l-62 18l-763 -763l10 -82h494zM635 912l-68 -433h-329z" />
    <glyph glyph-name="five" unicode="5" horiz-adv-x="928" 
d="M558 32q116 57 185 158t69 226q0 142 -106 237.5t-339 108.5l74 238l389 16l55 182l-474 -29l-208 -567q202 -14 306.5 -84t104.5 -194q0 -81 -32.5 -139t-89 -88t-127.5 -30q-64 0 -109.5 21.5t-67.5 66.5l13 213l-82 19l-76 -313q44 -55 109 -77t154 -22q136 0 252 57z
" />
    <glyph glyph-name="six" unicode="6" horiz-adv-x="894" 
d="M126 79q78 -100 242 -100q121 0 230 50.5t177 149t68 234.5q0 86 -35.5 153t-100 105t-148.5 38q-75 0 -141 -29t-110 -71h-11q59 165 190.5 314t327.5 232l-28 59q-178 -55 -349.5 -189.5t-280.5 -314.5t-109 -365q0 -166 78 -266zM361 581q56 25 109 25q81 0 121 -66.5
t40 -159.5q0 -149 -59 -234t-184 -85q-70 0 -105.5 69t-35.5 183q0 133 34 214q24 29 80 54z" />
    <glyph glyph-name="seven" unicode="7" horiz-adv-x="961" 
d="M114 796l110 219h513l-632 -1026l204 -22l601 1163l8 52h-788l-83 -373z" />
    <glyph glyph-name="eight" unicode="8" horiz-adv-x="914" 
d="M83.5 93q39.5 -58 107 -89t151.5 -31q139 0 245 41t164.5 119.5t58.5 188.5q0 81 -51 155t-146 152l5 10q64 22 122 72.5t94 118t36 137.5q0 66 -34 119.5t-97.5 84t-147.5 30.5q-103 0 -196.5 -48.5t-151.5 -132t-58 -182.5q0 -146 144 -254l-1 -9q-101 -54 -161.5 -102
t-91.5 -106.5t-31 -137.5q0 -78 39.5 -136zM658.5 1072.5q38.5 -51.5 38.5 -133.5q0 -104 -36 -163.5t-107 -97.5q-91 57 -140 122.5t-49 129.5q0 49 23 93.5t66 72.5t100 28q66 0 104.5 -51.5zM552 395.5q65 -68.5 65 -139.5q0 -63 -29 -107t-74 -66t-94 -22
q-46 0 -88 27.5t-68 76.5t-26 108q0 70 21 117t48 73.5t81 69.5q99 -69 164 -137.5z" />
    <glyph glyph-name="nine" unicode="9" horiz-adv-x="873" 
d="M120.5 539.5q66.5 -73.5 187.5 -73.5q70 0 136.5 27.5t124.5 81.5h13q-31 -118 -100 -224.5t-172.5 -186.5t-232.5 -117l11 -74q194 33 363.5 163t271 321.5t101.5 398.5q0 157 -74 256t-232 99q-110 0 -217.5 -58.5t-177 -166.5t-69.5 -249q0 -124 66.5 -197.5z
M602 1064.5q36 -65.5 36 -166.5q0 -117 -39 -236q-30 -38 -81.5 -62.5t-103.5 -24.5q-80 0 -116.5 52.5t-36.5 138.5q0 106 26.5 188t80 129t131.5 47q67 0 103 -65.5z" />
    <glyph glyph-name="zero.osf" horiz-adv-x="899" 
d="M92 142.5q42 -83.5 114 -124.5t162 -41q110 0 221.5 82.5t184 229.5t72.5 330q0 168 -82 266t-235 100h-3q-124 0 -234 -90.5t-176 -238t-66 -308.5q0 -122 42 -205.5zM617 836.5q40 -63.5 40 -191.5q0 -168 -40.5 -299t-103.5 -203t-129 -72q-63 0 -103 60.5t-40 189.5
q0 168 40 300.5t103.5 205.5t130.5 73q62 0 102 -63.5z" />
    <glyph glyph-name="one.osf" horiz-adv-x="652" 
d="M583 0l23 80l-184 34l134 842h-68l-296 -74l-22 -80h193l-108 -681l-191 -47l-21 -74h540z" />
    <glyph glyph-name="two.osf" horiz-adv-x="865" 
d="M707 0l100 292l-69 9l-103 -154h-371l44 27q159 99 260.5 174.5t174 175t72.5 215.5q0 67 -26.5 124.5t-80 92.5t-131.5 35h-6q-97 -2 -183.5 -51t-145 -116t-75.5 -120l70 -29q25 53 65 97t86.5 69.5t88.5 25.5q58 0 92 -47t34 -122q0 -120 -69 -219t-180.5 -181
t-300.5 -196l-9 -102h663z" />
    <glyph glyph-name="three.osf" horiz-adv-x="893" 
d="M71.5 -218q29.5 -34 85.5 -56.5t133 -22.5q126 0 242.5 60t188.5 158.5t72 209.5q0 68 -31.5 127t-85.5 97.5t-119 45.5l1 11q63 25 128.5 71t112.5 115.5t47 155.5q0 62 -27 116.5t-77 87.5t-115 33q-84 0 -163.5 -43t-136.5 -105.5t-76 -117.5l74 -27q43 76 95.5 117.5
t127.5 41.5q51 0 77 -47.5t26 -107.5q0 -76 -51 -141.5t-127 -111.5t-153 -69l9 -67q79 -2 140 -37.5t94 -90t33 -112.5q0 -120 -63.5 -198.5t-199.5 -78.5q-64 0 -100 59t-44 136q-41 -4 -75 -26.5t-53 -54t-19 -61.5q0 -33 29.5 -67z" />
    <glyph glyph-name="four.osf" horiz-adv-x="1029" 
d="M540 89l-62 -393l178 27l59 363h235l36 125h-254l35 221q23 145 50 298t45 238l-62 18l-757 -822l11 -75h486zM632 676l-74 -465h-330z" />
    <glyph glyph-name="five.osf" horiz-adv-x="954" 
d="M68 -216q26 -34 82 -57.5t139 -23.5q141 0 265 65.5t198 176t74 237.5q0 97 -43.5 175.5t-131.5 129t-218 63.5l66 218l361 33l51 173l-450 -60l-184 -508q174 -21 264 -101t90 -204q0 -107 -38.5 -175.5t-101 -100t-135.5 -31.5q-72 0 -120 59t-72 131
q-49 -8 -85.5 -43.5t-36.5 -90.5q0 -32 26 -66z" />
    <glyph glyph-name="six.osf" horiz-adv-x="851" 
d="M78.5 163q29.5 -82 94 -133t164.5 -51q109 0 212 61.5t168 168t65 233.5q0 77 -27.5 141t-81.5 101.5t-128 37.5q-63 0 -126 -27t-114 -77h-10q61 170 188 320.5t321 232.5l-26 58q-183 -56 -351 -188.5t-273 -316t-105 -383.5q0 -96 29.5 -178zM351.5 590
q46.5 25 97.5 25q74 0 106.5 -59.5t32.5 -147.5q0 -95 -28 -174.5t-78.5 -126t-114.5 -46.5q-62 0 -93.5 71t-31.5 174q0 52 7.5 97t23.5 108l6 23q26 31 72.5 56z" />
    <glyph glyph-name="seven.osf" horiz-adv-x="831" 
d="M214 786h418q-243 -328 -415.5 -594.5t-172.5 -365.5q0 -32 19 -62t50 -48.5t65 -18.5q6 0 20 2q50 249 197.5 539t388.5 612l2 95h-638l-92 -328l66 -13z" />
    <glyph glyph-name="eight.osf" horiz-adv-x="857" 
d="M85 87q41 -55 110.5 -84.5t151.5 -29.5q119 0 214 47.5t149.5 132.5t54.5 193q0 79 -42.5 150t-127.5 130l1 9q106 71 161.5 157.5t55.5 195.5q0 63 -32 111.5t-90 75t-134 26.5q-91 0 -174 -46t-134.5 -126t-51.5 -176q0 -54 19 -105t49 -90t61 -60l-2 -9
q-126 -68 -203 -164.5t-77 -208.5q0 -74 41 -129zM625 1071q34 -53 34 -127q0 -95 -36 -156.5t-90 -111.5q-83 52 -127.5 125t-44.5 148q0 50 22.5 90t61 62.5t83.5 22.5q63 0 97 -53zM598 269q0 -104 -60.5 -153.5t-151.5 -49.5q-47 0 -86 24.5t-62 71.5t-23 109
q0 61 22.5 116t60 96t80.5 62q220 -151 220 -276z" />
    <glyph glyph-name="nine.osf" horiz-adv-x="845" 
d="M124.5 303q61.5 -73 180.5 -73q151 0 231 89h12q-43 -112 -100.5 -205.5t-156 -178.5t-244.5 -143l11 -74q190 57 359 193t272 323t103 390q0 151 -71 249.5t-222 98.5q-112 0 -212.5 -60.5t-162 -168.5t-61.5 -242q0 -125 61.5 -198zM573.5 825.5
q35.5 -65.5 35.5 -166.5q0 -123 -37 -235q-30 -38 -78 -62t-99 -24q-72 0 -108.5 50.5t-36.5 138.5q0 110 30 193t80.5 127t110.5 44q67 0 102.5 -65.5z" />
    <glyph glyph-name="one.superior" horiz-adv-x="599" 
d="M532 531l19 83l-150 13l98 618h-19l-309 -46l-16 -77h145l-78 -492l-157 -25l-16 -74h483z" />
    <glyph glyph-name="two.superior" horiz-adv-x="728" 
d="M600 531l59 253l-54 21l-103 -153h-270l74 44q120 71 195 126t126.5 126t51.5 156q0 73 -55.5 113t-158.5 40q-83 0 -168.5 -31t-122.5 -85l-12 -170l67 -5l42 129q16 25 47 41.5t67 16.5q50 0 70 -26t20 -70q0 -61 -26.5 -108.5t-72 -87.5t-128.5 -100l-174 -123
l-25 -107h551z" />
    <glyph glyph-name="three.superior" horiz-adv-x="701" 
d="M433 529.5q89 34.5 144 96.5t55 141q0 65 -48 104t-143 49l1 7q90 24 150.5 77t60.5 136q0 66 -60 102.5t-157 36.5q-50 0 -104 -13.5t-97 -35t-62 -43.5l-15 -171l75 -6l49 157q16 13 37.5 17.5t48.5 4.5q44 0 67 -28t23 -69q0 -76 -67.5 -119t-143.5 -65l6 -59
q55 0 97 -15.5t65 -41.5t23 -59q0 -46 -23.5 -81t-63.5 -54t-87 -19q-31 0 -56 11.5t-37 28.5l13 135l-73 8l-62 -199q9 -31 66 -49.5t131 -18.5q98 0 187 34.5z" />
    <glyph glyph-name="fraction" unicode="&#x2044;" horiz-adv-x="1736" 
d="M308 -32l470 623l494 587l6 29l-165 3l-490 -622l-502 -598z" />
    <glyph glyph-name="onehalf" unicode="&#xbd;" horiz-adv-x="1476" 
d="M527 531l19 83l-150 13l98 618h-19l-309 -46l-16 -77h145l-78 -492l-157 -25l-16 -74h483zM346 -32l470 623l493 587l7 29l-175 3l-490 -622l-502 -598zM1347 2l59 253l-53 21l-104 -153h-270l74 44q120 71 195 126t126.5 126t51.5 156q0 73 -55.5 113t-158.5 40
q-83 0 -168.5 -31t-122.5 -85l-12 -170l67 -5l43 129q16 25 46.5 41.5t66.5 16.5q50 0 70 -26t20 -70q0 -61 -26.5 -108.5t-71.5 -87.5t-128 -100l-175 -123l-25 -107h551z" />
    <glyph glyph-name="onequarter" unicode="&#xbc;" horiz-adv-x="1397" 
d="M527 531l19 83l-150 13l98 618h-19l-309 -46l-16 -77h145l-78 -492l-157 -25l-16 -74h483zM366 -32l470 623l493 587l7 29l-175 3l-490 -622l-502 -598zM1033 178l-15 -93l-141 -27l-13 -58h414l16 65l-118 18l15 92h139l24 97h-148l25 158q24 154 56 296l-55 11
l-484 -467l-2 -92h287zM1082 508l-37 -236h-190z" />
    <glyph glyph-name="threequarters" unicode="&#xbe;" horiz-adv-x="1376" 
d="M430 512.5q89 34.5 144 96.5t55 141q0 65 -48 104t-143 49l1 7q90 24 150.5 77t60.5 136q0 66 -60 102.5t-157 36.5q-50 0 -104 -13.5t-97 -35t-62 -43.5l-15 -171l75 -6l49 157q16 13 37.5 17.5t48.5 4.5q44 0 67 -28t23 -69q0 -76 -67.5 -119t-143.5 -65l6 -59
q55 0 97 -15.5t65 -41.5t23 -59q0 -46 -23.5 -81t-63.5 -54t-87 -19q-31 0 -56 11.5t-37 28.5l13 135l-73 8l-62 -199q9 -31 66 -49.5t131 -18.5q98 0 187 34.5zM358 -32l470 623l494 587l7 29l-176 3l-489 -622l-502 -598zM1012 178l-15 -93l-141 -27l-13 -58h414l16 65
l-118 18l14 92h139l25 97h-148l25 158q24 154 56 296l-56 11l-484 -467l-1 -92h287zM1061 508l-37 -236h-190z" />
    <glyph glyph-name="asterisk" unicode="*" 
d="M370 977l-267 114l-55 -127l312 -60l-193 -219l102 -92l155 277l153 -247l118 69l-219 229l285 68l-29 130l-289 -131l26 291l-136 13z" />
    <glyph glyph-name="backslash" unicode="\" horiz-adv-x="433" 
d="M48 1244l213 -1599l128 -8l-210 1598z" />
    <glyph glyph-name="periodcentered" unicode="&#xb7;" horiz-adv-x="362" 
d="M239.5 397.5q28.5 16.5 45 45t16.5 61.5q0 48 -36 81t-86 33q-49 0 -84.5 -33.5t-35.5 -80.5q0 -50 35.5 -86.5t84.5 -36.5q32 0 60.5 16.5z" />
    <glyph glyph-name="bullet" unicode="&#x2022;" horiz-adv-x="494" 
d="M334 419q41 24 65 64.5t24 89.5q0 46 -24 84.5t-65 61t-88 22.5q-46 0 -86.5 -22t-64.5 -60.5t-24 -83.5q0 -49 23.5 -90t64 -65.5t87.5 -24.5t88 24z" />
    <glyph glyph-name="colon" unicode=":" horiz-adv-x="428" 
d="M177 657q26 -28 68 -28q32 0 62.5 18t50 48.5t19.5 66.5q0 39 -27.5 64.5t-68.5 25.5q-33 0 -63 -16t-48.5 -44.5t-18.5 -64.5q0 -42 26 -70zM76.5 30q26.5 -28 68.5 -28q32 0 63 17.5t50.5 48t19.5 66.5q0 38 -27.5 64.5t-68.5 26.5q-33 0 -63.5 -16.5t-49.5 -45
t-19 -63.5q0 -42 26.5 -70z" />
    <glyph glyph-name="comma" unicode="," horiz-adv-x="483" 
d="M269 -221q80 61 115 128.5t35 122.5q0 103 -44.5 145.5t-107.5 42.5t-103 -39t-40 -102q0 -21 6 -47q22 5 36 5q43 0 69 -27t26 -69q0 -33 -25 -69t-72.5 -66.5t-112.5 -47.5l11 -70q127 32 207 93z" />
    <glyph glyph-name="ellipsis" unicode="&#x2026;" horiz-adv-x="1301" 
d="M278 4.5q35 35.5 35 85.5q0 48 -35 81.5t-85 33.5q-49 0 -84 -33t-35 -80q0 -50 35 -86.5t84 -36.5q50 0 85 35.5zM723.5 4.5q35.5 35.5 35.5 85.5q0 48 -35.5 81.5t-85.5 33.5q-49 0 -84 -33t-35 -80q0 -50 35 -86.5t84 -36.5q50 0 85.5 35.5zM1170 -14.5
q28 16.5 44.5 44t16.5 60.5q0 48 -36 81.5t-86 33.5q-48 0 -83 -32.5t-35 -80.5q0 -51 34.5 -87t83.5 -36q33 0 61 16.5z" />
    <glyph glyph-name="exclam" unicode="!" horiz-adv-x="494" 
d="M254 357q32 108 78.5 312.5t82.5 385t36 204.5q0 17 -26 25t-52 8q-41 0 -78 -11t-41 -36q-9 -60 -20 -172.5t-18 -190.5t-10 -113q-21 -251 -36 -393zM73 -1q29 -35 75 -35q37 0 71 17t55 47.5t21 69.5q0 44 -31.5 78t-76.5 34q-36 0 -69 -15.5t-53.5 -45t-20.5 -68.5
q0 -47 29 -82z" />
    <glyph glyph-name="exclamdown" unicode="&#xa1;" horiz-adv-x="496" 
d="M420 877q-29 35 -75 35q-37 0 -71 -17t-55 -47.5t-21 -69.5q0 -44 31.5 -78t76.5 -34q36 0 69 15.5t53.5 45t20.5 68.5q0 47 -29 82zM239 519q-32 -108 -78.5 -312.5t-82.5 -385t-36 -204.5q0 -17 26 -25t52 -8q41 0 78 11t41 36q9 60 20 172.5t18 190.5t10 113
q21 251 36 393z" />
    <glyph glyph-name="numbersign" unicode="#" horiz-adv-x="1099" 
d="M1025 711h-247l-39 -260h242l-31 -125h-230l-52 -345l-117 -7l53 352h-189l-52 -345l-117 -7l53 352h-257l33 125h243l39 260h-244l34 125h229l47 313l116 10l-48 -323h189l47 313l118 9l-48 -322h259zM622 451l39 260h-189l-39 -260h189z" />
    <glyph glyph-name="period" unicode="." horiz-adv-x="364" 
d="M72.5 24q15.5 -25 40 -41t50.5 -16q58 0 97.5 39t39.5 101q0 43 -27.5 75.5t-72.5 32.5q-39 0 -71.5 -19t-52 -51t-19.5 -71q0 -25 15.5 -50z" />
    <glyph glyph-name="question" unicode="?" horiz-adv-x="648" 
d="M119.5 1078q17.5 -26 40.5 -36q37 34 91 52.5t112 18.5q28 0 60.5 -21.5t54.5 -57t22 -74.5q0 -55 -23.5 -90t-58 -55t-93.5 -44q-64 -26 -102 -48.5t-64.5 -64.5t-26.5 -110q0 -48 14.5 -97.5t31.5 -83.5l77 16q-6 41 -6 71q0 64 21 102t53 58t86 42q63 26 101.5 52
t65.5 81t27 148q0 101 -40.5 181.5t-106 125t-135.5 44.5q-76 0 -125 -22.5t-71.5 -57t-22.5 -71.5q0 -33 17.5 -59zM265.5 181q-30.5 29 -77.5 29q-36 0 -69.5 -18t-54 -50t-20.5 -72q0 -45 30 -75.5t76 -30.5q35 0 69 19t55.5 52t21.5 73q0 44 -30.5 73z" />
    <glyph glyph-name="questiondown" unicode="&#xbf;" horiz-adv-x="650" 
d="M381.5 720q30.5 -29 77.5 -29q36 0 69.5 18t54 50t20.5 72q0 45 -30 75.5t-76 30.5q-35 0 -69 -19t-55.5 -52t-21.5 -73q0 -44 30.5 -73zM527.5 -177q-17.5 26 -40.5 36q-37 -34 -91 -52.5t-112 -18.5q-28 0 -60.5 21.5t-54.5 57t-22 74.5q0 55 23.5 90t58 55t93.5 44
q64 26 102 48.5t64.5 64.5t26.5 110q0 48 -14.5 97.5t-31.5 83.5l-77 -16q6 -40 6 -71q0 -64 -21 -102t-53 -58t-86 -42q-63 -26 -101.5 -52t-65.5 -81t-27 -148q0 -101 40.5 -181.5t106 -125t135.5 -44.5q76 0 125 22.5t71.5 57t22.5 71.5q0 33 -17.5 59z" />
    <glyph glyph-name="quotedbl" unicode="&#x22;" horiz-adv-x="523" 
d="M71 892l96 11l96 383l-180 17zM280 892l95 11l96 383l-180 17z" />
    <glyph glyph-name="quotesingle" unicode="'" horiz-adv-x="315" 
d="M71 892l96 11l96 383l-180 17z" />
    <glyph glyph-name="semicolon" unicode=";" horiz-adv-x="488" 
d="M237.5 657q26.5 -28 68.5 -28q32 0 62.5 18t49.5 48.5t19 66.5q0 39 -27 64.5t-68 25.5q-33 0 -63 -16t-49 -44.5t-19 -64.5q0 -42 26.5 -70zM241.5 -195.5q72.5 54.5 103.5 115t31 110.5q0 93 -40 131t-97 38t-92.5 -35t-35.5 -91q0 -18 5 -43q16 4 33 4q39 0 62 -24
t23 -62q0 -30 -22.5 -62t-65 -59.5t-101.5 -42.5l10 -63q114 29 186.5 83.5z" />
    <glyph glyph-name="slash" unicode="/" horiz-adv-x="677" 
d="M169 -355l466 1599l-132 -9l-462 -1598z" />
    <glyph glyph-name="underscore" unicode="_" horiz-adv-x="970" 
d="M892 -132l11 105h-828l-12 -105h829z" />
    <glyph glyph-name="numbersign.osf" horiz-adv-x="859" 
d="M904 561h-174l-60 -193h177l-51 -125h-165l-81 -262l-111 -7l83 269h-164l-81 -262l-113 -7l83 269h-199l53 125h185l60 193h-194l54 125h179l79 255l113 10l-82 -265h164l79 255l112 9l-82 -264h187zM561 368l60 193h-165l-59 -193h164z" />
    <glyph glyph-name="braceleft" unicode="{" horiz-adv-x="702" 
d="M382 -272q-31 5 -44.5 32.5t-13.5 74.5q0 31 5.5 76t12.5 91q10 67 16 117t6 96q0 87 -28 145t-96 78l1 6q83 23 131 90t69 147.5t40 203.5q14 88 25 138t32.5 85t57.5 41l40 7l25 99h-59q-103 0 -162 -56t-85 -137t-50 -214q-21 -112 -39.5 -177t-56.5 -114t-102 -60
l-49 -8l-14 -99l48 -9q55 -9 77.5 -51.5t22.5 -112.5q0 -47 -7.5 -108t-9.5 -73q-19 -127 -19 -196q0 -103 41.5 -160.5t147.5 -57.5h61l9 101z" />
    <glyph glyph-name="braceright" unicode="}" horiz-adv-x="709" 
d="M40 -378h61q106 0 165.5 57.5t85.5 139t51 217.5q20 109 38 174t55 113t99 58l51 9l17 99l-47 8q-57 10 -80 53.5t-23 116.5q0 60 17 181q9 63 13.5 107.5t4.5 84.5q0 102 -41 158.5t-145 56.5h-59l-7 -99l38 -7q51 -8 51 -96q0 -54 -20 -167q-13 -86 -18.5 -131
t-5.5 -91q0 -85 28.5 -142.5t96.5 -77.5l-1 -6q-81 -22 -128.5 -88t-69 -145.5t-42.5 -201.5q-16 -93 -28.5 -144.5t-36 -88t-62.5 -42.5l-35 -5z" />
    <glyph glyph-name="bracketleft" unicode="[" horiz-adv-x="615" 
d="M41 -377l276 2l26 96l-139 20l222 1405l143 20l4 89h-271z" />
    <glyph glyph-name="bracketright" unicode="]" horiz-adv-x="616" 
d="M317 -377l256 1632h-271l-25 -89l137 -20l-223 -1405l-145 -20l-5 -96z" />
    <glyph glyph-name="parenleft" unicode="(" horiz-adv-x="611" 
d="M287 653q58 191 136.5 327t146.5 209l-39 66q-75 -57 -185 -186.5t-203 -340t-93 -467.5q0 -242 74.5 -400.5t143.5 -235.5l79 58q-40 88 -79 233t-39 333q0 213 58 404z" />
    <glyph glyph-name="parenright" unicode=")" horiz-adv-x="634" 
d="M374.5 988q-34.5 123 -81.5 201l59 66q41 -40 92 -117t93.5 -208t42.5 -301q0 -277 -94.5 -490t-196 -327.5t-189.5 -186.5l-60 58q87 114 158.5 229t141 324t69.5 466q0 163 -34.5 286z" />
    <glyph glyph-name="emdash" unicode="&#x2014;" horiz-adv-x="1258" 
d="M1181 415l16 105l-1121 -7l-15 -104z" />
    <glyph glyph-name="endash" unicode="&#x2013;" horiz-adv-x="748" 
d="M671 415l16 105l-611 -7l-15 -104z" />
    <glyph glyph-name="hyphen" unicode="-" horiz-adv-x="558" 
d="M59 398l411 18l27 101l-410 -18z" />
    <glyph glyph-name="uni00AD" unicode="&#xad;" horiz-adv-x="560" 
d="M57 406l418 60l26 115l-418 -59z" />
    <glyph glyph-name="guillemotleft" unicode="&#xab;" horiz-adv-x="704" 
d="M49 449l201 -371l63 62l-117 321l213 300l-35 60l-323 -352zM297 449l201 -371l63 62l-117 321l213 300l-35 60l-324 -352z" />
    <glyph glyph-name="guillemotright" unicode="&#xbb;" horiz-adv-x="703" 
d="M405 450l-201 371l-63 -62l117 -321l-213 -300l35 -60l324 352zM653 450l-201 371l-63 -62l117 -321l-213 -300l35 -60l323 352z" />
    <glyph glyph-name="guilsinglleft" unicode="&#x2039;" horiz-adv-x="415" 
d="M50 449l262 -372l52 64l-167 320l164 300l-43 59l-269 -351z" />
    <glyph glyph-name="guilsinglright" unicode="&#x203a;" horiz-adv-x="416" 
d="M103 77l261 372l2 20l-268 351l-44 -59l164 -300l-167 -320z" />
    <glyph glyph-name="quotedblbase" unicode="&#x201e;" horiz-adv-x="749" 
d="M311.5 -187.5q60.5 89.5 60.5 187.5q0 70 -27.5 117t-67.5 69t-79 22q-27 0 -55.5 -14t-47.5 -41.5t-19 -65.5q0 -26 14 -63q5 1 12.5 2t17.5 1q51 0 83.5 -31.5t32.5 -75.5q0 -53 -45 -101.5t-137 -72.5l23 -69q174 46 234.5 135.5zM630 -187.5q61 89.5 61 187.5
q0 70 -27.5 117t-68 69t-79.5 22q-27 0 -55.5 -14t-48 -41.5t-19.5 -65.5q0 -15 3.5 -29t11.5 -34q5 1 12.5 2t17.5 1q51 0 83 -31.5t32 -75.5q0 -53 -44.5 -101.5t-136.5 -72.5l23 -69q174 46 235 135.5z" />
    <glyph glyph-name="quotedblleft" unicode="&#x201c;" horiz-adv-x="742" 
d="M290.5 770.5q28.5 14.5 47.5 42t19 65.5q0 25 -14 62q-20 -2 -30 -2q-51 0 -84 32t-33 75q0 53 44.5 101.5t136.5 72.5l-21 68q-174 -46 -235.5 -136t-61.5 -187q0 -70 28 -117t68.5 -69t79.5 -22q27 0 55.5 14.5zM604.5 770.5q28.5 14.5 47.5 42t19 65.5q0 25 -14 62
q-20 -2 -29 -2q-51 0 -83.5 31.5t-32.5 75.5q0 53 44.5 101.5t136.5 72.5l-22 68q-174 -46 -235.5 -136t-61.5 -187q0 -70 27.5 -117t68 -69t79.5 -22q27 0 55.5 14.5z" />
    <glyph glyph-name="quotedblright" unicode="&#x201d;" horiz-adv-x="747" 
d="M319 890.5q61 89.5 61 187.5q0 70 -27.5 117t-68 69t-79.5 22q-27 0 -55.5 -14t-48 -41t-19.5 -65q0 -15 3.5 -29t11.5 -34q10 1 30 1q51 0 83 -31t32 -75q0 -53 -44.5 -101.5t-136.5 -72.5l23 -69q174 46 235 135.5zM636 890.5q61 89.5 61 187.5q0 70 -27.5 117t-68 69
t-79.5 22q-27 0 -55.5 -14t-48 -41t-19.5 -65q0 -15 3.5 -29t11.5 -34q10 1 30 1q51 0 83.5 -31.5t32.5 -74.5q0 -53 -44.5 -101.5t-136.5 -72.5l22 -69q174 46 235 135.5z" />
    <glyph glyph-name="quoteleft" unicode="&#x2018;" horiz-adv-x="427" 
d="M289.5 767.5q28.5 14.5 48 42t19.5 65.5q0 14 -3.5 26t-7.5 22.5t-5 13.5q-5 -1 -12 -2t-17 -1q-51 0 -83.5 31.5t-32.5 75.5q0 53 45 101.5t137 72.5l-23 69q-174 -46 -235 -135.5t-61 -187.5q0 -70 27.5 -117t68 -69t79.5 -22q27 0 55.5 14.5z" />
    <glyph glyph-name="quoteright" unicode="&#x2019;" horiz-adv-x="430" 
d="M319 885.5q61 89.5 61 187.5q0 70 -27.5 117t-68 69t-79.5 22q-27 0 -55.5 -14t-48 -41.5t-19.5 -65.5q0 -15 3.5 -29t11.5 -34q5 1 12.5 2t17.5 1q51 0 83 -32t32 -76q0 -53 -44.5 -101t-136.5 -72l23 -69q174 46 235 135.5z" />
    <glyph glyph-name="quotesinglbase" unicode="&#x201a;" horiz-adv-x="437" 
d="M312.5 -177.5q60.5 89.5 60.5 187.5q0 70 -27.5 117t-67.5 69t-79 22q-27 0 -55.5 -14t-47.5 -41.5t-19 -65.5q0 -26 14 -63q20 2 30 2q51 0 83.5 -31.5t32.5 -74.5q0 -53 -45 -101.5t-137 -72.5l23 -69q174 46 234.5 135.5z" />
    <glyph glyph-name="uni00A0" unicode="&#xa0;" horiz-adv-x="380" 
 />
    <glyph glyph-name="cent" unicode="&#xa2;" horiz-adv-x="712" 
d="M299 749.5q-53 -61.5 -77.5 -151.5t-24.5 -178q0 -159 49 -236.5t152 -77.5q95 0 213 73l24 -61q-44 -49 -110.5 -86t-136.5 -50l-6 -232l-151 -16l62 244q-124 11 -196.5 105t-72.5 265q0 135 54 250.5t144 192.5t194 104l8 219l148 17l-55 -223q86 -1 134.5 -43.5
t48.5 -113.5q0 -45 -37 -72t-92 -32q-19 57 -33.5 88.5t-40 53.5t-66.5 22q-79 0 -132 -61.5z" />
    <glyph glyph-name="currency" unicode="&#xa4;" horiz-adv-x="789" 
d="M142 562q-11 -39 -11 -74q0 -40 12.5 -83t32.5 -73l-115 -111l84 -85l108 121q30 -18 67 -29t67 -11q35 0 77.5 13t77.5 34l113 -121l85 80l-125 119q20 27 31.5 68.5t11.5 80.5q0 35 -10 76t-26 69l115 106l-74 88l-111 -112q-30 22 -73 36t-84 14q-37 0 -79.5 -16
t-74.5 -43l-109 118l-84 -81l122 -118q-17 -27 -28 -66zM508 620q44 -50 44 -133q0 -78 -44 -126t-116 -48q-69 0 -112.5 50t-43.5 131q0 79 43 127.5t112 48.5q73 0 117 -50z" />
    <glyph glyph-name="dollar" unicode="$" horiz-adv-x="938" 
d="M595 723q87 -51 140 -90.5t90 -97.5t37 -135q0 -102 -53 -188t-141.5 -143.5t-194.5 -80.5l-13 -152l-175 -15l34 155q-96 7 -173.5 48t-106.5 98l57 268l99 -15l6 -188q20 -47 65 -76t109 -33l73 463q-82 49 -135.5 90.5t-90 101t-36.5 137.5q0 104 46.5 185.5
t124.5 133t172 71.5l8 134l167 15l-36 -140q69 -5 129.5 -29t100.5 -71l-66 -282l-97 11l3 192q-3 13 -20 32t-44 35.5t-58 23.5l-68 -430zM402.5 870q31.5 -43 89.5 -83l62 395q-80 -9 -131.5 -64t-51.5 -150q0 -55 31.5 -98zM552 121.5q50 28.5 81.5 77t31.5 113.5
q0 56 -39 99.5t-115 90.5l-65 -419q56 10 106 38.5z" />
    <glyph glyph-name="Euro" unicode="&#x20ac;" horiz-adv-x="1210" 
d="M1159 111q-94 -74 -183.5 -104.5t-212.5 -30.5q-143 0 -256.5 59.5t-187.5 170.5t-100 262h-170l10 99h148q-2 44 -2 69v15h-146l10 99h147q25 134 101 252.5t203 192.5t293 74q101 0 180 -23t149 -77l-31 -332l-88 13l-42 220q-27 34 -54 56t-68.5 35t-102.5 13
q-149 0 -235 -114t-101 -310h541l-21 -99h-523q0 -39 5 -84h490l-21 -99h-454q37 -175 134.5 -280t241.5 -105q51 0 101 22.5t83 68.5l43 227l88 13z" />
    <glyph glyph-name="sterling" unicode="&#xa3;" horiz-adv-x="1167" 
d="M1122 331l-83 18l-171 -253l-459 3q43 67 73 172t54 244l7 40l213 13l26 101l-220 -14l7 48q31 177 62.5 268.5t80 131.5t132.5 40q44 0 82 -22l7 -214l84 -12l81 316q-51 23 -105 31t-122 8q-117 0 -214.5 -50t-167 -154t-99.5 -260l-24 -137l-173 -10l-28 -101l182 11
l-17 -88q-22 -123 -41 -196.5t-52 -143.5l-175 -47l-19 -74h989z" />
    <glyph glyph-name="yen" unicode="&#xa5;" horiz-adv-x="1159" 
d="M370 345h-299l-28 -106h311l-18 -118l-159 -47l-21 -74h507l23 81l-159 33l20 125h312l28 106h-323l19 127h316l28 106h-304l342 552l130 38l22 76h-397l-21 -76l150 -42l-295 -485l-132 489l138 38l23 76h-467l-25 -76l131 -42l153 -548h-264l-28 -106h307z" />
    <glyph glyph-name="dollar.osf" horiz-adv-x="859" 
d="M688 852.5q47 -35.5 47 -93.5q0 -7 -2 -25q-10 -62 -53.5 -101.5t-109.5 -43.5v43q-6 184 -120 184q-51 0 -87 -35t-44 -85q-1 -6 -1 -18q0 -35 21.5 -64.5t53.5 -53t87 -56.5q68 -42 108.5 -72.5t69 -74.5t28.5 -101q0 -18 -3 -36q-9 -59 -47.5 -109t-95.5 -85t-121 -50
l-10 -155l-142 -18l41 164q-73 3 -126.5 25.5t-82 57.5t-28.5 75q0 10 1 16q9 52 50.5 89t102.5 41q15 -103 56 -155t100 -52q58 0 99 24.5t49 76.5q1 5 1 13q0 29 -19.5 54t-48 45.5t-80.5 52.5q-68 41 -110 73t-72 78t-30 105q0 19 3 38q8 56 45.5 114.5t100.5 102.5
t143 55l8 145l135 17l-41 -161q77 -9 124 -44.5z" />
    <glyph glyph-name="Euro.osf" horiz-adv-x="1161" 
d="M854 615l4 160q-26 77 -155 77q-93 0 -154.5 -63t-98.5 -203h308l-37 -99h-292l-4 -24q-5 -27 -6 -52h272l-37 -99h-231q17 -101 80 -155t148 -54q159 0 266 94l31 -77q-19 -28 -68 -61.5t-126 -58t-172 -24.5q-173 0 -274.5 86t-107.5 250h-140l26 99h119l3 21
q3 19 11 55h-131l25 99h140q46 105 124.5 186.5t184 128t226.5 46.5q70 0 120.5 -15t78.5 -32t28 -20l-65 -278z" />
    <glyph glyph-name="sterling.osf" horiz-adv-x="1283" 
d="M1060 313l-79 21l-144 -236h-373q74 76 109 290l4 24l232 17l24 91l-239 -14l9 54q20 126 39.5 187.5t55.5 88.5t103 27q65 0 91 -51t24 -165q36 3 73 18t63.5 42t32.5 64q2 18 2 27q0 72 -64.5 111t-193.5 39q-162 0 -267 -86t-135 -251l-20 -113l-172 -10l-26 -92
l179 10l-11 -72q-23 -141 -75 -221l-174 -39l-18 -74h875z" />
    <glyph glyph-name="yen.osf" horiz-adv-x="1170" 
d="M1210 854l-129 -38l-145 -220h199l-26 -98h-238l-69 -105h301l-26 -98h-317l-29 -182l158 -35l-22 -78h-500l21 71l157 48l28 176h-307l28 98h267l-35 105h-228l28 98h168l-72 217l-130 41l25 76h440l-23 -76l-119 -38l104 -396l246 393l-131 41l22 76h376z" />
    <glyph glyph-name="plus" unicode="+" horiz-adv-x="653" 
d="M271 409v-224l112 -11l-2 235h208l12 101h-220l-1 219l-109 12v-231h-209l-12 -101h221z" />
    <glyph glyph-name="multiply" unicode="&#xd7;" horiz-adv-x="570" 
d="M118 228l164 160l156 -157l83 66l-159 161l156 150l-65 84l-165 -160l-153 153l-84 -66l156 -157l-156 -152z" />
    <glyph glyph-name="divide" unicode="&#xf7;" horiz-adv-x="919" 
d="M513 682.5q28 16.5 44.5 45t16.5 61.5q0 48 -35.5 81t-85.5 33q-49 0 -84 -33t-35 -80q0 -33 16 -61.5t43.5 -45.5t59.5 -17t60 16.5zM861 454l11 106h-812l-12 -106h813zM513 120.5q28 16.5 44.5 45t16.5 61.5q0 48 -35.5 81t-85.5 33q-49 0 -84 -33t-35 -80
q0 -33 16 -61.5t43.5 -45.5t59.5 -17t60 16.5z" />
    <glyph glyph-name="equal" unicode="=" horiz-adv-x="792" 
d="M717 559l12 104h-656l-10 -104h654zM714 319l11 105h-655l-10 -105h654z" />
    <glyph glyph-name="greater" unicode="&#x3e;" horiz-adv-x="789" 
d="M106 -83l634 498l-1 57l-620 501l-56 -73l440 -466l-460 -447z" />
    <glyph glyph-name="less" unicode="&#x3c;" horiz-adv-x="787" 
d="M681 -83l63 70l-460 447l440 466l-56 73l-620 -501l-1 -57z" />
    <glyph glyph-name="plusminus" unicode="&#xb1;" horiz-adv-x="729" 
d="M279 490v-224l112 -11l-2 235h208l12 101h-220l-1 219l-109 12v-231h-209l-12 -101h221zM51 13l612 7l16 104l-611 -7z" />
    <glyph glyph-name="asciitilde" unicode="~" horiz-adv-x="896" 
d="M126 422.5q13 17.5 31.5 33t36.5 13.5l450 -45q5 -1 13 -1q56 0 97.5 45t64.5 97.5t23 60.5l-64 2q-3 -5 -16 -20.5t-31.5 -29t-34.5 -12.5l-450 45q-59 6 -101.5 -38.5t-66 -98t-23.5 -62.5l55 -13q3 6 16 23.5z" />
    <glyph glyph-name="logicalnot" unicode="&#xac;" horiz-adv-x="886" 
d="M55 558h652l-36 -226l109 18l48 314h-745z" />
    <glyph glyph-name="uni00B5" unicode="&#xb5;" horiz-adv-x="945" 
d="M338 -20q61 0 115.5 25t93 60t54.5 65h10q-2 -20 -2 -29q0 -60 33.5 -89t95.5 -29q36 0 69 9t72 23l18 69l-66 12q-25 4 -37 22.5t-12 69.5q0 59 19 182l76 476l-20 23l-286 -25l-10 -74l134 -24l-82 -546q-36 -36 -77.5 -59.5t-102.5 -23.5q-44 0 -63 25.5t-19 81.5
q0 46 17 151l79 471l-19 23l-283 -25l-10 -74l131 -24l-39 -249q-17 -109 -57 -296.5t-79.5 -359.5t-48.5 -203l129 -26l30 302q5 48 5 123h7v1q37 -58 125 -58z" />
    <glyph glyph-name="percent" unicode="%" horiz-adv-x="1241" 
d="M1199 1207l-7 -29l-494 -587l-469 -623l-187 22l502 598l421 535l-373 14q21 -26 30.5 -77.5t9.5 -106.5q0 -97 -52 -182.5t-128 -136.5t-142 -51q-58 0 -109 32t-82.5 90.5t-31.5 134.5q0 97 51.5 182.5t128.5 137t146 51.5q20 0 29 -3l-1 -66q-3 1 -15 6.5t-28 5.5
q-46 0 -80 -58t-52 -141.5t-18 -157.5q0 -66 17.5 -107t54.5 -41q58 0 94.5 75t52 178t15.5 192q0 61 -8 104l559 12zM1043 557q50 -33 78.5 -91.5t28.5 -131.5q0 -97 -50 -182t-124 -136.5t-141 -51.5q-58 0 -110.5 32t-85 90.5t-32.5 134.5q0 96 51.5 181t128 136.5
t144.5 51.5q62 0 112 -33zM928 88q34 56 50.5 138t16.5 160q0 66 -17.5 107t-55.5 41q-47 0 -82 -55.5t-53 -137t-18 -154.5q0 -68 19 -111.5t58 -43.5q48 0 82 56z" />
    <glyph glyph-name="percent.osf" horiz-adv-x="1046" 
d="M1136 929l-5 -25l-464 -461l-430 -470l-192 18l459 449l380 407l-367 12q21 -23 31.5 -64.5t10.5 -81.5q0 -14 -2 -30q-11 -69 -58 -127t-109 -91.5t-116 -33.5q-53 0 -100 24.5t-76 71t-29 110.5q0 25 4 46q11 68 57.5 126t109 91.5t118.5 33.5q18 0 25 -3l-1 -69
q-22 11 -40 11q-49 0 -78 -54.5t-42 -135.5q-6 -34 -6 -68q0 -52 16.5 -84t52.5 -32q94 0 123 184q13 85 13 143q0 49 -9 96l552 10zM1011 444.5q46 -25.5 72 -72.5t26 -109q0 -25 -4 -46q-11 -68 -56 -125t-105.5 -89.5t-113.5 -32.5t-101 24t-78 71t-30 111q0 14 4 44
q11 68 57 125.5t108 91t118 33.5q57 0 103 -25.5zM968 295q0 53 -16.5 84.5t-52.5 31.5q-52 0 -82 -54.5t-43 -136.5q-5 -35 -5 -63q0 -53 17.5 -85.5t54.5 -32.5q52 0 80 49.5t41 133.5q6 38 6 73z" />
    <glyph glyph-name="lozenge" unicode="&#x25ca;" horiz-adv-x="943" 
d="M474 135l322 337l-324 327l-324 -325z" />
    <glyph glyph-name="at" unicode="@" horiz-adv-x="1362" 
d="M1244 833q-67 101 -182 156t-256 55q-211 0 -384.5 -99.5t-273 -268t-99.5 -366.5q0 -191 86.5 -311.5t225.5 -173.5t304 -53q94 0 173.5 22t135 51t112.5 67l9 5l-33 63l-12 -8q-29 -20 -85 -45t-125.5 -43.5t-134.5 -18.5q-162 0 -274 56.5t-169 163.5t-57 255
q0 157 72.5 299t201 229t287.5 87q120 0 212.5 -45t145 -134t52.5 -218q0 -101 -36.5 -191t-99.5 -144.5t-137 -54.5q-24 0 -24 53q0 27 6 72t13 92l55 366l-18 20l-4 2q-71 16 -163 16q-87 0 -184.5 -63t-164 -173.5t-66.5 -245.5q0 -124 45 -186t127 -62q52 0 105 38.5
t88 89.5h8q-1 -8 -1 -22q0 -46 25.5 -71t66.5 -25q133 0 247 75t180.5 197.5t66.5 256.5t-67 235zM664 201q-37 -21 -75 -21q-28 0 -44 12t-24.5 48.5t-8.5 109.5q0 78 26.5 161t72.5 138t101 55q39 0 87 -12l-69 -438q-29 -32 -66 -53z" />
    <glyph glyph-name="ampersand" unicode="&#x26;" horiz-adv-x="1454" 
d="M1411 837h-449l-21 -76l161 -41l-214 -297l-237 282l2 12q85 48 146 92.5t102.5 108t41.5 143.5q0 111 -79.5 161t-202.5 50q-88 0 -173.5 -47.5t-139 -125.5t-53.5 -164q0 -69 32 -131t73 -102q-148 -76 -251.5 -181.5t-103.5 -258.5q0 -79 37.5 -143t108.5 -101.5
t168 -37.5q104 0 189 37.5t144.5 88t114.5 112.5q87 -114 158 -176t147 -62q64 0 124 20l27 69l-32 10q-56 17 -137 102.5t-147 171.5l266 370l177 38zM486.5 1090q21.5 43 59 70t82.5 27q67 0 103.5 -44.5t36.5 -113.5q0 -62 -19.5 -106.5t-56.5 -78.5t-98 -71
q-50 47 -89.5 108.5t-39.5 120.5q0 45 21.5 88zM681.5 213.5q-46.5 -41.5 -111 -74.5t-132.5 -33q-63 0 -106.5 32t-64.5 85t-21 115q0 174 192 293l15 -2l293 -347q-18 -27 -64.5 -68.5z" />
    <glyph glyph-name="paragraph" unicode="&#xb6;" horiz-adv-x="1356" 
d="M114 597q60 -76 161 -112.5t225 -36.5l33 98q-90 0 -150.5 37t-89 98.5t-28.5 135.5q0 165 97 251t274 86l106 -2l-163 -1031l-248 -47l-19 -74h406l197 1245h-346q-132 0 -250.5 -56.5t-191.5 -161t-73 -242.5q0 -112 60 -188zM1109 0l23 80l-176 34l161 1016l176 38
l21 77h-320l-197 -1245h312z" />
    <glyph glyph-name="section" unicode="&#xa7;" horiz-adv-x="1006" 
d="M906 300q18 55 18 109q0 75 -37 131t-89.5 94.5t-140.5 89.5q-77 44 -120.5 74.5t-73.5 72t-30 94.5q0 20 2 30q15 94 74.5 142t139.5 48q37 0 70 -15.5t55 -38t28 -41.5l-4 -191l97 -12q10 43 33 139t34 143q-105 100 -268 100q-101 0 -196.5 -42t-162.5 -122t-84 -189
q-4 -24 -4 -52q0 -76 36 -133t88 -96.5t137 -90.5l28 -17zM580.5 -335.5q109.5 47.5 185.5 134t93 197.5q4 24 4 52q0 77 -37 134t-90 96t-140 88q-41 22 -69 40l-325 200q-18 -58 -18 -107q0 -75 37.5 -132t91.5 -97t141 -91q71 -41 114 -71t71 -68.5t28 -85.5q0 -7 -2 -25
q-11 -70 -54.5 -117.5t-102 -70.5t-114.5 -23q-66 0 -116.5 32t-72.5 78l-7 188l-102 15l-55 -267q40 -62 125.5 -104.5t189.5 -42.5q115 0 224.5 47.5z" />
    <glyph glyph-name="copyright" unicode="&#xa9;" horiz-adv-x="1380" 
d="M1004.5 76q149.5 91 236.5 243.5t87 329.5q0 192 -79 344.5t-225 239.5t-339 87q-167 0 -312.5 -89.5t-232 -244.5t-86.5 -341t79.5 -336.5t221 -237t321.5 -86.5q179 0 328.5 91zM965.5 1141.5q117.5 -75.5 179 -207t61.5 -295.5q0 -154 -70 -279t-189.5 -196.5
t-262.5 -71.5q-146 0 -261.5 72.5t-180.5 201.5t-65 291q0 150 67 279t183.5 205t257.5 76q163 0 280.5 -75.5zM835 297q75 31 110 73l-21 49q-37 -24 -76 -37.5t-96 -13.5q-83 0 -140 56t-85 138t-28 160q0 76 21 133.5t59 89t88 31.5q49 0 80.5 -39.5t56.5 -99.5
q52 4 80 27.5t28 61.5q0 35 -22.5 64.5t-68.5 47.5t-114 18q-93 0 -176 -51.5t-134 -145.5t-51 -215q0 -102 41.5 -189t118 -138t175.5 -51q79 0 154 31z" />
    <glyph glyph-name="registered" unicode="&#xae;" horiz-adv-x="1074" 
d="M781 597.5q115 57.5 181.5 167.5t66.5 261q0 158 -65 270t-177.5 169t-252.5 57q-136 0 -244.5 -58.5t-171.5 -171.5t-63 -270q0 -145 62 -254.5t169 -168.5t238 -59q142 0 257 57.5zM740 1393q93 -53 147 -150.5t54 -226.5q0 -114 -54.5 -205.5t-148 -143t-206.5 -51.5
q-109 0 -198 51.5t-140 146.5t-51 222q0 129 50.5 221.5t139.5 140.5t201 48q113 0 206 -53zM543 830l-74 27v144h56l43 -83q28 -53 52 -85t55.5 -49.5t75.5 -17.5q47 0 82 11l10 55l-16 7q-38 17 -60 35t-59 61l-78 91l1 2q51 17 88 65.5t37 100.5q0 80 -62 113.5
t-183 33.5q-47 0 -118.5 -7t-126.5 -15l-5 -53l81 -18v-395l-80 -28l-7 -48h283zM480.5 1271q9.5 1 22.5 1q55 0 85.5 -27.5t30.5 -74.5q0 -38 -19.5 -63t-51.5 -39h-79v202q2 0 11.5 1z" />
    <glyph glyph-name="trademark" unicode="&#x2122;" horiz-adv-x="1146" 
d="M178 1079l60 -6l41 110h117l-67 -424l-79 -21l-12 -54h273l15 56l-81 16l68 427h122l1 -104l61 -7l43 172h-540zM885 684l14 56l-80 16l86 363l89 -420l98 9l208 428l-34 -377l-78 -21l-14 -54h272l13 56l-79 16l42 417l79 17l13 54h-228l-44 -72l-159 -319l-50 304
l-21 87h-240l-13 -54l80 -19l-98 -412l-79 -21l-13 -54h236z" />
    <glyph glyph-name="degree" unicode="&#xb0;" horiz-adv-x="485" 
d="M332.5 954q44.5 26 71 72t26.5 102q0 84 -43 130t-128 46q-53 0 -97 -27.5t-70 -73t-26 -96.5q0 -86 45.5 -132.5t123.5 -46.5q53 0 97.5 26zM312.5 1196.5q25.5 -40.5 25.5 -91.5q0 -54 -22 -82t-63 -28q-45 0 -70.5 41.5t-25.5 92.5q0 45 22 76.5t64 31.5
q44 0 69.5 -40.5z" />
    <glyph glyph-name="bar" unicode="|" horiz-adv-x="452" 
d="M409 1244l-114 11l-254 -1605l114 -13z" />
    <glyph glyph-name="brokenbar" unicode="&#xa6;" horiz-adv-x="447" 
d="M287 528l117 716l-109 11l-112 -715zM150 -363l124 782l-109 12l-124 -781z" />
    <glyph glyph-name="dagger" unicode="&#x2020;" horiz-adv-x="818" 
d="M352 718l-14 -1069l145 -12l-15 1079l298 -11l8 122l-306 -8l9 425l-133 11l8 -436l-297 8l-8 -115z" />
    <glyph glyph-name="daggerdbl" unicode="&#x2021;" horiz-adv-x="825" 
d="M352 718l3 -220l-7 -323l-280 12l-8 -123l288 9l-10 -425l133 -11l-9 436l307 -9l6 117l-313 -7l-3 255l9 287l298 -11l6 122l-304 -8l10 425l-133 11l7 -436l-295 8l-7 -115z" />
    <glyph glyph-name="asciicircum" unicode="^" horiz-adv-x="746" 
d="M411 1237l-355 -411l44 -33l296 280h10l228 -285l61 36l-228 426z" />
    <glyph glyph-name="ampersand.sc" horiz-adv-x="1281" 
d="M1025 500q-2 -2 -13 -19q-10 -14 -69 -97.5t-109 -145.5q56 -71 110.5 -106t111.5 -51l31 -10l-25 -69q-60 -20 -122 -20q-68 0 -127.5 34.5t-106.5 85.5q-70 -60 -145.5 -90.5t-167.5 -30.5q-103 0 -161.5 45.5t-58.5 122.5q0 17 3 33q10 65 47.5 115t88.5 87t126 80
l-32 43q-52 85 -52 164q0 21 2 32q9 61 54.5 117.5t111.5 91.5t135 35q95 0 150 -45t55 -118q0 -14 -3 -31q-10 -62 -41 -109t-73.5 -80t-103.5 -69l144 -192q60 79 130 194l-108 42l21 68h374l-21 -68zM593 558q48 36 77.5 75t37.5 87q3 23 3 40q0 52 -24 78t-63 26
q-32 0 -61.5 -34t-36.5 -78q-3 -15 -3 -30q0 -31 13.5 -65.5t46.5 -85.5zM368 203q0 -25 13 -49.5t37 -39.5t55 -15q96 0 183 69l-170 231q-48 -37 -78 -81t-39 -102q-1 -4 -1 -13z" />
    <glyph glyph-name="paragraph.sc" horiz-adv-x="1289" 
d="M667 389q-104 4 -155 53t-51 134q0 28 4 53q18 117 94 164t175 47l82 -2l-114 -717l-216 -47l-19 -74h374l147 930h-240q-120 0 -225.5 -38.5t-176.5 -114.5t-88 -184q-5 -32 -5 -54q0 -125 101.5 -186.5t278.5 -61.5zM1202 0l23 80l-146 34l111 701l146 38l22 77h-291
l-147 -930h282z" />
    <glyph glyph-name="acute" unicode="&#xb4;" horiz-adv-x="393" 
d="M131 1348l183 318l-111 39l-123 -325z" />
    <glyph glyph-name="cedilla" unicode="&#xb8;" horiz-adv-x="339" 
d="M221 -322q53 39 53 95q0 44 -25 80.5t-64 70.5l53 79h-74l-98 -141q74 -70 74 -110q0 -24 -22.5 -46.5t-63.5 -36.5l19 -58q95 28 148 67z" />
    <glyph glyph-name="circumflex" unicode="&#x2c6;" horiz-adv-x="560" 
d="M118 1357l139 111h11l163 -110l49 37l-178 186l-55 -15l-168 -179z" />
    <glyph glyph-name="dieresis" unicode="&#xa8;" horiz-adv-x="603" 
d="M103 1403q22 -19 52 -19q35 0 63 22.5t34 58.5q1 4 1 12q0 29 -21 47t-52 18q-37 0 -68 -25t-31 -65q0 -30 22 -49zM370.5 1402.5q21.5 -18.5 51.5 -18.5q35 0 64 22.5t35 58.5q1 4 1 11q0 29 -21.5 47.5t-53.5 18.5q-37 0 -67.5 -25t-30.5 -65q0 -31 21.5 -49.5z" />
    <glyph glyph-name="dotaccent" unicode="&#x2d9;" horiz-adv-x="404" 
d="M260.5 1372q28.5 17 45.5 45t17 61q0 48 -36.5 81.5t-86.5 33.5q-31 0 -58.5 -15t-44 -41.5t-16.5 -57.5q0 -33 16 -61.5t43.5 -45.5t59.5 -17t60.5 17z" />
    <glyph glyph-name="grave" unicode="`" horiz-adv-x="406" 
d="M270 1329l56 35l-132 333l-115 -38z" />
    <glyph glyph-name="macron" unicode="&#xaf;" horiz-adv-x="617" 
d="M523 1379l13 100h-442l-13 -100h442z" />
    <glyph glyph-name="ring" unicode="&#x2da;" horiz-adv-x="509" 
d="M339.5 1385.5q41.5 24.5 65.5 65t24 85.5q0 46 -22 83t-60.5 58.5t-85.5 21.5q-46 0 -87.5 -24t-67 -63.5t-25.5 -84.5q0 -50 22.5 -87.5t60.5 -58t84 -20.5q50 0 91.5 24.5zM317 1610q23 -35 23 -86q0 -55 -19.5 -81.5t-60.5 -26.5q-45 0 -67 35.5t-22 86.5q0 47 19 77
t60 30q44 0 67 -35z" />
    <glyph glyph-name="tilde" unicode="&#x2dc;" horiz-adv-x="626" 
d="M130 1386.5q9 12.5 22.5 23.5t25.5 9l225 -32q4 -1 11 -1q40 0 69.5 32t46.5 69.5t17 42.5l-49 2q-2 -3 -11 -13.5t-21.5 -19t-23.5 -7.5l-226 29l-11 1q-39 0 -67 -32t-43 -68.5t-15 -42.5l39 -9q2 4 11 16.5z" />
  </font>
</defs>
</svg>
